<mxfile host="app.diagrams.net" modified="2021-03-30T09:24:12.764Z" agent="5.0 (Macintosh; Intel Mac OS X 11_2_3) AppleWebKit/537.36 (KHTML, like Gecko) Chrome/89.0.4389.90 Safari/537.36" etag="qn4C5jasvo7HjKWQCa_U" version="14.5.3" type="github" pages="4">
  <diagram id="PdsOTLBWRr9NoOrqLnNb" name="软硬链接">
    <mxGraphModel dx="946" dy="646" grid="1" gridSize="10" guides="1" tooltips="1" connect="1" arrows="1" fold="1" page="1" pageScale="1" pageWidth="827" pageHeight="1169" math="0" shadow="0">
      <root>
        <mxCell id="0" />
        <mxCell id="1" parent="0" />
        <mxCell id="qmimO7yD9Qdoulk-053w-16" value="" style="group" parent="1" vertex="1" connectable="0">
          <mxGeometry x="90" y="10" width="250" height="170" as="geometry" />
        </mxCell>
        <mxCell id="qmimO7yD9Qdoulk-053w-1" value="" style="ellipse;whiteSpace=wrap;html=1;aspect=fixed;strokeWidth=5;fillColor=#E6E6E6;" parent="qmimO7yD9Qdoulk-053w-16" vertex="1">
          <mxGeometry x="110" y="70" width="40" height="40" as="geometry" />
        </mxCell>
        <mxCell id="qmimO7yD9Qdoulk-053w-3" value="" style="endArrow=block;html=1;strokeWidth=3;endFill=1;startArrow=oval;startFill=1;" parent="qmimO7yD9Qdoulk-053w-16" target="qmimO7yD9Qdoulk-053w-1" edge="1">
          <mxGeometry width="50" height="50" relative="1" as="geometry">
            <mxPoint y="90" as="sourcePoint" />
            <mxPoint x="70" y="70" as="targetPoint" />
          </mxGeometry>
        </mxCell>
        <mxCell id="qmimO7yD9Qdoulk-053w-4" value="" style="endArrow=block;html=1;strokeWidth=3;endFill=1;startArrow=oval;startFill=1;" parent="qmimO7yD9Qdoulk-053w-16" target="qmimO7yD9Qdoulk-053w-1" edge="1">
          <mxGeometry width="50" height="50" relative="1" as="geometry">
            <mxPoint x="20" as="sourcePoint" />
            <mxPoint x="120" y="100" as="targetPoint" />
          </mxGeometry>
        </mxCell>
        <mxCell id="qmimO7yD9Qdoulk-053w-5" value="" style="endArrow=block;html=1;strokeWidth=3;endFill=1;startArrow=oval;startFill=1;" parent="qmimO7yD9Qdoulk-053w-16" target="qmimO7yD9Qdoulk-053w-1" edge="1">
          <mxGeometry width="50" height="50" relative="1" as="geometry">
            <mxPoint x="230" y="130" as="sourcePoint" />
            <mxPoint x="120" y="100" as="targetPoint" />
          </mxGeometry>
        </mxCell>
        <mxCell id="qmimO7yD9Qdoulk-053w-6" value="" style="endArrow=block;html=1;strokeWidth=3;endFill=1;startArrow=oval;startFill=1;" parent="qmimO7yD9Qdoulk-053w-16" target="qmimO7yD9Qdoulk-053w-1" edge="1">
          <mxGeometry width="50" height="50" relative="1" as="geometry">
            <mxPoint x="110" y="170" as="sourcePoint" />
            <mxPoint x="158.56953381770518" y="107.42781352708198" as="targetPoint" />
          </mxGeometry>
        </mxCell>
        <mxCell id="qmimO7yD9Qdoulk-053w-7" value="" style="endArrow=block;html=1;strokeWidth=3;endFill=1;startArrow=oval;startFill=1;" parent="qmimO7yD9Qdoulk-053w-16" target="qmimO7yD9Qdoulk-053w-1" edge="1">
          <mxGeometry width="50" height="50" relative="1" as="geometry">
            <mxPoint x="250" y="40" as="sourcePoint" />
            <mxPoint x="158.56953381770518" y="107.42781352708198" as="targetPoint" />
          </mxGeometry>
        </mxCell>
        <mxCell id="qmimO7yD9Qdoulk-053w-17" value="" style="group" parent="1" vertex="1" connectable="0">
          <mxGeometry x="420" y="49" width="268" height="89" as="geometry" />
        </mxCell>
        <mxCell id="qmimO7yD9Qdoulk-053w-9" value="" style="ellipse;whiteSpace=wrap;html=1;aspect=fixed;strokeWidth=5;fillColor=#E6E6E6;" parent="qmimO7yD9Qdoulk-053w-17" vertex="1">
          <mxGeometry y="31" width="40" height="40" as="geometry" />
        </mxCell>
        <mxCell id="qmimO7yD9Qdoulk-053w-10" value="" style="endArrow=block;html=1;strokeWidth=3;endFill=1;startArrow=oval;startFill=1;" parent="qmimO7yD9Qdoulk-053w-17" target="qmimO7yD9Qdoulk-053w-9" edge="1">
          <mxGeometry width="50" height="50" relative="1" as="geometry">
            <mxPoint x="150" y="51" as="sourcePoint" />
            <mxPoint x="-171.53846153846484" y="53.30769230769374" as="targetPoint" />
          </mxGeometry>
        </mxCell>
        <mxCell id="qmimO7yD9Qdoulk-053w-11" value="" style="endArrow=block;html=1;strokeWidth=3;endFill=1;startArrow=oval;startFill=1;strokeColor=#82b366;fillColor=#d5e8d4;" parent="qmimO7yD9Qdoulk-053w-17" edge="1">
          <mxGeometry width="50" height="50" relative="1" as="geometry">
            <mxPoint x="268" y="20" as="sourcePoint" />
            <mxPoint x="158" y="50" as="targetPoint" />
          </mxGeometry>
        </mxCell>
        <mxCell id="qmimO7yD9Qdoulk-053w-13" value="" style="endArrow=block;html=1;strokeWidth=3;endFill=1;startArrow=oval;startFill=1;strokeColor=#82b366;fillColor=#d5e8d4;" parent="qmimO7yD9Qdoulk-053w-17" edge="1">
          <mxGeometry width="50" height="50" relative="1" as="geometry">
            <mxPoint x="216" y="87" as="sourcePoint" />
            <mxPoint x="156" y="57" as="targetPoint" />
          </mxGeometry>
        </mxCell>
        <mxCell id="qmimO7yD9Qdoulk-053w-14" value="" style="endArrow=block;html=1;strokeWidth=3;endFill=1;startArrow=oval;startFill=1;strokeColor=#82b366;fillColor=#d5e8d4;" parent="qmimO7yD9Qdoulk-053w-17" edge="1">
          <mxGeometry width="50" height="50" relative="1" as="geometry">
            <mxPoint x="108" as="sourcePoint" />
            <mxPoint x="148" y="45" as="targetPoint" />
          </mxGeometry>
        </mxCell>
        <mxCell id="qmimO7yD9Qdoulk-053w-15" value="" style="endArrow=block;html=1;strokeWidth=3;endFill=1;startArrow=oval;startFill=1;strokeColor=#82b366;fillColor=#d5e8d4;" parent="qmimO7yD9Qdoulk-053w-17" edge="1">
          <mxGeometry width="50" height="50" relative="1" as="geometry">
            <mxPoint x="93" y="89" as="sourcePoint" />
            <mxPoint x="149" y="59" as="targetPoint" />
          </mxGeometry>
        </mxCell>
        <mxCell id="E88DI7cB3HpcahcDKkpa-1" value="" style="group" parent="1" vertex="1" connectable="0">
          <mxGeometry x="57" y="240" width="800" height="250" as="geometry" />
        </mxCell>
        <mxCell id="vjAt4fYs6zMen9kzRl1l-1" value="" style="rounded=0;whiteSpace=wrap;html=1;strokeColor=none;" parent="E88DI7cB3HpcahcDKkpa-1" vertex="1">
          <mxGeometry width="800" height="250" as="geometry" />
        </mxCell>
        <mxCell id="vjAt4fYs6zMen9kzRl1l-2" value="" style="shape=image;verticalLabelPosition=bottom;labelBackgroundColor=#ffffff;verticalAlign=top;aspect=fixed;imageAspect=0;image=data:image/png,iVBORw0KGgoAAAANSUhEUgAAAMgAAADICAYAAACtWK6eAAAgAElEQVR4Xu19CXQc1Znu91e1JBu8gE0ImwMkYTF7gi1vauFgArbVMpvbQCCZZCY7L/MgM4yDrbYstYCwQ0jyBgcwmUkmsWQwlrrt2HgRamEjySwhBEIGEgIGS0gG75a7q+p/57ZksGypq6q7qrq6u+45HOD0v373frq37kqwoEyfXX2CSr6rQXQBiE9jptMIfBqAYRaY90z0IbALwHsAbWXmrSBtq8TSspZo6A0PIPsQoHRN+6+540SKa9do4CsIVJmuHU8vYwQ6wPSMJmPt841VWzK25hkYgIBpgghicFz5HkH6DoCTPDzdgwCBmjTiJa1NoYh7osrtSEwRpCxQs9gjhvsr3COKdXVkmCDlgdqnGXS1da49S3YjwIxHW6Oh79vtJ5/tGyKIvzL8FhhfyGcg8ji3jriqXNa2ukZ85HvFJAK6BPEHwtsBjDFp1xN3FwIqIJXGIgtfcldY7o8mJUH8gfBvANzo/jS8CI0gIDGXPxddFDMi68n0ITAkQcoCtXcR6CceUPmFgASe+lxk0eb8ysq+bAYlSFlFXZCI68255b8mZ0+AiObDe6MPjN66evW/HjBnw5M+iEBZIDydgI12ICJLNLHZWzMxBO2gBPEHwpsATDFkAWJVlx6INYUeNCbvSRlBwChBxB8lBpteqFU16UubVi18xUgshSxzBEH8leFbwXjAICh/hizPi61c8LpBeU/MIAJGCRKLhKisMhwgxk8BnGvQfFJMZfX8TdHFr5nRKTTZAQSZckX1GF+R/EeATtEDgoiebWmqulxPzvs9PQTMEER4SO6Hk3zrzJJEk3D2842hN9OLMv+1BhCkPFB3I4PFzFXKQqAnWiJV/6In5/2ePgJmCXLQkz8QFt8t0814liXfGc2Nt79lRqdQZAcQxOC07gcolibEnl64rVBAykae6RJExOqvCD8HQrmZuFUVX9y0OvS2GZ1CkD2cILqLggytpjVSvbgQwMlmjpkQRMRdFgi3EOA3kwOz7wut0dv/ZkYn32U/IYjRCoEkXRhrXPhqvgOT7fyM1of4SB8qVn9FuBWEaWZyIcLnW5pCfzejk8+yn4DrrwxfBcaKVMky0NUaCZ2Qz4C4JTcrCJIcbgXCzwOYaiYv2ec7vfmZ298xo5Ovsp8SZHbtNyHR0tSJ0ppYpGpmvoLhprysIojIqTwQ3szAZDP5qRqdtmlV1T/M6OSj7KcEqai9BUQpF/uY8XhrNPTtfATCbTlZSZD+nuQFAJPM5Kmh6NTnIz9514xOvske8g2SPAxVnXqI5X2gO9UArCZIH0nq2gAuNZMDyfS5lpVV75nRySdZjyAurU07CJIcblWEO5gwwUzaslo8rnn1/K1mdPJF1iOIS2vSLoL0D7fE5Q4Xm0hdk1Xl1ObVNQVHEo8gJlqJk6J2EqSfJOLw1JdM5BRXQJ/fHKl634ROzot6BHFpFdpNkP7ZrZcZuMgoBAzsY0k54/nGmg+M6uS6nEcQl9agEwTp70n+COACEzDsREIaH1tTGFuNPIKYaBlOijpFkH6SiJ0R55vIb7usKec1r6rpNKGTk6IeQVxabU4SpJ8k4lyI4fMkYldFQpIubGtc2OVSCC0JyyOIJTBab8RpgiRJUlH7ZxCdYyKbrWpcvXjT2sUfmtDJKVGPIC6trmwQJBgMyp37L/gTgPGGYWF+B5qvNLZ6QbdhnRwS9Aji0srKBkEEFOcEq4vH7veJb5KzjEPDb8mkTWluWtxjXCc3JD2CuLSeskUQAcf0b1YPU3uK/gjwmSbgeaO4SPavX7FAnCnKm+IRxKVVmU2CCEguv/zeo/cX738FoC+agOhPSkKZvnlNzUcmdFwt6hHEpdWTbYIIWCbNqh5V7PO9ZPJe5peZfTNao7d/7FJoTYXlEcQUXM4Ju4EgItuyiruOJVJeBHC6iezbZZ9yRfMzNTtM6LhS1COIK6sleabc0M2KqY7cWpXa9MrFx6mar0M8r2fC5qaS3qLZ69b9ZKcJHdeJegRxXZX0BeQmgiSHW3Pu+GyxprUBONUwZIyWuKZU5vLTCx5BDNe2s4JuI4jIftqc6pMkzSdOJo4zjgat16Siq59vnL/buI57JD2CuKcuBkTiRoKIAMuvrBvHKou7m3Vv3/w0IV4jD1fnNjfU7HEp3EOG5RHEpTXmVoIIuC6dXXdqQkqSxPAjrgxefVR8eHDt2tv2uhTyQcPyCOLS2nIzQfpntz5PktIKxokmIFy1j9Tgi02L95nQyaqoR5Cswj+0c7cTJDncCoTP0IAYAZ81DCNxVBk2Iri54cf7DetkUdAjSBbBT+U6Fwgi4p9eeefZKqvPATjeBJQReY8SbG6u6TWhkxVRjyBZgV3faa4QRGQyrbL2XInRDNBx+pn1SRC46Wj1mKDbXyHzCGK0Rh2WyyWCCGj8c+64AJq2AcBYE1A1njBcCTY01MRN6Dgq6hHEUbiNO8s1giS/SebUfok1Eo/4GH82nHnl9qPUea+7lCQeQYy3WUclp1XWTZaYdV+jjavKaDetVE+bXTdBkvhZAMeYAOyZfdvem/fii0sSJnQcEfUI4gjM5p2UV4THM0H/7UdZPtdtb0SWza6dRBKtATDaaOYEXiHtUec1N9coRnWckPMI4gTKafjo39ahf0kb0dxYU9VTabiwVeWSQO0UDUmSjDTqiAlPnzjs1XkNDQ2qUR275TyC2I1wmvb7Diz16m7NYPD/tEYW3ZimG1vVpgXqyiTwagAjjDvip2IRdR5QoxnXsU/SI4h92GZs2R8Ii9tCPqNjaDeKpbPc+makv7L2EjCtAnCUCUCWxyKheQDYhI4toh5BbIHVGqP+QN39AN8MoCSFRTFFencsElpkjVfrrZRXhi9lRgTAcOPWuSEWWSRIktXiESSr8Kd2fsmcO76i9a0t6JXdkOXJbvtYPzToaXNqvippUiOAYXrJHPydQKGWSFWdUXk75DyC2IGqhTb9gbB4ddbIcdetkOUr3EySstnhmSRhJYBiwxCxFohFq6OG5S0W9AhiMaBWmysP1P2EweKvqGzA9puQ5WvcTBJ/RU0FJHkFmIsM5AMCvcYJujxbl2V7BDFSS1mUmTXrZyV7fDtegkZngKDfqAjbGPhua1NIjPldWcorwnPElK5B0oudW4/FIlXfyUYyHkGygbpJn/6K2ptA9N8m1MQ6QhuBH5X2qPVu3DXb/+y4WL+RjOTFjK+2RkNiG4ujxSOIo3Cn78xfUfsMiALG/+omfYl1FDFz1A7CO8zaX9OPwAZNlsYTwdhMFVE01lQl8ne0eARxFO70nfXfTyVehBpHBv/qpu/NnZpM9I3WpiozPWnGiXgEyRhC5wxMmxM+S9LwF+c8us5TWywSmuxkVB5BnETbAl+XVNT6NaIWC0zlpgmHN2d6BMnBZtJ/9Y445ipO8BneDJiDqR4ZMuHHsabQg07lklWCiCnMnSU7T5EU4xeRyeADpJa8V6gP2x9sGBdfNn/0UcNG/BeAOU41Fnf4oTWxSNVMp2JxnCD+a+44keN8A4GvFjdsZpQo05PMWNu6qup3GdnJYWV/ZfhWYsxn4FhTK9Q5nLMT9xEfhMdRgpQFahYTJLHgY/jCMYP12EyMB1uiIbHXp+DK9Fl3n6JK8R+DcGt/8uKaz7wdeslq8TinRhCOEcQfqK0HKGhn62VgcWskVGOnDzfbnj7nri+qrMwiplkMntUfq1gLEaf0fObOZWQtU3EVUMoNjRJ46nORRbrHka3IwBGCOEGOT7pEottamqruswKcXLaR3KIi7y4jSRutaRhNRKOZVTPnxLOSPkGaoTf0ZqZ5rdGqBicCtJ0gTpLjEMAWxCKhu5wA0PNhLQL+itp7QfTvKa06OJNlK0HKKmq/S0SPWguhMWvMPKE1uki8jOSVHEKg/zu1OlXIDK2mNVK92Im0bCWIPxDeAuBiJxI53AcRLWlpqvpeNnx7PtNHoGAIMq2yZpbEkjiLrFfE29qv6Qkd8vvRAJ0D8NE6Op2xSMjMzeMmQvBE7UKgYAjiD4R/A0Dntg2eH4ssuscs2NNnVp+mykXVIP5mal3l4lik5iWz9j357CFQSAQRvcK5Q0NN82ORKtPkONSe3hDOydmO7DWp/PJcSAQRr5uOGqr6rFjsKQ/UPc7gfx6yiTg425FfzTR72RQSQVLeaWTFdgE9MM3Mdoh1g93yzinZaxrpey6RpDfWNy7sSt+CezT16lREaqZeM83MtlksfyCcEwSZcfWdY+MJ5VGAKvRWcDMF22b9V8G8NBZd9JDNfmw17xGkH1439CD+ObXToFGrrTXutHHG72LR0NecdmuVP48gLiHI9MrFx6ksv53qO8mqSnfcDvPXY9FFYhYx54pHEJcQpDwQvo+Bf8u5FmQgYAJeaImEcvJ7yiOISwjiD4RfADDJQHvLTRFVPj62ekF3rgXvEcQ9BPnY5CtIOdXWcnUvmkcQ9xBkBYCrcqrVGw92VywSMvy6k3Gz9kt6BHEJQYxUhP3NwR4PBFrREqm6xh7r9lo1Ui/eOojBOtADUw9IfyC8EcB0g+5yRkwmeXxz04KcvD9Lr05FJejVq5UVVdALhWWz7zyTZDUExk1WgppFWzuZaEFrU9UvsxhDRq4LiSA5sxdLvFsBiS8hkKO39mXUkg5VJnqFgZdIkf6QizNXh6ZSSATxdvNaxoDCMVRIBBF3VV2fumrtPQ+Sq1OdhUOHIzMtHIJU1l0L5uUGKtuuE4U5O9VpALO8FSkYgvRd1594FaBTslSbjbFI6Mos+fbcpolAwRBE4COuxQTjgTSxykiNga+0RkLNGRnxlB1HoKAIkiRJoG4dwOIyMMeKk/PkjiVVII4KjiB9JAnvcuyuWKYnY9GqbxVIe8q7NAuSIKIWywN1jQyutLNGvbuw7ETXGdtlgfC3CHgilTcG/rk1ElrqRES2raQPFnxZIHwf2XMGYyuYb8/VQ0JOVHSu+PAH7pgBaDqv2UqXxSIL1zuRk6ME6Rtu1cxglm4ggli1TnEtkKH0m8G8RWXp55tWVf3DkIYn5HoEygO1TzNIvB9zRCHwipbIIsc2YjpOkEMz9l6Ycn1bzVqA/orwD0AYuKeM8cNYNPT/nAwqqwRxMlHPV+4hMP2q6mPi8eLTROTFxfF3mp+p2eF0Fh5BnEbc85dTCHgEyanqyuFgr9lyYpGkzWTCLGIwA38nVpYlnpr6spuz8gji5trJk9h8c9sWg6iaQe8StOMBEk+sieMQYNC31YaJRvbsZQUNjyBZgb2AnF718jG+ooS4IGPIwkRz1fqJT7kRFY8gbqyVPIqpaG7bjzSi+QScnIojzJirLi992m2pewRxW43kWTy+YMcagC/XT4s0hjZXbZgkbptxTfEI4pqqyM9AfMF28U7klw1mpzHxtWr9pGcMytsullWCeAuFttdv1h345rZ1gGiCiUBUZu1adfnklSZ0bBN1nCD+a+44keN8A4HFVoKyjDJjepIZa1tXVYnjvV5xIQK+YNsLAJm94lVhqNeqDVMas52SowTp38r8HQAnWZx4MzEebImGsg6oxXnlvDlfsP15AFPTSERhlq9Wl18cSUPXMhXHCOIP1NYDFLQs8kEMMbC4NRKqsdOHZ9scAr5gWwygdEcKCYZ0tdowIWrOq3XSjhDECXIchISIbmtpqrrPOog8S5kg4Au2i2PPl6Rvg+JMuFqtn2jkSfH03QyhaTtBnCTHITkuiEVCd1mOlmfQNAK+YLsV17vGmekqdfnE1aYDyFDBVoKUVdR+l4gezTDGtNS9O7HSgs1yJT2CjBgmY0+vasAvHQD4KqWh9A8GhC0TsZUgeu+YW5bFIIa847d2omvcth5Bzj55GLZuTxgkCXpBfJVSP2mN8Qgyk7SNINMqa2ZJLBkZN9p1cVxnLBI6MTN4PO1MEdAjyBknDsPlF47Cr5u3GyQJ94L5SmX55LWZxmZE3zaC+ANh8YjkjamDsPfqUUC5OBapeckIEJ6MPQjoEeQLJ5Sg6fYz8YvVXSZIgv0gzFHqS3XOrmeek50E8S6vzrx+ct6CHkFOP74E0YVnJvM0SZJ9YMxRlpfaenmDnQTJmecPcr4VujgBPYKc+pkSrK7qI4h5ktBeQJujNEzaYBcEdhKEUwUdi4Q+8Z1ucnqXjJm5YVHsC9st78zJp5NLJOmN9Y0Lu9LF0U49PYKMG1uMNYvOGhCCyZ5kL0iqVOoniOlky0vBE2TG1XeOjSeURwGqACBOuuVqeRXMS2PRRQ+5KQE9gpw0phjrqgcSxHxPwnvAUqWyfKLldzEXNEH8c2qnQaNWNzWojGNh/C4WDX0tYzsWGdAjyAnHFGFDzdmDejPZk+wGUKk0lD5nUehJMwVLkOmVi49TWX4bwCgrAXWFLeavu+WWST2CHD+6CM21gxPEfE+CXSBUKvWlLVbVQ8ESpDwQvo/tuQbVqrpJ2w4BL7REQq74ntIjyHEjfWipG58yV5M9yS4wB5Tlk2JpA3iIYsESxB8IvwDA7DkFKzB3xoYqH+/kg54l175whkq+05mUURJLIyFhJDOPBOiyVE9tjxnhQ+sdqQmSRk+yE0QVSv1EsdU+o1LIBBE3bRyTEXouVrZ1L9qNL4ySE9IlBJSC4Qf4YoBGAFAB2g+w2FwlAVQCcHEqmEYfJWPzXecYQtJkT7IDjApleekmQ8aHECpkgojLAa7KBDwX61r7PuONL4zyJWgKNEwBkXjW7iIw7wYl77cqygSHkcNltP3UGEHM9yT0MaBVKA2TNqcbY8ESRG8NJV1A3aBHoBUtkaqMb0D3zWu/jDW6lohvAHAUgF6rH0I6ukRCxz3mLvk32ZN8RJJWkVg2WQypTZeCJYhAyh8IW3FWwTTodivIJI9vblrwl7T8BNtP8BFuAief8BZDpx0A2zYUHV4s4cV7zRHEfE+Cj0hTZyeemtJmFpOCJkjZ7DvPJFkNgXGTWeBcKr+TiRa0NlUNfDbASLDBjSN8dNTNYLq1f+pbtA3bF05LfISX7z/PSIRHyJjsSbYTaHaiYWK7GWd2EiRn9mKVzQ7PhMSXEEg86pN7hegVBl4iRfpDOjNXRfM6bgbjNgaPsXoIpQemTya8+kB6BEmjJ+khCbMTy0o79OI6+LudBPF28xqthSzJyXM7ZhHhboA/B2B0NsKQCHjtofMzci16kic3bue9B1Qj+/u6CfKsRMPF4kI73WInQcRdVWIcm6LYex7E1qlOXWhdLBBsP0EGagj4rlVRio/tYh9BY2B3rwpNA8QM1UnHFuG040sGuOnepWD7bgU79irYuU/F6w9nRpCDPcnSjdu1fQdUyUBOH5IkzUosm6B7Vsg+glTWXQtmI9fa23Wi0NqpTgOo54KIHOz4OkG7t3/d4uh0Yz6qpK8dClLM/vIxOPOkYTh5TDFOGVuEU8YWQxZdg8NF9CRPbOhR98c1Wdc1oYtUmpV4amLK90lsI0hZxV3HEiVeBegU3WDtEWiMRUJizt4rAoHga8Uy9j1EwA/SBeSYo2XsPaAliXDpeaNw2YWjcNFpYvbXPUWQ5PENPUpvXPPpR8VdBJqZaCh9ZShZ2wgiHPorw7eC8YB+oNZLMPCV1kjI8u3P1kdqv8Wi616YzFrydpkz+x+vMex0xDApOWwaf8pwfOW8kZh61kiIixbcXPpJkuiNa0YWMTtJ4pmJZZP+OFhOthIkSZJA3TqAZzgJqJmDUk7GlQ1fcrD9mwT6z/4tH4bHPaOOknEgoSUJcX3ZGPjHj8xG+Gn7FCR5bH1P/EBCS7nVpd/BNknTZsafmvzq4Q5tJ0gfScK7HJs+ZHoyFq36VtrI5pGib2777SDcaSYlsXlw1z4VX71oFK6bOhalZ6T9mWLGrS2ygiS/WtdzIK5oA2cJBvf2gQRlZrxh6p8O/dkRggiH5YG6RgZX2oJEv1HvLqxP0T34LqBRvMWM0+79Kq6ZfCzmThnjum8Lo3kcLidIsmRdd29CYSPjwvclDVfEnyr980E7jhFEOCwLhO8je85gbAXz7W45JJRuZVqlZ5YcJ44pwq69Kh759qmYfKbYlJtfpY8kH/YmFEM7A7bKEs84sGzSXwUKjhKkb7hVM4NZuoEIYtXa/CacgXXXDOYtKks/37Sq6h/5Va3pZeMLts8EYPgOWzGk+tLpR+Hur4/Dwanb9Dy7W0uQ5NFnP9yvqBiuE+k+AK8rDaUTs0KQQ4PzXpiytlH55nVMA7OhM/aCDOIsxq2VJyBwsW17Ea1NMENrj6zqTCx5tiehaqwzN009RJifqJ/4hOM9SIY5eupDIFB0XduFrEmtAOuOkcQM1fiTh6Pm+pPxueOMTPLkD+wPNm3b/fiG7ZKmcarZhwSIfqHUT7zVI0g+1H1w05gi+F5mQOypSlk+M8qHedPG4uaZx+uJ5u3v967c1v3rjduHa5zyj8krSkPplzyC5EEz8AXbnwUg1ppSrnMcO8KH66aOwb9WfDYPsk4vhXtXftDz6+aPhmlaSnIkAH5IaZj0Hx5B0sPZNVq+YPtdAP+f/r1VQ8Y1ariMS88fhTtvzNbOn+xDdt/KbT1PNm/XI4f4K/MuA98Tb5F4BMl+vaUdgTy3/UYiPKZ3sEl8kIsNhbXXn5y2r1xXvH9l5/alzT0lOj2HSHMfg7apDRO/mPVZrFwHPavxX7/5NJ8qi4M/x6WKQxxpnTPxGFTPK2ByNHZtX7qx2wg5wMB7Mnwz4w1fft0jSFZbeGbO5WBHAwGzgKFnY8RslZjCrZpr9avbmcXupPZ9jZ0fPbmxp9hAz3EEOTyCOFlTFvrq24CIJXpX7oihlbhSJxtnMyxMN21T96/c9vHSZkEO6G4oO7znOOjU+wZJG/4sKYpbRwCxoS7l0EqskN914ynwn5Nbu3CtQvWBps6Pn9jQnRE5vB7Eqtpw0E7/Dt2FwNB/FcUpv3PHDcdvb/mCg5F96upAgrE/rmFfXMP+A1ryv8U/B0tJEUG8bnv0MAkjSvr+bWW5v6lzx9INPUU6i4FJl0P1HF4PYmWNOGUr+NoIH/a+BVDKhYyRw+TkozTiBKCd5f2P4ni78wDe6uzFy3/bh//d1osPPk6AGfDJgEwESVxASgOXZ8TvzIyEyogrbMmZ9IN5PtDYufOJjT0+K8jh9SB2th4bbBfN3fIjJvUOgIYcN4lZq3+/8gTcUDbW0gg+3JnAG+/34vX39qPl9d14Y+v+5LeNOHoujuFmUqy4tEH4f7Cpc+fjG6wjh0eQTGo1C7pysONtAn8+leuy8SOx5PunWRJdx1t7seFPu7DxtV14tyeeHAqJ4ZOipnxdz7RvKwjyYFPnrsc39MhW9RzeEMt0NWZXQQ62X9c/czXkgz9i1uqxH5yOi05P/yIFMUwSpGjasgPvdschvhcy7SH0kMuUIAY3IBr65jg8Vm8WS6/2XPK7L9gunju+NFU4Z500DCvmn5FWxOte3YWlG7uT3xLijiu7SXFokJkQ5MFI5+7H1/fo7c5NixzeECutpuS8Uklw0xdV+MRl1EN+dYvhz103jsNlF5h7US7y4g48tq472Vv0JjL7lkgXmXQJ8lCka8/j67tJTb11PW1yeARJt0Yd1vMFOxYC2k9SbUgUNxiuWzz0W3+Hh7x880d4fH0PuncmktOx2SzpEOShSNfex9d3w05yeATJZqsw4dsXbBfno4ccO4lvD7GF/RuXpFw7THpc2fExfvmHD5NXf+7LcPYpRQqJ/t+M3Etlepr34WjXXtHr2U0OjyAmGmm2RJNv/0mS2Dg35E2B4pzHs4vOSnmmfM0rO/Gfaz/E1u0J7O0VL6RlXBQAe/ovvf4jQO8A2v8y6HVi9R3Fh3fw+ynv+ILt4mrPi1J5M9ODPBzt2vfY+m5W1ZQnAjMaVh0aq/eRnnE7sddA0by27zPT3UM9Vy1WzW8qPy659jFYefnv+8T6AMS/VXFFYuYlDtBfwPxfxPxc4qlJW1KZtJIgD0c69yfJoSVfu0pZ9FbI9fQP/u4RxChSWZLzBdtXIblrd/Ai9lzd841xmHrWkUfRfxvbjrtXbEsqpr92wWLV4+8EWi5LvPTgdThG4bCKIA9HOnsfW9+tOUkOb4hltJazKOcLtu/tfx9w0CjEhW/P1Z6NYcWf7mfasVfF4mXv47nXdyevD02j7CRgl0Zak0S0ZKh7a43YtYIgD0c7ex9b5zw5PIIYqeFsygS3fM4H9c1UF04f/ozypjf3oPr37+OjPcqADYIG09jHQBcR/0Cpn7TGoE5KsUwJ8rNo14FfretW9a/q0d94mE4+3hArHdQc0vHN3XI5SKtP9fqTOC3405vGJSP6n9h21C3/IJ3o9gNoI41v0/umMGs8E4L8LNoZ/9W6HiVb5PB6ELO17bB8UbD9/zL4p0P1IGNH+hC+4WRMP3cU7l25DSvaPoYYXhkvtIPB9bKkPhRfNuUN43rGJdMlyCOruuJLnu3OKjk8ghiv56xIynPbnyTCPw3l/KQxxVhXfRZueeJdvPT3vejZJWZeDZUdAPYD0jylYYKhmxgNWR1EKB2CGL8B0Z5h1aFpeEOsdGveAT29xiWu8hEk6dmdMEUOBv9GbZj0IwdSgF4OIoZD10EeiXYpS9Z1x7M5rPII4kTLsMCHL9gu5mgHX+AAkqfyhhURenYb6jm6AHoLhPlK/cTnLQjPkAkzBPn5qi7l0WfdQw5viGWoirMn5At2HOh/GeqIIAQ5xMLfoUdZh46UPwSkXykNE6uczsYoQR5Z3aUuWdt9wC09x0GcvCGW0y3GqL+vxY71KSVdYBjaz5TCbJyZr1WXT4oYdW2lnBGC/PCK47VHn+3udRs5vB7EypZgsa3i6zrO0zTelNnTdfSxgsT5aJj6vsXhGTZnhCCyRPvcSA6PIIar2XlB39zN00HyCgDpPt6RvJ3c+cgHetQjiJvJ4REk260nhf8MCeIKcoj09AhipAqs2nhoxNfhMt43SDqoOaBTHHzpHA3K5qF28eAdZScAAARbSURBVKYIwTXksIIg2SSH14M40NDTdhF86TM+KOLdRb039Q514SpyZEqQbJPDI0jardcZRV+w3cwBDteRIxOCuIEchxGk7scEvl+n6u+NRUL/4Uzz8Lz4gm279R7G6UepV2koNdPTOAZuOt8gbiHHAIKUB+quY/DvUyLH9GQsWvUtx9AtcEdysO09Auk8CcWqhKILDr5n4TbIzBLETeQYQJBpgboyCRzTAXhVLBKqcFsl5Gs8BhrXPhCqlfrS+9yKgYEcPgndbeQYOMSqqP48ke9tnR7knVi06nS3Vka+xSUH239LwNeGyCsOcKPSMCno5rx9wXax2DlFL0Y3kmMAQWbN+lHJHvn4Xr1EZJbOb44ufE1Pzvs9cwR8wY7bAL5ncEv8otIwaULmXuy1IAc7HqHkI6NDF7eSYwBBxP+UB8KbGZicKhkCbmmJhB62F1bPukBAntd2FTH+e5AP9V5JoonxZRPd/4cquGmMD0Xbhtp06WZyDEKQuioGh3Wa55syqWXNTYt7vGZsLwJ9i4Xq8wAfut1kF7FUlVg+4RF7vVtnvX9XQAODZAIf2295mzgpKUEuc+sEw5EEmVNXzho/pw8N3ROLVM3Xl/MkMkLgu1uKfB+ruwYcuWVeqyyfdEVGdrOgnCSJ5JsK5iBAb4PxJ2X5xJoshGLK5YCnf4LBerlz/5vvAtB9FpWZ5rVGqxpMefOETSPgC7aL78KSfsVdiozz8PvS90wb8hTSQmDg21jiO6Si7hdM/EMj1mTJd0Zz4+1vGZH1ZNJDwBdsfxPAmeIMOQPfUhtKl6VnydNKB4EjCRIIi0uSxce6oTe8iiXphPWNC7vSce7p6CPgC7Y/DSBAwNOJhtLr9TU8CSsROIIgwnh5wNDH+idxEHBFSyS01srAPFt9CPS/anurAukMNEzY6eHiLAKDEmR6sHqEtr9oM4PPMx4O3SOTcq83u2UcMSOScrDtaogHYbN0ZNZIjPksMyhBRMJlgdpvEOjXJpN/E4RHWeOW1uiiF03qeuKDIFB87Zaz409NEK9LeSULCAxJkD6ShH9OwM3pxcVbAXoVTB+CuJuh7UvPTgFosfxnn1a0uXn1/K0FkG1OpZiSICITfyDcBqA0p7LK0WCJaElLU9X3cjT8vAxblyD9JDFzcCcvgXIsKaKHYk1Vtzrmz3OUEgFDBOkjSW09QK7eOZovdU2MK1uiocZ8ySeX8zBMkOQ3SUX434jg2rMHuVwRA2JnvjUWXfRQ3uSTw4mYIkiSJJV1N0iMBeamgHMYoSyEzkQ3tzZV/TILrj2XhyFgmiBCv3+d5BaAbzG64u4hbwIBlgKx6MKoCQ1P1CYE0iLIwVjKxbYUpltAfC0Dn7UpxkIz+2IsEnL9QahCqZSMCHIQJLELuGv/mzMYuAzADABfLhQArc2TG2KRRfOstelZywQBSwhyeADi+O5uaczJTEUnycDJGnAyoI7KJNB81iWmHQT6mzdz5b5a/v9D26LmWFsh6QAAAABJRU5ErkJggg==;" parent="E88DI7cB3HpcahcDKkpa-1" vertex="1">
          <mxGeometry x="300" y="25" width="200" height="200" as="geometry" />
        </mxCell>
        <mxCell id="E88DI7cB3HpcahcDKkpa-2" value="" style="group" parent="1" vertex="1" connectable="0">
          <mxGeometry x="70" y="550" width="800" height="250" as="geometry" />
        </mxCell>
        <mxCell id="E88DI7cB3HpcahcDKkpa-3" value="" style="group" parent="E88DI7cB3HpcahcDKkpa-2" vertex="1" connectable="0">
          <mxGeometry width="800" height="250" as="geometry" />
        </mxCell>
        <mxCell id="uxpKBSw-neuvkBTuNMYb-2" value="" style="rounded=0;whiteSpace=wrap;html=1;strokeColor=none;" parent="E88DI7cB3HpcahcDKkpa-3" vertex="1">
          <mxGeometry width="800" height="250" as="geometry" />
        </mxCell>
        <mxCell id="uxpKBSw-neuvkBTuNMYb-1" value="" style="shape=image;verticalLabelPosition=bottom;labelBackgroundColor=#ffffff;verticalAlign=top;aspect=fixed;imageAspect=0;image=data:image/png,iVBORw0KGgoAAAANSUhEUgAAAQ8AAADICAYAAAD2tWSGAAAgAElEQVR4Xu1dB5hkRbX+z70dp8PkmZ7dnZ3dhV1yXAFJuyCughhIogIiKEFEYdUHT1BBEMk5KFlAkgryCGIAlAUVUFHyLmFzmBw7TKd7z/vq9vRM93Tuvt3TM3Pr+/hWpyuc+qv67zp1Tp1DMIqBgIGAgUARCFARbYwmBgIGAgYCMMjD2AQGAgYCRSFgkEdRsBmNDAQMBAzyMPaAgYCBQFEIGORRFGxGIwMBAwGDPIw9YCBgIFAUAgZ5FAWb0chAwEDAIA9jDxgIGAgUhYBBHkXBZjQyEDAQMMjD2AMGAgYCRSFgkEdRsBmNDAQMBAzyMPaAgYCBQFEIGORRFGxGIwMBAwGDPIw9YCBgIFAUAgZ5FAWb0chAwEDAIA9jDxgIGAgUhYBBHkXBZjQyEDAQMMjD2AMGAgYCRSFgkEdRsBmNDAQMBAzyMPaAgYCBQFEIGORRFGxGIwMBAwGDPIw9YCBgIFAUAgZ5FAWb0chAwEDAIA9jDxgIGAgUhYBBHkXBZjQyEDAQMMijyD1gxXe/JYH+M4rrXy2yC6OZgcC0RsAgjwKXz47vzGOYLgN4BUCrg7hhBQAusBujuoHAtEfAII8CltCO7x3LYEEc7olmdF8QN/ywgG6MqgYCMwIBgzzyWsYzzFY4LyOoJ6WrzuCzQrjpqby6MioZCMwQBAzyyLGQNpxzECCL08biTFUZ1G+CusKPm7pnyL4wpmEgkBMBgzyyQGTHd7/P4O/lRDFW4dkgbjw9z7pGNQOBaY+AQR5pltCKcxZT7LRxUIErfHEQN95dYBujuoHAtETAII9Jy2bDuScBkiAOczErqoIOD+OGt4tpa7QxEJhOCBjkMb5a33FbYRaXoseWsoAM/DuEG79QSh9GWwOB6YCAQR4ArDh3BcVOG/P0WTS6LYgbLtenL6MXA4HqRGDWk4cNK4WPxrf0Xx7p5CCuf0H/fmdOj+uZbc4QOtQoFiiMBRKhA8ACInQwYwGAHu0/FT0kQViyelTx/wk9rGL9HBetnjloTL+ZzFrysODc3cVpg8BLy7Rsm4OwrACu9pap/2nZ7ZYRbrRI+KzC+BwR9i9xEtsY+ItMeNFag9dqiQZK7M9oXgACs5I8rDh3BwL9pQCciqrKoMdCuOHcohrPoEaCMMwSDgfwKQY+WcaprQLjVch4zVNDr5VxHKNrALOSPMTK23DuyQBdUe5dQKDzRnHDw+Uep1r77/Lzj8A4EUCCS39FpH0fwFOhKJ7qqKN1FRlxlg0ya8lDrLMd372NwUeVd80pxIiuCOGWteUdp7p67xriRWTCxWU+aeSeNCEMhng68JTHScYdVG7E8q4xq8mjFmfVB2F9joC2vBErqiK9FMQNXymq6TRs1O3jTzNwbxWK/h9VxVMS4UmPi8RlrFFKQGBWk4fAzYrvHk7ge0rAMK+mDFwTwo035lV5Glfq9vH1DHypyqcwKE4iURX3zXPTB1Uua9WKN+vJQ6yMDSsvBnBGuVeJgONGceMr5R5nqvrv8vHWqRq7mHGZ4SXCHfDhTo+H/MX0MZvbGOQxtvo2rHwWwB5l3gxrgqhdAVyilnmcinff7eM/MbBrxQfWY0DGGgbuaHPRb/Tobrb0YZDH2ErXYOXeKvB0BRb+/iBuvLAC41RsiC4fX4/qV1Vy4sHAC5KEO1pr6O85KxsVZq+pNt3aW7HyLAJ+VO59oYK+FcYNT5Z7nEr03+Xnr4Px00qMVcExHmAZd7TZaUMFx5x2QxknDwCv9rM75I9cwozDrzrnkfmvv/SBHA5FRoOBcKAcK8rAgAnmFX5c01WO/ivVZ9cw7wcZj2j3zjOv9BNwTauTfjXzpqbPjAzyALBqc+QxcMxVunvroHzBCXc2BnwhGvWHvOUgEHa3mmh0+Nlg5MpT9VnGyvfS1cUOODXiKJd7f+UnlW5Ewn2jPfjpwoUUrA6BqkeKWU8esVNHVHtgxQyZCMqLT75hu/3Sp2qjUSXiHQzo8l5Cad/NpnbsZVPr51pgtRNIUkxrX/t+5D+H3Vo92yF/STq9fCkRvpF/i2lck/FalHDpPCe9MY1nobvos548XtwS2Z9UPAagBgwZBO0h2y8uedK96qk37YO93pLikiqL9rUrHXvauXHeeHAhls1BmK0jkOhYPEDTznTb6ecjiXGn7ruxujscBuNSj4serW4xKyfdrCePVR8F2mE1vye81TmWfWWIgFAkEqXvfPZm8/rVneFilkNp3d6i7HCQg1sWWRLbs9k2Atk8CuA1PEjHFNP3VLbp9HIzEYRJc8lUyjFVYxPhrlW/x0+PP56UqZKhWsad1eTxaje3hkLRBwAsB8EERpgZw0TQ/DCeefDVJ2658PGjC1osyUTR3VY4lcX71yS1k0xhNlu9ICk69vcz8CD9vqC+q6Byp4+vIiBtCooqEK8iIjDjbwAubXPRuxUZsEoHmbXk8dKWyGGsQhAHiMjErPYBVDe+Tsy/tTrNFx3a+L3T842gzs4mObL359zcsjD5tGGy+GGy+hL2wHV4kIRvxLQq3V4+hgm3TCuhyydsHxEubnXQ/5VviOrueVaSx183hldKROfFl4ZAZy+bb9I2wd82hnY5qMOa9ItixcrfEHBgtqVUWhZZostOqU+qQ3JUO21IcqLqcycepEuqe1ukStcX4LlRxm/BWrQvo4whwIzL2lz0i9kIyKwjj1WboncDfIS22Iw1kJRvLm+3fZht8a343hKC+hwAU7p60V0+6VR2WuZI/IzFvYa430guL+FBmpavazu9fBsRyhy+YHp+BZlwd5uDxPuoWVVmDXn8dRvvKCvR+5jRPkYcj6nzTd8/lCh+B5F14W1Y+VUAV06ulEocxLFLUVOyXwDjbjw0PTdYt58vYsaZs+qbUeBkifBMq4NmFUazgjxe2hA6liXp5vh+YOafHNJhuavA/QE7Vt7KwPgFqjDDRvf+7ESELMkUGrsUTbyJ3wzC1fgV/a7Q8aqhfrefz2TGRdUgyzSQ4XWPkz4/DeTURcQZTx6rNkcuBo8/t+9TGWcf2mEWt+VFlJV1NtBzAM9hZ6Mc/sQZjbDYNQxZXIiKi9Hk8juYcTV+SZuLGGzKm3T7+Shm3DblgkwvAbbCh0NnwxP/GUsez63lWospeg/GI3Tzi2Yyn39AO5UUc8KKcz9NoHsj+32pVm3fxQZJjrBJuxSNJOzxITCuxkN0//Ta9xPSdvn4MCBmjTJKYQgwoFIUyzx1tL6wltOr9owkD+E1CgW/JIJLLAcxbl3WYdYt2LEN370odOR5P2Jng/AUTUytIDbLs1DwJB6Zvj4A27y8TCLt3YpRSkFAwTGe2pkbxX3GkcdfN4RPk6QJUyip6jnLFlgfL2UPpGtLR27+LdfPOwDA62C8A8Kr2IJn8WJ+F7B6y6NXf11+/oZww9arv9nej0z4WLODOmciDjOKPFZtDN8AouPHFuodkk0XLJtL/5mJC1eOOXV5+TIQpu1L33JgokefUgA7tLRQopOgHt1OeR8zgjz+un50gSyb7mJgZ01NAR41kelnB7QbGcTy3WGdPr6WgGnpg5LvHKew3maPkz4+heOXZehpTx6rNkc/A+ZxsyuDf3bIfMvPy4LWDO20y8+3gDHtHulNs+X4q8dJM+pN0LQmjxc3RM4jCSu1TcTczZL0w0PaTX+YZptqysTtDfIOShTCM3L5lAkxiwYmwp2tjun3NCHTEk1L8niH2dK3WbmDwJ+KTYyeh6pcuXyB1cianueXscvPXyDGRQx48mxiVNMHgWs9TrpBn66mtpdpRx6rNoT3gkR3AJgbO3DgblZNVxxqhInLeyd1+/h8BmZ9Au68AdO7IuEij4PKnmhMb7En9zetyGPV5uiJYL46NglWCNJFy+ab7is3SDOl/85BXkBmzdX80zNlTtN1Hsz47nTPEzNtyOPFjaHLiaSvjW2Wt1XClYe2m1+crpunknKvH+Q6uxlfI+BkQ02pJPLZx5JlnNBsp1XVI1FhklQdeYiwgGwyz4OJ5pkU5T2TzdIXCkWFmrJP7MDBT5vM5isOnEMbC5vq7Ku9ntlm9eFrsoSTmbFg9iFQ9TN+XwJOaHHStEzBUVXksWpj9HgQj18mMWClWE6QWFwMws3L281XVf2W0FFAZhZr9NtCu4wq6FCADnDMRb8aylAIukSir4a56CUDEZ5sddC39Oqvkv1UDXlogYgt5lcnTV7IVw9wL8DnLZ9v/XUlwamGsZg5bRyRdLKJ1BEibzeL3N0ZAhdN1ZxGowj4wrHI9EZJQeBqj5Numm64VA15JKRASMKQARms/uuQDuvnphu4xcr72HvBxZDILtp/fnvL7bKE7XP0ZWJma+ykRlWzptphkaDFpB8JYTCkoKhI9MXiOJ3aqcA35jjpj9NJ5qrZaJNVliQQCa8sbzcfN52ALUXWJ96PXMyMMyQiHL6d3JqlL2IW3viaajPl5b2twM6aAT1WZALLEqmKCmUgiL4pF7CKBSDCRo7gxOn0jL8qNp1YUxF4WCHpz/H1HbvvCI39et29rN08a2JE/m5N5B8AOhbWUc1OTXLynQWLCANMJH7SY/chJZe/vAcMpHm2deASoK0OePUj4J9rU4c5Z8zgK0jj/EcI720DPr4d8PDZsQQ4ZolUIWYgioDfUFlyrhMBf2510rR5mKjL5suJSp4VtJyxKlaIBEyQIIERy9YWjnx8+fY10zIaV55TH6/2xOrwUiZ6SvzhwHa5sdZKIp+M7oSRKNf5jxKsk0I7v74eePa8GAn8+W1g9bbkmbhtwKljTu1HXktJn6+7niERsUmK5b8ZDmEwbKgs+W6FWzxOSomVm2/jStarKvIQE39xU+RCAn6snTjAj3A4evFsIQ4x58dXRy4kCeeYCNYVC+Xa2CPhqSsjo8A3700V4ZRljE/tBmwZAJZdNvH5qcuAHx8lkv7GVBaVofaPonfqZjD9RlZVfHuOm56odsmndGNmAuelzdENzGxm4J5D5ptnbPDdXmZXyI9FZhULWcJCZix6qyd6UliFq8Mt0eIGkqZ6AwnyEGrJ5CLuNtzalS5w5r2E594B4sQh/maSSJUMlaXY5esxmXFCk5Wq+q1WVZLHqs2Rm8A4DoQty9vN+xW7AtXQjpltXT4sgoSFpGIRCAuJYkQBoClRRl+Yzav7lQbxt33aZKnWOrWnjmLxIyI2x1WWIAbDqmFlKRRLZjzR5qJvF9qukvWrkzw2RD4BCb8SQEiyaf+D59KmQkDZxlwT8sPtUOCKMtyyBUnpHwvpK11dVuEgCbXMqAWjlmjsfwO1TKgl8XfEPgMhKRlUtrE3e1Vnl091mCTgkPmy8NmYlkWcOMTJgwHuC6BnWk6iCoSWCKe1OKhqQ0xUJXmIdVu1KaIdlpn5kkM6LHdmWsveXnZFbVgqydibVSwlYCmjerwqC9mD7/QqjaNRNi2olWj7en1Ulg+7gGffLEQK4DN7AIs9QKa2Jx0INDoz9xlXWQzHsMJwT6lN+JfHQVWbpa+ayUPkjhXvWV5bPt+cFOVqS4DnmVQsA2MZA8vEL3+JyzTlzQNRNr3bqzQKQfZulaUG+/RXWYaCGIwYKktpe4twicdBGX88S+u8tNZVSx4vbYqeIkIKiuktazfNE3p07ygvjyo4lYBPCB+k0qZeXa23+lTHNq/qNEvAcp1VlkJOHw0O4KsHxbC56U+pGC1uBT6zZ2bs4iqLqNEbGDO1VxfU00oaAroiEr4wr4a2VJvgVUseL2/kepWi7wjA3Ba+2uMwLyaaSPVYbUCWKs97fUqDP8LmdrdEO1SBlaXY+cRVlpCC0ZHQ2IPGYjsz2sUQYNzrcZHmvlBNpWrJQ4D08qbI2yRRh9NMkschDVcTcHrKMqpAfqcnqlle9miRpOaaqX+f0jMCtLiB4QBQWwOI208px26ZZGUZCKtIzKKnJ2Szri9ScVyrm16ppolXLXl0+vjUnoB6mS/MrcLFeVGtPGNv7bf5VMdWr+q0yIQD50myPMWrElWAQy8n3Hs64+LHCSccwHh7s/bIDT/I8jwx0avUUFn0/Zoz8Fybk07Rt9fSepvibZoqfKef9yHG98RVx2iUzdt8qub3MMcpDdhNNCN/yeIqy1wn0U5N0pQ7hgm84ycPbxBw2WInDxZPnLNIl6CyhEZCGCptaxqtJyNQbaELq4o8uvz8daj4IUiLR6GVtUOK9qq0zkr+Rrs047JuBRWW3+5RNJVlt2ZJanVMvcpS7NfWIpMi2g4HMRRWoT1qNIquCKyBA5/3EPl17bXIzqqCPLaNcJMs4UIGvjR5Hp0+tS4QZatFQrTdLfcXOc+qbdblV2s2j6guswzMd+e6VajaaaDGhGiDXQoKCQMRzDiSrxbkScJ1rTV0fTXIM+XkMTjKHSEFd2MsVeRkUEbCbOsNqJofxwK33CuPuT1XA3h6yLCmX6n3hllXD1g95Cq0j0V10nDjGHkU2taoXxAC2yIKPt1eO/WpVKeUPMSJQ5LwKICdssEXV12a7dKI20qjBUFdxZXDKqQ3u6PN1SgiiftR0hzVcu4RccH7yYUmJWfFapzoNJSJAB8RElWXdwHcTETPVHI6U7bemzez3VKPvzOQLVKWhsXmEaUxrMJkkxGe65IHKwlQucdStUhg1VVcFrhsJoy9mc1PtumrcOU3vyqrpUgEocLHAq5MlL2JKBYDpwJlyjZul583gGHOZ46DQdUxEGTtNcV2dXLFwMlHtplWxybD7rLCPdPmNdPmQwQvAYFJ8zqOqHK+IFNCHl0+Fp6j9fkuaFiFvHkkZpHwOKVBh4mMQLr5gldAPQLEm5oGiWKu//2joL5A9Z2MCpjSjK0qLOcEhHZqQuJJfGaTR5ePXwCwY6Grum5YaRHBfl0WGm2pkWJ5XIyiKwI2GTaXNfbIMKwAb/TMrPdDuoJVBZ012hFaXK+pL6IMEtGulRSroiePLh8/DGAs8mVh0+wJqG5vmO3C2iKsLoW1Nmrng4DbglqrKeZj0+0HbRxBVTis5SP7bKyzpB7hBvt4VPqHiOj8SuJQMfLo8vEVAE4udnKBKFs6faqm6rS75T6LBM0hySj6ICAsKw02NEkUI4w1/ZBGwobKog+6+vciFmlpGxSZIN58Cf+aE4moormbK0IenT4+mQBBHiWVuMm2wUa+eptUFV52JU2oihpbZdjcYypLRAX+222oLFW0PCmiNNrA29VDpLYIE7CViBZXWt6yk8c2P39MUvEICDWlTm6rT60PRtlikRFpd8lG3tNSAU1o77bCbZVj5tmeAGjDsKGy6Aiv7l1tXwe1wR4z1aoqfm820Rd0HyRHh2UlDxFLVPJpxPExPSY2EmJ776iqmRENk60eiI73QQ12NMljKssHA5CGQobKoivCOnYmvrRLPRC+HlrxhfFirY0+qeMQeXVVVvLo8vOFYJydlyR5VFJUljaMqJpHZnONNOy2kPaWwiilIWCVYXVbUSd6iarAf3KoLNP36V5pOFWqtXi9nK002MDb18cSaom6faPoZsJRbQ76V6VkFOOUjTx6/LyXCjyJWOZ23crGYaUpypAdZgrO5ABBugGWR0cuC9xxj9LeAGh9FpXFaQGW5O2hk8fgRpUUBN7pi5nKM5VFdVCbxlSWsILgcAjDIPzC46DLKgln2cijy8t3gnCk3pPpH1WdQyF2CM/c7epMM8LbVCxCUw1aourUWJDMMsziLYtYK38EJE4fmYpVBiwZfg7EiUQEEsrxw6n3lphR/fkiwAc5bvOEyhIPGDUSwnBIQZAI61pqsJyIsqyevlCVhTy2jfDRkoRb9RU11ltQgWmrNxZlfKYECLLJsLrG1IZyYJajT/EALubPwYCwtGQrIkBzpvOqOEJnI54pmNu0G3KrT/OxyVjqreDFDTGVRZS+ALrjZM2E09oqmOelLOTR7eM/MLB7uVYubrKttVCgqUbylmuccvYrXtSORlhLL93iIIfTDGs5x8vUt/DviJ86RLQw8V/GuiJkfQa3MdGJomZvPxXzm25jvtsHhLKoLAtroTbXxA53YQWh4eSIbb/1OGllpeasO3ls8/FJEnBVOSfQ5Vdr/RG2mQhKR63cV86xytX3Vh9rqRZE/4fMl2SRJW5qSuzdvSi51I1QBHj+HWB7D7BjW6yNIA0RyEgUQ2UpbQUDEWBNDpVl71Yo8b0iotOLKPUJo46AsdzjoorE+9WdPMp96hBA+SJs7farmnVgQa3cK9PEMa605atc6ze7lWZx+mi2E+3Rqk92uGzSv7MFWjLqyWWfhYSDd4hlu388zV39KctiCa1FAOSVDwLre2N3Hn88H1jYLBJaAyLqqqGylL53tvmAriwqS50VvCRZZekRD+QSR1aBH8xxkpaqtdxFV/KoxKkjDkhcdWm0k7fOKk1+mlxu3ErqP6Ky9EZ3zOS8UyNJc13lN37e8Zf0In/zE7Et8MpHwGtrU+uc++nY3w67HFifcMa78+vAil1jpw4hvaoCSq6jS0mozfzGq/uB0WjmeS6ohdoyobKEh0NJL2rjDf/qcdJJlUBLV/KoxKkjDsp4gCAThec6pWkVICiWaiEWn2T5fFkyS+J19VSUCZXloJ8CWyeheOoy4MdHxSKpf/wnE/IdvAR44JuxPC4mQ2XRZeEEaQjyyFb2aoWiXVhrp2+MjEaSVJbxpiYzPtlkpdW6CJalE9027bYRPkqScFu5BY73PxTimv5R1SX+/3TzNo0ltIap0QbayzN1qRYmqCP3fceNfwQeeQU4Ynfgh18ALCZDZdFzr3f6gc4sYaPdFvCOjUlWll5xv51OBhW4do6TbtBTvnR96UYe3T7+JQOfKrfA8f7DKsubR1QtQFCrQxpymmlahPoXYQdf71JahNw7NpA0z11+lSXTmsTJIx9tI91G0fw9DJVFly0vLkrFhWmm0uGG2uqI3W9EVYQHg2lVFq05A2+3OelwXQQr98ljq5/3lhlPl1vYyf2vH462qEzTKkBQLNUCayemg9tlySpPvcpSDHkkqSxq7MLUKMUhEFSA93LYDPdsgRJ3zvNF4B2NpIQgTBpckvHlFju9XJxE+bXS5eTR7edLmHFafkPqV6snoLi9YdglYp7vNvWFFcgRleWIApPLSqOJMT8YED4V48mkEqSIUiweQlKxSEhJhxBWUXL4w9V9SoMvAnO9DbRUJ5Xlwy5A/FdIWeIhLPbE2n2Qpq34TPwXL5M3imFlKQTt7HWFU5hwDstUXBbwTgkqS/8oelXObmEkwp2tDrpEPylTeyqZPAYGuDZswUvCw7qcgqbrOx4giDl29BeJluP1ai0INNXQuAMZA04iOCb3owIRiZFkXa8xw+kwp9b1R+AvNaHRvzpjGfB2aJCo3T11z94NlaXSuzXzeO8PaM8CMpb5bqieCZUlMhhM3q8ZGr7ucdLnyznLksmjc5iPJBl3llPIbH0Lk63K4ktIkBL8+mtMCLU5aTxfqh7kEYjA7x/LhnbPzS85PHPrlMZmh9rQ5FTFv43NzqzO3T0Btm8cjoUUOHCeLNlN+qkshZ0+CEfuGUP192+kR/czY59rpDypSpJj2DRVWbxRLz4IvI9223y0WLQrqCkp4gGceAiXrezRAkW8KRLFF4FvNJKUsyVjUwL2bnWWLxVDyeTR5efLwfjalCAPYKtXqR+NklUFSE4gj1h6Sho3fhVCHg4LHDUmaKbUxBKIwu8Pw/fCH1ZbLzz7Mc1JLbEs/9QOoatvPz5jgucPB5S6oRCstVbQPm3Tw8qSjjziKks+b2Hk//lOxq2hXHtLSdsmW9/qiiPAn/5MUv9P9vwf/j38L7zvX4P1o+vGP2syN2NF06dwbOtx6LAvKEmmQhv3BIAtWR5YOM3gnZsmVJT+UfSpnOcDSsKZHkf5EkGVTB7dPn6Jge0KBU2v+iMh1d4T4FqFSTJJsUTLscJYWCv1SBS7oS6EPGoscDiykMev7/tnzfWX/km79Ewshx6+Y/DKn39RxJRMW/7TqbQoAC1ukKijClSWdb1AswsIRmKm2kYnsKkfWJCggJZqZTEdcSgQTT2T8257QLm+eMu+dN9dkB66Py3O6orDoZ7/o/HPXh16BQ91PohXh/6RddvVmerwsyVXYt/a/fTanjn7+XAQ8Ga5SWt3QW1zjllZGJHB0bxUFm3cct97lEQeXcO8H2T8LidCZawgTJ/rh5TWKJMk3NQT7z3mODFgN5G2cwsiDzMcDnOak0cEAX8E3tuufsH5wO3/SLk/Of5r+wS+f/HhaX9H+kbZtn4olnP3gLmyVGPWT2UpDN4J745PXAFcfAzw5L+BXdtjfhvvbgWuTEg3XqrKIn/hU6BAqgMw77o7lBt+XpjoY7Vp4wbIp6V3ouTmFqjX3ASe267VvmztpXiy54m8x5lv68Ddu/4S9ebyBy0RL5jfzpEHYPdmKDbt+STgj8IXCOensoxNuKz3HiWRR3eAv8cqvp/3ypSp4qZhpWlUIYs4ZSTeezTX0LDbErOkFEIe37gDzbvOg2mJB9zRBCxqjv0biCLgD8N76XlPun//+Fsp6Ri//YPDvF8944C0rvLrhlR3/yjb3RbQvnNmh8oicJe/+FnQUKomxzvvCuWm24vaEfKF/wP616tp2yorzwMfGQvnecEH5+P5/ucKHuP8hRfgi57jC25XaIPeUZFKNXMrhxm8S4LKMjCKfoWRxYE9tS9LGDs3NFDG03ChMifWL408fHw/AxWPnTh5wiJAUH8QLpEUKlF1qbPC32gnzQiWL3k8+wZsFzyCungKgvhY+y8GP3AWfL4wvOee8lDdqy+tS3lCf8mNRw8f/vld04ZGfKtHaQopkLerl2hh7QywsnDsCX6uIp9wDKg39ZEn77gzlFsKv2en5/4I+er0AbPUQw6D+sOYdTITcRxUdzDarHMgkYQNoxvw2vArKVNY6v4Ybt/lrlxTK/nzjwaBkSwqyzwX1DlxlUVFdDA4nuAp77EJOLXVSX/Ou0EBFYsmD11Q54oAACAASURBVGaWunx4l2jq85qGFJg2jajNQoVJVF0cZgQ9jhjr5kse9/wVNTf/Ee7J5PH5peDrToyRR0/XSFv3tmEM9Pkx0O/X/h3s8/Nnj9tzaMfd2lLIYzDI1o8GY6+A26fQo1QiEHNMXRJOXdlidwgnsMm+rxaZsH39eNygvBzD5FO+DNq6JWVL8g47Qrn17gK2KoBIBPJXjgYNpznJ1NVDvfZmcMdCXL7uMjzR/XhS38vqD8EJc06EIIbEko5krJINf9svlVQKEzZ7bRE06a0cKos4dYjTh+gp0dJXiBxEuL3VQT8tpE2+dYsmDy1GKeOZfAcqd72PBhWPuDRNVF0sEkfb3ZJmccmXPH76O7geew2OyeTx7RVQVx6BgDcM72C/36Moagp20aja65lTm3I7uGlEdXX7ueTUE6VhyIJYx6OGaBHDsniFiqA/8ejc8XG3q5ewoLawwCPy6SeDNkxYNuJ98eIdoPz8noKmJN12I6T/eyxtG/XslVCPOg6r/atx8lsnJNX5ZOMKXLHk6rTtXh58Cd9bc27SZ9vXLMYje/ymINkKrdw/CmzMorLUmMC7Nk9YWcSpI6oWprKMyVS2e4+iyaPLz6eBUVYPtkIWZPOI2hiIwkoEjptsiZgX1UramTlf8vjWvaj7+/uwTSaPq74M9dh9ERjwKoHh4UBaxwBXrb3TajWlfCXf61Mb/BE2FzIfveuKiGESWPvm5xN7Ix7gJ1GOg9tNGeOXZpJXPvs00AdrUk8e2y2Gcvsv854mvfcO5HO/mZ44DlwG9SeXa59NPnU4ZZdGBB5rgrtsQi9BdRQHv3ZAUr+HNhyGq3e4Nm/Ziqm4dggYzvIaa64T6lxXjN7FPYe47yhmHNGm1YGFRPonhy+FPO4Bo+yPb/IFbDDIDmGyFfUTVZd5LvRbZYrmSx7H3oDGj7pgnkwej5wNdZ/tEPhow0hYNlHDZLkG+vy8ZGdPZ77yVrperRX1Fjnmcr/VC9rqy3zv0mAHFmiubKUXeeW3QO++lUoei7aDckd6U2u6UeWVZ4HefTu1H6cT6jW3gLdfnPbUcVzr8fjfRRdknMh7vnfxtbeTLTcnzzkF3+lIPo2UjsREDyLuyZs5Yn3t3AjVaRlXWTQrX7EylOudS9Hk0e3nl5mxqNgJ6d1OYUgfDaraz4tIhi3U+xjr0pDTjFC+5LHroc94FHsdya56kpx1kJy1ILsTf7sISls9Rv/zZrda11CT8tXavGFA3WvfjgJfmOiNQvr+JILcaJ94PvBOL6RANHPajUV1QJ1OEVXl888F/ff11C/9goVQ7sov4JX05OOQbk3/wlw989tQj/uy1v8dm2/H3VvuSBrr1p1+gf3qPp4R6Lu33Ik7Nv8i6fO7drkXe7r3KtviDASBDVnsH3YTeLdklWUgqiKLA3t2URm4sc1J1+g9oaLJo8vPm/TOyVLq5D4cVNrEK9vEe48GG3z1NvLnQx7vfeQzH3ngtVqEryRgTGZs3nieYquxBF95bQs8c2tTfDw+WtOjfHzZdlWZCsJmQo3LAs2pTaRWeLcv86lD3HPs0aJfQh/5R+eBXku9fOT5C6Dc82DuJR8ahOmEY7TL0smF9zsAymUTdxknv3UiVvvfG6+Wz93FCW9+CR8GPhhvI7xN//CxshgnxsdYNwwMZUlXNscJdV5cZVGhDARRUpxeZrzS5qLjcoNdWI2iyGNrP7fLVqQ3tBc2vq61RTa5UBTa3ULcZOuyYLSlhkbyIY9fP73Z/oPT7tG8gxKBEV4Zw8M/UUJRBF/+xyZp7vz6FB+PNW93Rg46bEmO+3Ndp5t3Z7VW1FnkWHT2bT7QFm9m8qi3AQs15U+fIl3yQ0h/W5X6xW+fD+Xeh3MOIl3zM0h//kNqe6sV6rW3QJh8RXlj5L84/d2vJ9U7bd6ZOLM9/T2JqLg5uBnH/Df57djX5pyKb3eck1OuYiuI4/Ab3dmDL4kXtOIlrRhjNIqAsPAVO55ox0Bnm5N0SfmaKEdx5DHCB8kSfl3KhMrRtsvPtcNaQqiJew+rzJF5LmkgH/L46U3vuO69/DHtFzoRmMaOudjwzumKSK6z6u+bzO3z61Oe67//blfwwEMXV13ybXF302BDc9zsKk4d4vSRCX9BHIJA9CrSFZdA+kuqoxbPnQflvkezDiMcwYRDWLqifuObUL88cVdx26ZbcN/We5OqPrD7w9jJsVPGMe7feh9u3XRT0ucP7/FrLK5Zotf0U/oZDALrs6gsNhm8e8uElWUoiMGIDqEgvA4sWkz6Bswqijy6fXwiA+ltX2WDPXfHIjShuDQVzmJx1UWWWF3glkTItpxP8k/77t/qX3j4ee1UkQjMDvvugn+/8EVFpPb72ytbrG3zascchidkWvt+b2C/gxdlfBSXW/ry1LDJsLusMV+cYFTzLcia/nPPllQTbSmSSddeAelPv0/pgtvmQHkguzk0o5l36T5Qrky+A/nKm8fjo8CH4+OI17K/2+vJrKJ/690z8a+Rf47XqYTKIu46xJ1HptJaA+6ojZGHeAAnHsKVgn+8raLiE3Pd9L4efcX7KIo8On18HgEVSy6T74T9UVi2edVG4SwmDmsmSdIeynW40SdLZM8Vz+PI459pem/Vv7VTRSIwhx5zID91/wo1FEXoX//ttDU2O1OcHbZuHhzZY+n8LCFd8p2FvvXcFtRZTTGVpdMH2pxFZRGXpOKyVM8i3XwdpKdT35awpw3Kr36bcSjp4fsh/TKNl6ckQ7nuFoi3MfEiXsqe9d4ZSX19Z/65OHnuKRn77w514XP/ORKJMXXOmPdNnN5+pp7TT+nrjZ7sznk7NkB1W2MqSzCKUW8YWbxB8heVgK+3OulP+bfIXbM48vDyxURIXq3cY5W9RliFvGlYbRaWFzFY3GTrcdJgjQmWXOTx8eUPtnav+Uj7ZU4E5tTvfoZvvnRfNaQg9M6afnuNw5KC22C/f3DxTp7EBDxln2+uATSVxY6meEa49/og+bKoLB21QKOOKouQT/rFzZB+l3rC4JZWKA8le4GO/6Jt3Qz5lK+knZ76tW9APenUpM9u3HA9HupMttw8ufczmGOdmxGix7t+iyvXx3xD4iVXm1x45/p8KASsy3I2tcrgPRJUlpEQBkNK6dHrtP1MuLTVQcmmqFwC5/i8KPLo9vFVDFQkN0Sh81s3zC0RJZbGMa66NNrhrbWSlIs8dtnlNk+gr1cjnkRgrrrtBP7WyUtUkd5v/VZfjZrGrzsaUXs9c1O9SwuVX8/6NjNsLjO060+RwvDNnuwqi7CyxBMo6yWHdM/tkB5NtapwUzOUR9K/dpV+ciGkv4vgdMmF99wbyjU3p/z92P8ehU3BjeN/b7G04vdL/5h1Chd88L94vn/CqlIJlUV4lArP0kxF5GQRuVnE5wpDHRiFnhfwD3iclNnhpYgFL4o8uvx8CxjHFDFe2ZsIT9OgAotQXeLepm4rAk12EsEKs4Yh3G7e5W1qJKxhkgjMM8+frSzfrxmhKMLrtnhTLC3CY9MtvEttqd6lZZ9wlgHcVtRa5Vjc1i4/aNNIZitLrVWksNBfWulX90J6IPkiU4zCjY1QHk29k6AXn4f8s4QkMXGRzGaNOHiX3ZKE/MfQ3/GuNzUVXjb1YzAyiMe6Uk9D5VZZ3uzN/phwhwaotWMqi0gjKdJJ6rgiL3mclP44V+QgxZGHj8WjhKrxLk2cu7C4+MJsj6suwmRrM3F4jlOKZCOPRB+PyeSxddsPFbfLDK8/Et3SG0xxnxoeGuXtlrRUlXepeARXb0Oz+FfMZ00/pJFwZivLfDfQlEKLRe6qhGbSo7+CdE/qaZnrG6D85qnkAVQV8knHpX2Fq552FtQvnVi6QFPUg3g9K17RZioWCbxn64SVZSSEIaEm6yYuYZPHQfvr1l+a8JR59d3l40cALMurcoUrCTf1/iCcisra3YW49zBLFJ1fS8Fs5PHQ/22u+dGZ94z/9sZZ1ep0oK/zPO3idWAwqHYPR1LeqGzbMqzuvve8qvIuFScOcfIQcos4mW/kUFl2H8s7q/dySY//GtLtqeEGubYOymPJ7yqlu34O6Tepvh+8/0FQLr2yKNE2dIXRP5I7BEZrvQnzmlMs8EWNma7RphGgL4vK0mwHL6wbt7KoIkK6boOPddTqQDslhOostf+iTh7dVRLHI93kvWG29QRQqzBLiSbbRXXkz0YeF1/3tvuBqx8fj1saB6Z5wVyse/t0jTx6+wLc51NSzLTrP+pT9jlgYVV5l7qtcFtlaGeJHj9oQxaVxWUBFpcpcJb01O8g3XJ9ylKx2w3l8WfH/07vr4b87dPT1lOFurJo+7z2+rptITz9jyG8vymo/ecN5A46snwvF645a15e/RdbSUQM014yZyhL6qHW2catLEFvGPoH8JFxsMdOqU+ci5xUUeTROcLXkYTYg4IqKyK2xxYvNzJAihp7RSpUlw43jZrGvkyJIsdTL5xyzssNq379writIQ7MTh/fBf987osaefT0+tHvV1P8JNa+3xve7+BFutjj9YBTWFeElSX+uO/9AUjDocwqS7sLaC5TwAD6wzOQr089NbDTCeWJiUvNTG9glO98H/z5o3PC4h9V8fDz/Xj4+QGI/11IueLMuThsqU4vAdMMLGKUililmYq4pF7qmQhqPBLCsHBILGQOedWV8VWPnTKkPM+rh6RKRZFHl49/ACBzWOzC5dCthThtrBtWW8S/iSbbeS4K2cyUci6Nk8cRxz3TvOblf4+rJHFgPnnsgfzEfSu03djT66d+v5ri47Hug57gvgdtVzXepVYZVrcVmgomfu3+253dyrJrM2ApLExH3utFz/8J8lWpsWi4xgHlyZjbAT3zJOSbUt9tqZ9YAfWCi3OO9cLrI7jr6T6IU0cx5Z93ZvZCLaa/yW02e4HetMEpYzWb7OBFEyoL948ix5vb4qSSCD9ucVDq7XVx3WX+NcrWX5efvwHGpUWOWfZmm4bVpgiTHFXFKUHkcwHPcUkhhzn27iWxxMlj32UPtva+H/Px0Db02L+nff9IvuEn+2jk0dsfkPq8Sgrhblzb71+6/wL9j5lFIuWywG0zxVSW3gBo/XBmK4vTAiwpk8qi4bjqL5AvuyhlJmy3Q3nqOcA7AvmrXwT5/Ul1uNUTM8u2zcmKgiCOC+7YWiRSwNHL6nDBSW1Ft8+nocjLIu6dMpXF9VDrx1QWceIQJ498+i2izi0eJxV3eZRmsOJOHn7+PBjJ75iLmEm5mnT6uE4EBlKZpbjJ1uOUIm5L6i9wnDx23uU2z+iYj0cieVz98xP4rK8u0chjYCgodQ9FUjDbtmVoZPe926vCu1S8YWmwaSqLRoQfDEAayqKyzHMBLWVSWTQc//E3yBeLg2pyYasVyjMvQLrhakjPTrK6CD+H838EXpHdoJeJOGpsEnbssGHpktwTO3h3l1a3XMUX0dYgYxEHvqVtGP9F8kYwHIyUQWWJOYrd0+qgVCYvcvJFkUd3gPdnFenjwRUpSKnNEnPLDofY7o3EfnnFxan4t95KqsuaOl0GohJj5Ngv3N/EysStfLzmdbcco+6xU+yn2e+PSH0jqU/Dvd6gt31+Q8qZWY/ctoXikqiyiADFr+dQWXZpAuLZyAodK5/69O/XIF+QJsC+8Nu47BrI/5v6ykE98gtQV56Xtfs1G4M4+WfrU+qc/rkmHL2sHk2pz4/yEVf3OiIHrchFm6k02sDb1cesLAxwX0CzspQlbTgDj7Y5SbdsB0WRRz+zO+LHat2RLqHDxPyyscvS5KN6uoC+YycMjkaZ+/t8abX+1lan9spOK1rE8NR1ZWZVlqWUD3oDqLgFxmmFyy5D+8ntGwWtG8qssjjMImduCaDn0ZTe/A/k/0nzxN1kAi/cDvRh8lstFkGChLpSl12XuuLBTjzxUrKvd7kvPvOYbkqVd/ti3r2ZyvZ1UBvsMbIQfh3Cv6OYcfJqw3ja46LMMQry6mSiUlHkIZp3evllouqJJJZEHgmXpfGpiuP85IC+cfIYDak8MuhPIQ/hotrqScg6mYE8pKRMdRPgTgV5CCuLPKayfDgIaTCY+V5rjhPwpPjcFriDclTPGHtUBElRU60iysWXgw/K7kKU7tRx9tHN+NoRFc+1nnX2gQiwJovKIr58wsoS35feEEaCCsr2PoqAF1qddLJeK1wKedxGhKP0EqTUfkohD68vgoAvmIKFJMtoiV8IjJ0rJp88xDsXkyn2endyqTR5WGVY3FZoP9nigPR6F+Rs59+dG4F4NrJS8c/UXpws5G99I6/uRThBEVYwV5l86thhvg33/GABLKait3OuIYv6fJtPexaQsTTYwNvHVRbW3r2I0BGF2ZkLkIwJr7Y56NgCmmStWjTaXV4+B4T/1UuQUvtJJA/RlzDTCnNtPiePoeEwQqOhFCxMFhOaGsd8tjOQh6KoMJvlqiAPhwWuGlNMZekfBa3NorLYTcBOjaWinru9SLsg4nLkKrzTLlCuuQmw5r68/Mol67B268QV09471OD273fkGqLin6/u1yKBZSzCPCvMtKKCeHQ5XE6VJaZ1v93mJN2elRRNHtuG+XBJRmGJN8q4fNnII+akk5nQLVBhYQUOisJGE/Wsdgvq45GAM5BHNKrCYqkO8miwo1EmaB6wawch9WdRWdqcQFuZVRYhh0j4JBI/5SoiuA8v3SdXNe3O6eCz1yCaQNfbz7Pi4YuqJha3NgdBGoI8shWhssRfMfsiGBmNlE9l0dYCWNvqJN2elRRNHmsHuNZhxssgVOD3K+eeQinkoT2xHyOHuXIQljECqXFa4Ra+26JkPnmw2SynZaZKqi3C2lRri6ksQtTXO5FeqDEod2wEalIc7XPjXHCNnm6YTsx+Ula/+nWoJyfHH800zpaeMI750dqUj++7cAF2XlCGl30FTzjWoNOvBV/KWOqt4MUNEyqKUFnUxMhERY6brRkBXa1OWqpX10WThxCg28fXMarDTX0yeSRaXHKdPBLJw0YK2uTYkdhda0dN/BuWiTyiKpstU08eDgucNaZYyAFxSSouSzNtEnHPIe47KlIGB2E6/nMZh+K9PwblqhvzFiWTibbWKeMbRzbhkx9zV4WZVlyUigvTTGVhLdTmmthPUkRFaChYRivLmBDM8La5aMe8wc5RsSTy6PTzEcQoMOGoXqIn91MO8mhodMAS99uucvKot6HRJMVUFmGeFWbaTEgLC4uwtFSk+HwwHZ1ezRaOYurVN4F33jVvUbwBBYetnEiVkHfDhIpf/XQjvnNs2qR/xXSX0iaoAO/leOm0dysU0xi9+yLwjkaQxYFdF7GE3qJ4HDRfp96Kc0+PD/5vZvM8P14W+Zv1EqjYflLII8Fcm/XkIa63E3w36qUI6qTYT8ZkHw/xt8nWFkVRp1xtsUgw19ow7rEhrCwiK1mmInw7hI9HRUo4BNORh6UdSj3jbKhfLDw+zS2P9+BXfyo6+yIe/ckiLJqjU1arNDMTTmHCOSxTqbOClySrLH0i2HEF1qPf46SJ4K8lDljSyUOM3eXly0BIDipZolDFNJ9MHtoXfcziko08RBQwTiAPjxyCnRTNMUyQx3jJcPJglVXZlOogJtpV6s7DYYazxhxTWYaCoA+yqCzCm1R4lVasMGvWFtqY7A2qLjsU6o+LT95+2lUb8Nbawl0iKmGZeX9AS66VsYhQgyLkoKgQURAeCiHLm1v9VooIb7c6qsDaEp9St493ZyA1K49+c86rJz3Io4YUtI7dd0gmGS2T36mncRLL5F1aSfKot6PBRLFHf+uHIPVmUVmE24p4z1LJIohD+ulF4wRSKnHEZb/r6V7tNW0hpdxeqMKbVHiVZit7tUIxj6ksIgdtoBIqS8za8udWJ+n2Q1/yyUOAVA0BkYslD83JURw/hJoihyAIRBSzxYTGuI/H2CtbUW2y2kIElSiWF3dyqcTJwyTBXJ+gsrzRDSmsZlZHlzQAzkqpLImA+HygtR8CdXXgjoWFfN+z1n13/Sj+8U7+bxJP/5yWTbRspScAbMmS381tAe/YmGRl6VcZuUOd6SPx/R4nXahPVzqlJK2G00c68ohbXLKpLXFLS+KpQ4A72cdDuLdPJg8WR3I5vXdppU4eDgscNSZo+pUI+CMC/2TaHBYZ2LWSKoteu3Qa9fPBIOALZxa4ww211TFuZQmLjHCVmh4zrmhz0a16jafLyaMaTh+lkkfiqUPMZ7KPRzryyOZdWinyqLOhwSzFVJYNw5B6AplPHUILE1HDjFIeBETgJRFuMFvZswWKIHFR/BH4AhFkcWDXV06Vcc4cF6VPllPEULqRR6eXd5EIjzNi2dgrXdKSx5jFJZ+TR4dpFFLCS+jJPh5pySOqwpzBu7QS5CFMs8JEG8f6zR5IISUzeYg4pXGft0qvz2wYr3cU2JwlWYJIXi2SWMexGAyiP6pWTGUBSTiutYZe0WstdCMP7fTh528y48d6CVdIP+nIQ7SPqix7w5TRPV2oLVaomCMnh4yc7OOR4eSR0UxbCfIQFhZhaRFjjYRAa7KoLMKnQERIN0r5EBCpFUSKhUxlvhuqZ0JliQwFUdHQlRzBgW31tEEvBHQlDyFUl48fAnCIXgLm208m8hDmWvHFSvu2ZczHwy1F0Sglr7p4ii+e5GtFXJ6kufNQsniXVoI86myoN0vQ/Oc3DUPqyqKyiJwsIjeLUcqDQFTVkohnLXu0QIkHXvJH4QuEK6eyCMFaHVhIRFnorTBsdCePPj/vEwUeB2cPuluYmLlrF0MecR8P4RQmnMPiJV0cj2ojD/EATjyEi8v8Vi+kYDSzyiKywYmscEYpDwIiJ4vIzZKpOM3gnZuSVJaBqIos3iA6y0n4t8dBX9CzV93JQwjXHeDvsQrdwp3lM+HM5MHSSIjSnjzi5GGlZLVFkiW0tCQ8OY2fPITjWYLrZjbv0nKfPGrMqHGYY/dL3jBodX9mK4t4uSny0BqlfAisHdKsXRlLuwtqmzN2qSZIY7DCKgsYV3pclJp9qwRIykIeQp4uH4s3L0eUIFtBTTORh/jeDwUhpVNbEn08BIGIE4jwLhU+HuNxPIQUGcgjm3dpucmjzop6sxxTWbZ4Qdt8mclDuKt0GCpLQfupkMri9+TNHMkSdmuGImKoiOKPwB+IIH/nlEKEyVBXVXHYHDet0aGr8S7KRh7bRrlDiuIRECoSpSUjeTBoKJSJPCae4scRkYnhNDHa6kyot8XgiYMkfjYSTx7ZvEvLSR6yBFlESI/L/HYvpNEsKsuiOiAelkTPzWP0FUNgIKiZyTMWhxm8y1SqLMBqj5M+qfd6lY08hKCVfHWrF3loZCGyQxPgtJAWMKfRHoMpxcOUoEoZvEvLSR52M2qcYyqLPwx6N4vKIuJj7mmoLHp/b5L6WzesvSnKWOa5oM6ZUFmiwkRbVoEmdU6E21sdVPxDogzClpU8xJiVuv/IRB5CBpEdfk1/aqa3xDgeifjEySP+t7kO0p6wT/ZBzxT4ON6uXO7pdTbUmSVo159bfaCt3swqS72tvHlZKvklqNaxRF6WbLFixalDnD6E/IEo/P5whVUWxlfmuOglvfErO3kIgXv8/FOVkV+oqCJnmJU8QkxrBmL5WxJLXuQxtivmORnNdmGyjZ1KxL9TQR4imZOIkB5fuHf7IPkjpYVWKBJyo1keCNSYwLs2T1hZhDt6RIVu5tKcIjDWe1x0UM56RVSoCHloJxA/38qM3BmLi5iEaFIweUyK45E4rBQPLJnwR5uJePfmiQCnCXeoGSUux8nDbobdaYZ2/SniZL7dW1mTeJHLM2ubzXVCneuKnToURnRgtMIqi4TrWmvo+nIsQMXIQwhfTgeyQsljchyPXOQhPt+xgVS3Nf0L2nSLUw7yqLWiziLHVJZtPtCWLCpLOTaM0WdhCOzcCNVpGVNZIgiIJ/iF9VB8bYKWdOyIVieVJflYRclDO4H4+FkG9igekvQtdSMPkRwqXXaoKiAPiSCNqSzaur3XB8lnqCx6byXd+rObwLslqCzDQQxWMgUplfHUIUCqOHloJxA/vwKGbrEUi1FbxkJ4jIXySL7uykQeuzSR6jBP3cnDJsPussZUFhEn860eQ2XR7Zteho7anFDbx1SWqAplMIjCIheVIFO5Tx1TRh5jJ5A1er7ALfTkUcy6fMwjjacGzKe93mpLrRW1FhlaVqQuP2jTSGYrSz7yGXXKi4B4QSte0opRRqMI+MIVVFnKfOqYUvIYI5D3GbFXoaWWcpOHOHGIk0chcupJHkKbEiqLcEERMgh3dOGWXog8Rt3KIZBGZRkKq8jiwK6fbJU4dUw5eQgBOr38WyIcUCp05SaPeS5S5zjzV1nEfPQkD6sMq9uKurjK0p3FHb1ULI32pSEgSWAR4Dj+glaYZisZMQyM73lc9OvSZpG7dVX8cnX5+UdgnJVb3Mw1ykkedhPxzk2kprHgZhVZT/LINr9ScDPalh+BgVEMKFyhF7QSrvHUUP5ZtEqYflWQx5gKcxIDVxU7l3KSx4JaUltqCjt1lOHkYXFbY+kkjTI9EFAZHIjCV5GETjFI/uBx0mmVQqdqyENTYfx8JDHuLGTyMsEsE8hmgt1qQtpkpSLt38aRVPf0fMZxW4jnugonDtH3sM7PrsUrWosMi3ByzUf2ctYRTrZTZa0r57x06luNKIhGY1HRYw5iKtSwgrDwTdRpjKRuRGB/jwMLiAq7lytFlinfhJOF7w7w/sy4Dpz7Ne6k04aU6UslzLIi0lOhRbihx1MCFtpW1OfKZAErRrRS22je+aV2Mtvah6IIDIfKk5NWlXHAHDttrCSmVUceYvLbRnhHknABAVmfEddZ0WCWY5HDAehOHlpinhIQmqnkMUbSBnkU+E2NKAiWIQhQSDbhiGYbvV+gOCVXL+GrUfLYOTvo8vJ3iHA+I/2vXL7kIQYSJ4+4Y1jOgUXSpxKJYyafPAzyyGcHZvc/9QAAAqxJREFUpdbRmzwYeIt8OM7joYqlb0icVVWThxBUqDFgnM+MfScvRyHkkS+BaKqKTtq8cfIo7ks2U1vpTB6/9Thp5VRiVfXkIcB55x22NHXgfFCyObdQ8hBXVyJkXEJe6yTsxZMWzRyrEyoGeUzl1q6+sfUgDwLWqsA9bU66f6pnqNPXpDLT6Pbxp1j4g1DsFFIweYyJKdSXRAIRIGhv4XRGwyCPyuyL6TJKieQxTBLuNgdxT0MDZQl6WDk0dP66VEbwLj+fIZzK6qzYMZ8L08pIlTqKQR5ThXx1jlskeQyA8DRFcE9rHa2tpplNS/IQAG4N8PxmK/4sE7YfAzSjtWWqADfIY6qQr85x8yYPwmZmvGQirEIALzU3U8VigBSCXNnIY//fbE7rsFWIcLnq/vHz886wmPjHBBIRIoXJVntxWg2FCBEGsoTFrQYpi5NBPNJjRkJim+L6mc6tEpMJ5juPoAL/cBApqaEY2Mis/ldhafWoGl1z6QuDr2xBSMm333i9V45vHy20TSn1y0YeBz/ub5MV+kUpwuXT1mVGrUhFYJVhqbeSx2aiKd/UUeaoP4yBwRBXNEp2PnjpVcdmIpuJKO5jo1e307IfkwSzLP4DWySZTCawWSLJDLAcnxAzKyEFo2GVAhGFQ2HmYFRByB9mb5ip5Ne2Kqk/f+mLzj9XEsCykUclJ2GMZSBgIFB5BAzyqDzmxogGAjMCAYM8ZsQyGpMwEKg8AgZ5VB5zY0QDgRmBgEEeM2IZjUkYCFQeAYM8Ko+5MaKBwIxAwCCPGbGMxiQMBCqPgEEelcfcGNFAYEYgYJDHjFhGYxIGApVHwCCPymNujGggMCMQMMhjRiyjMQkDgcojYJBH5TE3RjQQmBEIGOQxI5bRmISBQOURMMij8pgbIxoIzAgE/h826SwxRwHhyQAAAABJRU5ErkJggg==;" parent="E88DI7cB3HpcahcDKkpa-3" vertex="1">
          <mxGeometry x="264.5" y="25" width="271" height="200" as="geometry" />
        </mxCell>
        <mxCell id="SomaoYfI-tTYEmpxU_zl-4" value="" style="group" parent="1" vertex="1" connectable="0">
          <mxGeometry x="90" y="880" width="800" height="250" as="geometry" />
        </mxCell>
        <mxCell id="SomaoYfI-tTYEmpxU_zl-3" value="" style="rounded=0;whiteSpace=wrap;html=1;strokeColor=none;" parent="SomaoYfI-tTYEmpxU_zl-4" vertex="1">
          <mxGeometry width="800" height="250" as="geometry" />
        </mxCell>
        <mxCell id="SomaoYfI-tTYEmpxU_zl-2" value="" style="shape=image;verticalLabelPosition=bottom;labelBackgroundColor=#ffffff;verticalAlign=top;aspect=fixed;imageAspect=0;image=data:image/png,iVBORw0KGgoAAAANSUhEUgAAAO4AAADICAYAAADvG90JAAAgAElEQVR4Xu19C3RUx5nmV/d2q/VGEu+3wGAcMCBsjBGOY3C8dmwjHkEkTuIYHCfx7EwyxnuSnezu2TGeTOZkk+wJZLIzm0k2xplkxg7CCETssWccCz8QdgzIL8DYGMmYh3hKQujVfW/tqdt9pe5W9626j35JVefoNHTX46//r6/+v6r++otAppzlwNKVtcsJwUup7gClWLF/T11jqtuR9YtzgIhnlTmzjQMSuNkmkfTRI4GbPl573pIErucszZkKJXBzRlRDCY0H7pVlNZ71pmRfw0Bd0lT2jK2eVSSB6xkr019RPHAv3vcd9E+d45qQvJPvY/RTP5HAdc3J1FUggZs63qa8ZgnclLM4axuQwM1a0fAJk8Dl82i45pDAzWHJSuDmsPBcki6B65KBmSwugZtJ7me2bQnczPLfVesSuK7Yl9OFJXBzWHwSuDksPJekS+C6ZGAmi0vgZpL7mW1bAjez/HfVugSuK/bldGEJ3BwWnwRuDgvPJekSuC4ZmMniEriZ5H5m25bAzSz/XbUugeuKfTldWAI3h8UngZvDwnNJugSuSwZmsrgEbia5n9m2JXAzy39XrUvgumJfTheWwM1h8Ung5rDwXJIugeuSgZksLoGbSe5ntm0J3AT8r165bgsIWZhZ0Qi0TlAGiiozp7xIL8CzBFmWr1lT1lhf3+6sdGZKSeAmAm5NLYtoeFtmRJJ9rQ730DXVNet3ArQsoIbW5gqAJXAlcLkzxXAG7rKadU9QkI1hJtAWoilr9z27vZnLlAxnkMDlALdzQqWnIio922LU50VsKJMwFiOKJS9pNek0hvMwjau8tGb9RgL6RJyA2wH6YFPDjnpPBe9xZRK4AsB9764NnrB93vNPwgTEme/+0pM6i1/bDTMiI6PTC/AyGhmtZhqOwF12z/oqqtJDyYRAQR7c37B9mydCSkElErgSuEM4MBKAW12z7gRABsypKzMXoeSjOBwTsqlp9/atKcCd6yolcCVwRxxwq2tqNwH4qdnxS4vvRt+Nd6PgtR0oe3dvDD8I6LZ9DTsedI00jyuQwJXAHYnAvQygjHVcyyvA+a/9CKrqg051BF7+/VDwEjy+b3fdZo+x56o6CVwJ3BEF3PgNqdPrvwf/uOkxPPDvfWoIeLNtzSuBK4E7ooBbvar2kOm0EioahQsP/B1URRnCg0TgJRpZlC1HRRK4ErgjBrhL19xXSbTQCbPDF29eBX3x3UlN1rLf/jX8Heejf28PqKEZ2eCkIYErgTtigBu/KXX6C/8d/rFTkwI3pIUw8f9+O+53Ut/UsH2tqwWqB4UlcCVwRxJwmVPFarPDZx7+GXw+vyWMghdOYdLTfxuf59GmhrotHuDPcRUSuBK4Iwm4A7vJV2YvRu+dDwkBRzvxNiY8+49ZZTJL4Ergjgjgxq9vz634KsjcZULANTK9sxdjX35qMD+lW5v27GDnwRlJErgSuCMDuCtrlxOCl8zOnvrSXyOvYqIw6DRdw6hnfoKCtrCvOUtU9c3YX//U4BfCtbnPKIErgTsigLtsVe1mSvGY2dkzf/b38Kk+WwgKnjmOSc8MPvgN4MmmhrrIzSJbVbnOLIErgTvigKv583HpmwMej8IgopSi8LlfoPjEW2aZjB0PSeBK4I4I4EaimjzCOts/ahw67n9cGLDRGYPnWjFp+w+jv8rIDrMErgTuyABuVFST7gnX4Oq67zgCLjvbHffr70Lt7w2XJ2hu2l23yFFlLgpJ4ErgjjjgXplZhd67H3YMG3LgeYzZP3jPPhObVDkP3Oqa9d7HhiJ0i+nPyi6mj/SL9CBkEyg8DedCNHSk0++3Okrjts/9NIIrvuIYuMHLZzHpXwZN7UxcQBgGwK2ljiUgUNCLiBLRzeRi6BoBNjnJsrepoW65k4JOykQDt6tyPnru/XMn1RhlQqEgJv7iLwfLZ+BMVwLXsfhkQZccSCtwo4+DgiUVaH/gB67IL3n6B8i/8IlZx0BfWEgcqHS6TlFFCKli0SPDmWhlOOIGbQHIwNkvpWiEQluUkPKWHQtEAteV+GRhFxzIGHAZzef+/B9AiPPh79v3DMoP/bvZ/XYCWk9B1pgX9J3zhdRTotfnK9ouq1tIzil3TpmnJatrBk3lkwtv8yRYGiPQDJbGojFeuaXGE5pLXmuAGZHRq3UzM72nvhUOt8IConuVRj8VdjRgSwXGVy9SdAA6AGkFbvyrDyIXDKz6rB0/hAn/9k9esMWiDlJPKd26f08di/Mdk4YdcD+p8mbZVP1kePOBAdcrQDAwmMBt2jDgxONK+FOaG2OA60XYV0ZjNHC9mmRMnkY6nFbgxkd1PPW1HyGvoMQx7/UPDmD8C78SKh/KK0Bv6Rjo6uBNJEULItB1Cf7eqyJ1NFKKx6MBLIGbhG0SuIMadzgAl4k52jo7/5n7gPkuLIm3X8LYV34fM3qC+UW4Mq4SPaVjDKD2lIQ/2ffJkhrsMwBccv4kyk6/j9JzrfD1dSfL3khV34PMP1oCVwJ3CAeGo8aNAHfgaZlg6Ri0f/X7ItouYR719d2oePM59I8ai0sTrsHFadejc8JMx/WZBYmuoez0MUw82oRRZz5MUh9dK4ErgTuSgBsTlvXUlzcjr3y8M7C93YjOglKcH1cJ6mKTy6rxsccPYsKx11F84eRgNoqOgC9UKYErgTtigBu/zr1wy3rQqtsdAfd0dxe6Q0FHZe0UqjzwLCYefnWgCImEipXAlcAdMcCNmMvsDNWIx0oVH8489BP48wJ2sIS2nqu4Euy3VcZJ5tK2E5j3QtRTNRFty46JJHAlcEcacGPM5bY7vw5l9o3CuLrY24PL5gUD4VLOMs57/p9Qei7q4n7Ue0YSuBK4Iwq47BHrvpCvBQSjWMdDxeU4f//j8EUd1SSDWXt/Ly709jhDoc1SU95+EVPfejG6VMzxmQSuBO6IAi7r7JBoGPf+BXyV11tCi61n2bo2HSkBaIeEyZHAlcAdccA1tK7mY7edBta6p+9/HHklFQlHg04pTnR1gEXASHVKCNoET35K4Ergjjjghjep1q0ByE6z88GS0Thf+1fwFw71pmrt6kBQ11ONWSQCbbK4VhK4ErgjErgGeKPeEWL/75kwE5dXfgv+QMEAT9Jx7JPX3YHKN5/F6NZ34mWRNBidBK4E7ogD7tJV6zYQis3RD1ubTIh+luRSXy8u9aV2M6rs9AeY/uYfUNhxLl4Ou5oa6thto4RJAlcCd8QA1wqwl2+4C71L7h3YXW7v78OF3qQ+w67NZnZGyzyjxh0/MKQu08nCqhEJXAncYQ3ciLfUBgAs/nHkUntsl898/rvwTRz0M+4M9uFcj/egJVRH2aljBlgrPn5v6Mij6AChG5sadgwGtJIa194kKW8H5e7toGU1taspsBygbAOqMpnkLyxdjf65n4a/oHggS1cwiLM93h37sJs+FScPGxcHmJa1uMb3JFV9m0VfRpAaV2rcnNa4LFggJXoloSxMDNif5YXs7ilz0LHwDtDJs+H3x7o6dodCON19JeGIKDnfipJzrWDB1DV/AFpePjRf3pC8/t4uFF4+i8L2syi83Ib8rks8jbGXaGSTnbA1rMKMAJc9wIRQiJkvrhMhbJMhnGQEjFyKgEFbKCXbRAeAQmgljdWeDKQJTd9EdV5afDd6r10CX/mEhIO+Twvh5NXEoGX1zWn8raE5PUmGSYx6SrEtUXQLkTYyA9ya9RsJ6BMiBMo8kgNOOBAqHIXOTy1D77RPAaOnxBzxxNfHzmjZWW2yFLjajhue+ZETMgbLhMHaSEHq89VgvdtX7TMC3HiXM3cckaUlB8Ic6Jy9GN3X3AhtQiX8RWVC5qRGdZy4khy0rN5ph17A5HeHhH3isZ0FAmsnBM0IkXq7pjCvcglcHofk71nBgf7yiegvG4dg6ViESiugFZVBLywFWFiYvAKohaVQbF5op6A43tlu2T811I+bnv4bENNziqKDAknPV/N9oWa32lSE4RkBbnVNLdvuXs0I1FUfXv/y31jSOqu0XKQvMo/kgDAHmNfx8U72QL11mvD+fsx4Y/dAJpEzVl6dXvyeKeAOxP5hO3Rv3Gcd8XBmSZnt2dQL5sg6hicHNHZp4Iq1pjV7vnDPz4xdYjMF1FB5OjQqj/MZBy6LgPfm+v9hSeeMkjKoNs0gXsfl7yOTA7yNqGiujGl5C7NfeTr6q4w9ZB0vrYwDt7+wFAfWfc9yFE0vHgW/oozMkSZ77RkH+jQNJ692Ctf3qRefAPMlNlMmXuVLRmzGgdtbUoFDa6zPH6cVlyJPUYUZLjNKDsRzoCcUwqkkzhWJuFX+yVFc99Jvon9KawB3ngQzDtyeUePQvIqFAUqephSVIF/18foif5ccSMiBq6EgztiMXsFAy8A7oG0pVjh1lkiFWBwDd+nK2s3799QNeC3ZIS76ycOrFRPx9r3ftiw+ubAEBT4JXDs89jov0YKgAnGZvG7XbX0sGiOLymgnJdC2rU0NdUl9nu3UzfJ++t57yzWS/3DTnh0/tFvWzO8KuITQGoX4a17b/dRpOwTEvFU6Zireufs/WxYfV1CEUv9Qv1A7bWZz3sKDL0C52o6uW9YBWbgkUC+fRfG+neidczP6Zt2QzayMoa2jvw/nHVzNG6JtE4SOccqE6pXrl4DQJ4mOx/f9oe4pp/W4BC4eM977pMoXm/Zsf0OUiGjgdo6fiffu/Lpl0YpAASoC+dzqle4O+M6fRP9068Bf3IrSmCH/vVdR0vg7o8X+6fPQdct6aE6j66eA7ryPD6P4tTqol84YtXfe9Y2cAO/lvl5c7OvB6NZ30T7pWmiCE38qte2yVevup5T8AkAhdWl6OwZudU0t226bFRkrnTro115v2LFDZOxEA7dn1Fg0r3rUsliJPw/jC5I/nARdQ9Hru8E0F0tdn65Fz8LPipCSsTxKzxUEPjyI4pdjJ11t1Dh03bo+KyafgncaUfzKdoDGxlvq+sx9Bnh1F6/dpYrxLKDb+d4esDu1s1/9PcacaAZVVBxfuhbnr+FbC/HaFqBrRe7HWvXnxm9+0593+tJ3QPB3A6Yuxe59e+oMJyQnyRFwl91bex9V8K/xDVJKXlIIfjM5H/+8fft2LRlB0cBlTxD+6Yv/05L2AtWHyUVDg3gpvV0IvP8G8o/uhy/6fRUAvddV4+qytVk3uPynjiFw/KABWgbeZMkwS69biv4p1zmRq6syjL78I/uQ15rgsnekZgZaBt6+a25AcPK1rtrzqjA77mFRK/ynP0Dlm39A0aXYFdzlyXNwsXIBLlQuMMAcn7zeSb5l1X2TdD34AAj5KoC5Qxok+ELT7rrtTvpvG7jVNbXs7ObH1o3Rd0GV3+iK7zev7/7Xtvi88ZcM9n/l+wkZaZbzKQoqi4341UbyXTwVBuyx16FcTe4gHhozBf0zFqB/2jwEPXhJzRGDQ0H42NOJ51oQaHkHDLh2EjOfe+csRd/sxXaKOcrLJkAGWDbw7SQG3L7K+QiNnYbgxGsysk7vCvajt+U9lJ18D+M/eAOKxbs+7OnLC9PnGyDuLht89MurneQlK9cuVKA8QMKAHWvJS4fgFQbuLffW3qop5BECus6GUFn8jyMUOEIIDlOKZk0jh/w++meUsvVxOB34/F+hv2gQmNH1MydvNnNO726H78Inxho2XruK0BMaPdkwPxkAGKBTldgmk7/tBHxtLfC3tcDXdgLEg8ehQuOmIziuEqGxUxAaPwOsP26TevkM/Oc+NiYW/9mPjE+3ifrzERo3DUFG76TZCE6aBZo3GDXRbf3x5X0XT0M/9gYKPjqEwvYhAde4zTHgdpexO7o6RrfERFm0DNZmVrykZv0MRcd8KPR6AlwP0PkAsbfJQuhWjSpb32jYfoJLcCSDJXAX3PnVosK83pUgdCUB7hetVCAfezFpYJv40tS5YOe5Sqgfeb1d8Pd0wd97xfj09XsfZU8rn4hQxUToxWXQi8qgGZ/lA/+nnDNjtfMC1I4LUNhn53mY/2efJPmjxAJsEc+i5xcZGi40cSb0/BJjSaAXFBufNPLJTHHS02WY5Ir52XsFvjZmAbRamurilPBz6kWjoJWOMf70Uexz7OD/k0zYZq2kv9ewqtiEqF5tH/i38f/LZ+GLbJrxqbCbgx4HyEkC2qaDtClAFwUZD9AJAMYT0PHh/w+OY7stxOU/R4CndeC5/Q11z/HqSgjc6pralQDMP/dTO48K+bvkgORANAc+JMBzViAmN69at0ClykIKugAA+1vIZhTJR8kByYGs4ADbwTxAKQ4QQg+oPt+BV3c+fUx4jet1F6pragceYjm6ZC0u54+2bkIhUEuKAXlLyGtR5FR9tD8IvacX8Ogdn0ltRzD9/deiefBoU0PdlmxnSiaBO3An9/Q1N6F1MlP0HOwWFYD4/bxs8vdhygEGWNrn3YPSBVoPql4LO79EUlZdJLASYyaByyL8GZEe+wpKcfCmL3CHG8nLg1LI96DiViQz5BQHqKaBMtCGkroG2O4PURTMe6sBJZfDHmFgIWl8virRuMa2G/S4QMaAuzQu0uPrt30dOu8VQ0WBWjoYvNpjXsjqspADXpvGZhfHtn+MWW+HPe1YypaQNKIiyBxw19xXSbTQwLnVuzevx5VA4rPc6M4oRYUgfnlTSFTAuZzPa9PY5EW+1otFr/12gDUU5K39DdtZnOacSRkDLuNQdU1ti/m48KlZS/DxJLapbZ1IIA9KgTSXeXzK5d+ZSUx7vTWNTX4oBFjwpzoUdA/GnCIaWeR1+NRU8z/TwB1Y5xo+y7c8AGicdQzbXS4uBpgEZBp2HGCbT3pvn2e7xvEMmnbyECafGHwhL9dM5AHTPpOSj1/nHlj+EPp1PiBJfgBKfuy7L5nsh2zbPQcMLdvXBxoMua8sSQ3lXedw3cHBUKsAcmYXOb5LfJSkjI3A8jVryvo030Bw2/cXr8alQmufbIMcqXVTKJX0V017+8JaNoUpoPfjhlejYkhRdAR8ocpsCLXqpNsZBW5knTtwnttVMRnvLLgXMKPGW/RIal0n4s6uMjQUAgOtl8c8iXrIfHauP7QbxZ2DlxDcXmTPNCczDtx4c/ngrRvQRwScLHJE67J40EvGFiFPJTh4oRtXgt6dRWZ68Dhun1JDw3rpTGFFy7SPD2Jyy8HoLDnhHWXVp4wD1zCXQ74WEBhnQa3X3YrT4+YIjYls1rps7+wv543Hg9eOienLjpbL+D+Hz+Fib+rWckLMy1AmGgyC9vaDOVWkI00+8x6mfdAU3ZTQdb100OamjYwDN2IuD+wus8gEb3zma9C53hjZvdb91a2VuGlsERrqd+OVl1+G3+/Hl77yZVy/YD5OXu3Huv/4EH0az+PEjWizrKyuQ2eA7ffOZZHXwwnnP8SMIzGv7LUG1FBVrq5ro/ubFcBdds/6KqrSQyZhR25cjfYigU0q5vGShee6q6aX4fs3TsZPfvgjvH/0faNbc66bg+98778a/7569Sp+d7Lb0LwjITGwMtCK7F14xY8x7Scx++3nB6uj6CA6WZ5r57XJ+JEVwI1o3QFnjCtlE/DuwhrhszzmkMEAnC3pmTtm4epHR/H3W342QFJZWRl+vOV/G//fWfcMVq/7PBbtTB7TKVv64oYO5q7I1rHpMotNWov7OjH/9d/HkJ6LThZWvM8a4MZvUr11y1fQrYqHPFGKi0B82fFMyZ/WzEXjCy9g+1Oxg4cJYuq0qSgvL8e3H30EK5//wDCbh1syANvfn/Ld4kR889MQFr/CVl7RypY8uL9he+yXOc70rAFuvNZtHz8TR+b+J74nlSkAQsIXELLgvu6/330tjh/8E379y/+XcHgsXVaNh775dSzZdQR9Wmzo01weT5kELOObTwFuavzVsAct62BWATde6x6+uRYdgTLhscw0LtO8mU7/Zf543B7oMda43d0sXl5s+vrD30BP5Tw80vRxpkn1pH1jp7gvCHYum6nkV4HFL8WCNlfdGUV4mFXAjT8aYk9wHlp2P3QbO5HZsFk1sdCPf/vctWg+1Iznn30OH37woSGLiooK3HXP3bj9jtvxzVda8Pp5e2/aiAg0nXmYe6Kxhs0gYFl/A0TDDXufiO961rxlmwqZZBVwWQfjte7Hc5fj1NjZwhtVhhmR54dSKL4+TgVjV04rw+M3TIJPITh9KhyYe+y4scax0E/fbcO2YxdS0Wxa6jQAy9awKfQrFu1IIe3Dwlf+eUSBNutMZZP70S8dsO+ab9uAHirgTRUtPnbpvqQo9WteXUeepkGnFKG82J3tfFXBuhnluG1CiQHg/ee6sLu1HWd7gqLjMnvyUYrwGjaY9l3iZEwoDnZhftOQd7OGtaY1eZF1GtfQunGX7HtLRuPQzfcB/fYd0ZnmZRrYs6TpILqOwu4OTH3nRZRe+mSg6sP3fBtdPg/b8oxo5xVRTYexhu0PpvUclkdxWe9lfOqN2KeqhvOaNp4fWQlcRmT8MyWt82/H6fKZPHkm/N2Ra6Sug+o6FErhD/ahqOMcxhw/gOKuC/AnCdL+1j3fRt8wAa5xASCiYR0xPYWFxnWcxDVvRTlXGCGjht+RjxULsxa4kfVuMwEdCP/43pJaUEJAiWJ8IvJpfMc2yCOfxm9g+cxPgOQXgfrUgW10owRlpSiIzsDZi8DVdhRdOoVRJ4/AH+wxvhNJ5xeswPlp89Gl5H5InQFzOMMbTon4TgjBlFPvYMqH+2N+Hmmgzdo1rikVw2QOhZrNCwgiIEpHnoolK7D4M7di4aQxePNCN/7XuznuusisCxavOBgEsvRcWYWOWUcbUXHuoxEP2qwHLiOwumbdGoDsTAcgk7VR9YUNWHD9XFw7ugRjC/OgRDl59ARDWNoQ9kfOqcQ2m9juMFu/ZsHusBXvioJdmPunnfCFYvY4WolG1gwX32O7YyerTWWzM9Ur120BIY+Y/6+cOQOhYAghLQRN06CFtPCn+ReKfM+5Oubz+TChcibKFtyEcVOmYHx5GcYW5aO8wI/SPB8KfCr8qsLl6a8Pn8XWoxe5+bIhQwxYPXoNIGX9UlWMu3gC10SFUY20tTeghtYMh1s+TnmXE8BNtN695f6HcO8Nn3Lab6OcqqooCOQhPz/flQvZld4+fO6Fj9AVyk73RSOek6lZBaKLuGKqR4XziIaZR19Gedvx2Bop3dq0Z8cmj5rJ2WpyBrjMq6pX8zdGb1bdvvFh3LFgtmvmq4qC/EAAgTy/AWYn6bdHz+LHh7NE6zIzmO0Ks8j/DLRpurTuhG9DyigKKjrPYM7BhjjAooMSsmm4XRZwyrOcAa6hdRNsVn32qw/hs4vcad5o5vn9PuT5/cafzwaI+4IhrHvxOE52Z8ZfdxCoEcA6HREZLMe0bOWxfRh9JnbPgAUsVzRsHKnr2UQiySngsg4Yl+4V2hi903zr+q/g7upFng85v88Hn081AMzWwzwgf9Dejdo/Cj8q7pxeplGZyWuYwKGwRs329apVbxUVoztP4dqDe4bmonRrwKdtHsnr2WEB3GTgvfYzn8XGNXc7B4NASXaOaIJYVRUwE1thrpWKAvYbS7883IafH/XID9kEKPNeYuBkxzbsuCZH1qkCLEU+7cf0D/ah4mz4IkZUaqUUG/fvqYuJPSNS50jIk3Ma1xRKIs07eso0fONbf4HSPGfrVKcCZ6Bl4GVg7ggBD7x4HBf7IxtV5tGRwWnmJBJphWlIFnKKgdP4t/kX+Y6BcxgBNJ637Fx2wtn3Me1YzNu04WxSy3KHYs4CN5nmzS8owIqHH8Gt02KjK3I54WGGZ1s78ONDkecbPax3OFTFol+OvtiKmYf/CEUfEulRallBIec0cE3w6iq2Re82G98/9C2snFcpyAbvs/3y8Hn8y7Es2WX2vnu2a2SGR1nnWcx874/I6x8aXIBdEMhTQlvkWlaMtTkPXNbNyFMm9QBui+525b1fwKrqRZhQmJkbOz84cBr/cbJTTBLDOFfp1QuYeaQx5oW8qO4+SVXf5lx5UDpbxDQsgGsyM97Din1fMKkSy9Z9EZ+dIRbu1WvBrH72A3T2pyf4t9e0u6mPmcSjOs5g+rHXkgF2L6XYLDefnHF5WAGXscDwbaZkW/zFhGvuWouVt96E8YXpD+P6pReO42x3Dl6edzCmfISi4mIrKo++DDWUMIJlK0A3NTXsYBaSTA45MOyAy/gQuYjPwnHGmM5lo8fghtr7ccecKQ7Z5bzYf2v6BPvbupxXkOUlAwhhTNuHmPb+q8kobaUgm6XnkzeCHJbANVljXMbXsSle+1ZcOw8L7rgbd86a4A0XBWv5xXvn8NQHlwRzZ382lZnDV85hYsvBmEggcZTvBegWqWG9leewBq6V9mW/jZs5G9ffuRJ3XDvZW65a1PZcawd+/k4burP0QgKPEezMurCvE+POHMWE1ressu+iFFvkGpbHUWe/D3vgmmyJ3OvdAmB6PKsmT52K2XetxuKZU1CRn/ooFu9e6sHP327D++1iETacida7UmyjqaCvC2WXTmLSR2/G34sdbIiiAwT1cpfYO94nq2nEANdkQCT86+ZEAC4oKMDUFffg+nlzsXii8epnylJHv4ZfvHsOz33ckbI23FTsoxpKrpzHmLZjGHPmGK+qXRSkPl8N1stzWB6rvPl9xAGXsY2d+/brvk3MFzYRgFmeCVOnYdryz+GGWdMxrSTgDbcT1NJ46gp+d+wiPuzIoPZVFPiphvzeDpSfa8Hos8eQ38M9f24FsIWqvnp5Bpuy4ZG04hEJ3GhuWGlgM9/oeYtQvmAJZkwYizkVRZhU5K1DR09IN8DL/tKRFFVBfn83ijvbUH7+RCIH/2RktILSeqIr2+QVu3RIKnkbIx64Ayb0ytrlhBgaeANPJOqs6zF+bhUqp0zGrNHFmFIcQLGfH+KGV++Ryz2oO34Zf/yEq+14VQ38roAiEOpFYfdllLafxejTR5KGl01S6V4A9YSKziAAABErSURBVEQjjRKswmxPeUYJ3DgWRyJtrCGgDMQx58DJpNGbXwIy5RqUTp2JMePGYXzFKEwuKcCU4jxMLbbv8PHamS6wo6OTXQkcGJjTL7tGyO4aURb3WYeqh4wNo0DfVeRfvYzCzvMo7mhDXt9VqJptxw9mAjcCtD6gao1yzZpyDDpqQALXgm1RIF4DYLUTDneXjEZwwkz4C4sQKChAID+AAAuTEwggPy/PiHlVwN46MoCoQdH1MCB1zfhs2N8MNdQHX7AfgZ4O5PVcga9vqJO+E9oiZfaCUhYCt5Gq/ma5XnXByTQWlcC1weylK2uXKwqWU4rlotrYRvUpz8pCwBDQZvYcE6VolmesKWd5yhqQwHXBWgZkEFJJqF4FQqpAUZUFwduZqdsS1qKkhQEUPl+L1KQuBJ2FRSVwPRaKYV6HfFWE0DLCwBwOaME+zRe62SXhIU4giciIaMj2uN9aCEFLuF7aTCkxfs/3hZrletRjYWZxdRK4WSwcSZrkQDIOSODKsSE5kIMckMDNQaFJkiUHJHDlGJAcyEEOSODmoNAkyZIDErhyDEgO5CAHJHBzUGiSZMkBCVw5BiQHcpADWQlcFuwNodAG5sDAnAwUneySN1MyO7rYky+6QsP+2gptyVe0XdLhI3MyyTrgGm8CqfSlKE+jCHfoWhlwLDMDpbqmlj0k/dOY1gmaA0pohQRvZmSSdcCtrqll8XYT3cRpb2qoK88Mm0Zuq5FQtwnfDmXPhuzbXcfCAMmUZg5kI3DZG3YJE9HIImkyp3eEsIsUhIBZQInS3qaGOnZTSqY0cyCngEspVsiraOkdIUZsaorHJHDTy3deaxK4PA6N8N8lcLNzAEjgZqdcsoYqCdysEUUMIRK42SmXrKFKAjdrRCGBm52iyE6qJHCzUy5S42anXLKGKgncrBGF1LjZKYrspEoCNzvlIjVudsola6iSwM0aUUiNm52iyE6qJHCzUy6ea9ywi5w2napqq5OQoNU1tUk9p1LtgMEiNPZp/oVOac+EiE1+J2qbaOhw62mWy8Ad4A1BFdWpEWWTKKQdFM1e8CYT8jbbdAxcIwyprq5WKJZTM6Zwsp4QNIOSFkr0et6tknQBd1lN7WoKI7A5C51q5bbHwp+yAOKNCkHzvoa6XZkUmMl3QpU1AGV0m2FfrchqBCH1VFF32Z1MvQRueGL0MS8s9rwLCGh9nqo96uVFBSZXgK6hIOz1CQHekHo2LqH499rlTSrGgXEzTg/eZuAKhIXyZYF4KwHC+sLG4ePMe9A2cMO+q+QRxhzHhBM0Ux2PJnJfTCVwGVMULfiYuFAT9pABeRtVfVvTKego2o1B7zyRekrpVlHXUa+Aa4BW971kBI2PTe0BNTTDLXiXrlq3gVBsxsBgt88hArpNp+RJUd7YbyFxicFrrOy9KhOsyWunIA8KAzdy3Y5d7fLSqbzRnEFMMlMB3KiZnl1P8ywxQXutMeKJM97y1dSfUhCXgI2vmdRTVX2UN/l4AdzkVzXDNLm5ZeQFYBMMiEaikUfdLjN4A825bGmLEHCXrqx9jBA2m6UmRQPAa+BGbrfsFDObHPWvHaAPpuKucHXNujUAeSKVtPO0nVvg8kAb4fiupoY6WxZcihRJ/ADYElBDj7u1BhKNqgimmCIRMOeH1mAJXGNxr4d2JjBvHI1wy0IEzSREHqQqPZQsn93NqeqaWmYheKplLfqwpamh7lGvGLOsZt0T3mvZodQxs2t/w/Ztyeh2A1xB0NrWuJHHyNmElvrElnWKby3PMhElJGL9MUXi3HKl6EgKXFGmixIsmI+tH5POQKLA9YQ5ggRHZ2OWw76GHQ86KDpQJN2088xUp8AVHj8UHdTnqxIFRromtDgZthONrHBrOod5ou8UWcdajSEms4TAFWa6mxHqoKwIcC02QRy0aL+IW/BWr6o9lBYLZ7BrjzY11G3xUuPaGz/iIYlcgraVgrQT0IX2pWqUcAVeezxJTqE50Q4Bru0GKDpAUE9BGkFpi/mko/lqXdQzlGwNI/RKnRtTubqmlkVrsGOGsOMdtknGgtK1m7NqeG0cfnGPUuP4wg7tlmBIChJ75nErKGV8r0+0Cxo+wwxWIXwssiFhmwLazq7GtTN+eGZ6NM0J415ZI3AX4w1UtTGRNjf2D9g7x8Tgj5hsHcbZioT/YUtAO+vZvey5VPYyo04Jeza1JVrOMcANm2nqIUFVzmawzVbro3i+RtYmbJNLjFFxFfA0bvXKdVtgHFVxElsjKNiSp4S2iG48RDa5GO238apnv/Noja9DeGAysBGyyRbf2TGYHtoYNwHtJRrZxDP/7AA3VaDlhM+JZ+WTVPVtFjW9WWF745LUNzVsXysyBlgeWxZgZFzqim8bj/4Y4IoPfLo14NM2iw76+E5yBkNSnliBQVS47M1ZqOoaHmOSERGeqck2/gPWtCWgaotEeBQZ8Ek35aJo2RtQQ2tE6hQdWLx8osBNFWgZfdU1604IKJNWNjG5OYMVH5fi5r0wpoBdVPVtEh2XA8C1MfAtdyF5A8H83ZjlKN3CB8BgjVbAFRTuk00Nda7PQ40Dc02r562XeBs/Zs8EzXtPaBeVj5lPBLipBK0gmDyb0Iy+KLSRMy6FIo6mElMDwBUZPHbWJCIDRJBJA1UlA67g8YCnA99Yw2v+Rh54qeqbYTWLCgrX9jmnCP9F8vCAy8ztxHGwh9Zud/wIrg09lathOltHtox0jK91xZQJv55EcjKAK0QopVub9uzw/ExUqG2TVUmiPPIYxMzj/Q3b413tRMatZR5B8FoOLIs40mbbrQE1VJVO8zi609bApS0RH1r+pouD8cPTtkyu+WpwuZe8sbEmtdyAFBnXdieyaLkYwK2uqWUH8Il3HtlGS4oGvqA5ZqlxI95F7EA7aUplPGaB9WlSX1yrYONmZ+xucrmejeIq4IFHsD1HWrG6pvay1U6s13K1c87Ka1tgQnbEE5PfJnAtGZSOwVNdU9vI27FNRAdv0hFdZwoOwITZeIM72cwqsJOcMRPZ7qRqwT9HA1Rg+eOo3mR02lmnA7CUS8SJhmEqcaLoCPhClW4sBSKg0tMSrV5EcyYBbvJJxwMGiQDaEFTI12KxoZFQ0LxZmbc+FqHNbR7epMSp3zG4eBOyl7wRmCQGrT4B85xXnxfKhPBmfTd2uN1BU11T22J1xhsPXJ6p6QWDRPvA2/Zvaqgb4uxitTZP9fJEtF8ugOsYtOHlW/IjIC95Y9OfXWj3mjfpBNRQuRtty/jDgJt8fUvR0bSnjr/xIDoKOPl4gz8euDwtzVuHeES2UQ3PcklEi9VNKACOvK+87BOryyFwXYE2XROyTRdK4T5xln2eWLAMuFZrS08aER1MPCDGA9dyUKV50glrCfGwOzygp2NfQUQuDoArPMCTtc/jDeDsCMVsz8bOsVHErtVpNQ68sgItgetVIyIDRERr2QIukNZJx6C/Zn2zxblujAblDc5EprUoH73MZxO4rkEbmQCHvscb1Sk3k5qxCeWjTwhd5GDupcAau95YdiZwp7LKKuDyduOyHbhW1kv8JDgMgesJaEXMc6drRFs7x8xvWCfLeb7ciYA34oBr19zkaAPPBpLorDhygUtbmhp2zBDlEy8fT8s7sUZ4O73RNLl17JDAjZOw1Li8Ie/97zwQmS26vYccTTmvTbsat3rV+kfA/OIFklvQ2lU+AiQlzJJVpjLPCykHgGvlyGJrjWt3cDodALxyPBBFl/cKvHY3Ka36kKqdY6s2M65xkeYNHp45E28i8QaVE5OKN5CT/c47woifdOyu553S5bYcj8fx9XsBXu4EzomTxWhyEALIs+O3tACXIxih60tuB4dZ3tKTKMHxDm+DJ53nuDxHliTnuMkdThw45XslBztma6I2vQAv54zbcv/CVpBDB4EJeHxOC3B5ZonbMzNeJ83feRookfbnlknj4OfFikrsOVVbD2B1Yh55u+EjKof4fHY1rldrXo47aNKLG+naOc64qcwz8Vg8pqaGuhVOBS9ajjtAkoCQ4ybpSZR8Xh94mj+Zix5PS7s5r+TRLPo7Vy4WFbnRvLxlUyIfg0gZFpKX6+3nNhJKxoHLCOA4DtiOnyQ6KOK07QknV7h4AysdTiQ8bZvMfZFrMSDzWpfHX56snYKXzxvETMp2do6Z9ZbKEEBpMZUjwN1IQJMHmHYY3Y4n1MG17fqdnLeIWpsa6iIPIMXWKmAxIJVrXZGBbXWThXdDCGk09xPJS6R/PDk7BS/PWd+sNxM7x1mhcQWupbGX1VwH+07UWZ65yMrwtKbAXd52qvoWiQbi4g1E83fe7mckn6XrJX+Pwb6vrCj9Ivk4wG0FRZlI3DAn40dkUobxEuSQh8SSdc2zneOsAC4jQmRmdcJ8qw7y1jFGWYE7tbw1plGPx09JiG6CiKxTeUuVMBusnwoRAaGTPLyYU1T1bRQJnBcWgf3Jn6d1hfqUgp3jrAFuZE3RLBDzuDGghta6vU8oBFoBbTtoblvt0A6wuZ1SrLXrNB4vJFHQip6DC008YSJS9ghVsoHIA25TQ91ywdhbkfnTHnhFrEFL8LrwORaaFBJkStsa12zbxgBy/EJd5NX3J0Te17VzYdqmgB0DQPjlQoFXAqJlLmDuR7LTFkrJg04mn/Bj3mQjgd4OkHqRR7pFgMsISyV4RZYTiUAmunNs0K6rqyOPhZcR0BY3z6emHbis87zL7HEMYi9jbxEZAIOP9xqv53G365mJbOcxKIP28LOUloHjouhvByGbA0rwSZ71MChY8YeT7Zq2xnouFGoWWS9G+tBICd22f/eOJy2XI8aLi9pqUH3T0KDi/Kj8osBNPXiFLKpoVnCPApmiUgjdkPBVRBcbshkBLuu5yJorbrCwGbyRUtqssLUkCHt1D5TS5YQYmxfLbWwghE0qjSxydKVK9BmS2A6wt4MaiULaQcGWC2xBVkV19naQ8Q6RnbeIWGlHN5NsWDyx1Ic3aNgygAVFMJJCaCUlpIrHd94EYwe4dsFrZ8fcjkaPVy7hsRjmTUSe7J8sXK+1AnG4o58x4LpgktXkL/wbbzDxKvJkQ4PXSPLfHYHWrE5kl905aUNL8nbs7QLXLnjtyNqBVeKWVY6CMWQMuHaZ75Y7A+UdRhxI1H4mwMsDgSifRDfuROuzysej2Qlw7Y4fkZ13sw9pViq5B1yT+X2aj/nTCr1Q52YgsY0ERcNGJ+ZxsnZtrtedk5+C44b0gdc6fpNT4NoCr02TNHICwoIcJvHzdi7KuJKOzn0zqnGjO2CYbxSbbWyc2OIcb9a3VVlcZmPdCNSninZ25MPOMr127mDdYMdOuoptvPeJXPCHa9Zz1t1cjSSoIR0Ffhd/OdEBh2xOJnF4ocla9CoedMIX6RM1GvFiYe/DJn2qxAF7bL9l6qAN46iiX/dtojo2eQhg2+8DO6GdlYmse9luvKN3hRO1KzpZcryXuMAX0bx21rnxfYloX/YCo1f82UspNjs5bjNpS3rxxcPIo8LANYkKbxAEN9l6yTuW2+GX1H3+LanQUlbg8EjIxkvndh6WdgrY+HIR85kNUkdLF2M5Qmi9nQe9Dc2/qnYzpXgsjh5bj5FFeD9k2WXnrJ7Hxwh/2Avz9kxoig4Q1FOKbW4AOwjcxMeSbiao+L7bBm50BREPInZUwrbWzUsA7HM6O4c1/EjDiV0Yb6YUzV4whidAkd8jZmgVoXoV2LFJOA0CIop+QmAcdQVUrZF35ivStts8YRCo7IhteRTtYb6zNEh7O2HHc5Q2U9Xf7GaiDJulRnvsCKU5oIa2OeFFxHpg4DLGRUANbXJSD3+CVpcTQqooozletsBe9pUp16aGHWxC8TRFlhhskmVyYQ5L27xs5/8DbVMhhe747TwAAAAASUVORK5CYII=;" parent="SomaoYfI-tTYEmpxU_zl-4" vertex="1">
          <mxGeometry x="281" y="25" width="238" height="200" as="geometry" />
        </mxCell>
      </root>
    </mxGraphModel>
  </diagram>
  <diagram id="5PnIvM1vL9TW5qPojjzX" name="VNC">
    <mxGraphModel dx="946" dy="589" grid="1" gridSize="10" guides="1" tooltips="1" connect="1" arrows="1" fold="1" page="1" pageScale="1" pageWidth="827" pageHeight="1169" math="0" shadow="0">
      <root>
        <mxCell id="dt_9D0VmNeJQ_Gif1Bkc-0" />
        <mxCell id="dt_9D0VmNeJQ_Gif1Bkc-1" parent="dt_9D0VmNeJQ_Gif1Bkc-0" />
      </root>
    </mxGraphModel>
  </diagram>
  <diagram id="TFX30zgcG4MrDz8SXg5Y" name="pyhton">
    <mxGraphModel dx="946" dy="646" grid="1" gridSize="10" guides="1" tooltips="1" connect="1" arrows="1" fold="1" page="1" pageScale="1" pageWidth="827" pageHeight="1169" math="0" shadow="0">
      <root>
        <mxCell id="jMgBcw-QvtIXhPQeQEYf-0" />
        <mxCell id="jMgBcw-QvtIXhPQeQEYf-1" parent="jMgBcw-QvtIXhPQeQEYf-0" />
        <mxCell id="LJRTIB5_bISj4pEXZQDT-0" value="" style="group" parent="jMgBcw-QvtIXhPQeQEYf-1" vertex="1" connectable="0">
          <mxGeometry x="20" y="20" width="800" height="250" as="geometry" />
        </mxCell>
        <mxCell id="MNSkRRWEopuDWNI9_il3-0" value="" style="rounded=0;whiteSpace=wrap;html=1;strokeColor=none;" parent="LJRTIB5_bISj4pEXZQDT-0" vertex="1">
          <mxGeometry width="800" height="250" as="geometry" />
        </mxCell>
        <mxCell id="3VKEcqhKdssKF-RymC_h-0" value="" style="shape=image;verticalLabelPosition=bottom;labelBackgroundColor=#ffffff;verticalAlign=top;aspect=fixed;imageAspect=0;image=data:image/png,iVBORw0KGgoAAAANSUhEUgAAAMgAAADICAYAAACtWK6eAAAWsUlEQVR4Xu2dC5QcZZXH/7eqMwgIK6K7Z5ngqgt0DxsSITMdJ9OTTUxceShHge5JFkQU8YGyBJSZnshZ4CBMT1AeIury1iWQ6QmPoyKwq0uW6UlgesJKjJmeyKpHneC66O4aSUymq+6ezkNjTqb7q6qvuqu6bp/j8Rz6fve793frl+6erq4iyEMICIEZCZCwEQJCYGYCIogcHUKgCgERRA4PISCCyDEgBNwRkFcQd9xkVUQIiCARGbS06Y6ACOKOm6yKCAERJCKDljbdERBB3HGTVREhIIJEZNDSpjsCIog7brIqIgREkIgMWtp0R0AEccdNVkWEgAgSkUFLm+4IiCDuuMmqiBAQQTwOOtn/2PGmXT7BJOt4j6m0LrfY/LVlxLaPDZz3a62JI5ZMBHEw8O7+oS6GcSYzLwXwlwBOIKDFQYq6hzKwB8B2AK8Q0fcI9tMjAz2jdS8kpBuKIDUG19U/dDaY0gQsAzA7pHM+tOxfMPBdEA+PDvR8p0l68qUNEWQGrIv6Hl1kG/anwJzxhXxQkhLlDdu467nB858LSklBqkMEOWQa3avWzWWbrwT4I0EalP+10P1k0B0jN1+w2f+9wrODCHLQrFLZ4TTAt1c+W4RnhFor3Q7QykIuPaw1a4iTiSD7h9eVHfoEgb4a4llqK53BnxzN9XxNW8IQJxJBAKSy+c8B+HyI5+hH6dcWcpmb/EgcppyRFySVfWQxYD4bpqHVr1ZrSSG3Yn399gveTpEWJNW/9hSwMRm8sQSoIrLjhYHl2wJUUV1LiawgXb33HUPGsd8EeHFdiYduM1rP9m/PHV196Y7Qla6h4MgK0p0dvofBH9XAsOlTEOjekVz6sqZv9DANRlKQVHbdMsD+1ygO3H3PxrsLuQu+6359OFdGVJD8twGcE86RNazqJwu5zHsbtnuDNo6cIKn+/AfB+IYyb+b/BBm3gq3RWNmeOvKv3rDjtV/tfIttcRzMHwPwPuVcYQ8kXFwYyPxz2NtwUn/0BOnLvwBCUg0SrSfizMhA5r9nik9lh1YA9LBavpBHMcYKg5kFIe/CUfmREmRhf77TYGxQJLTDtrBowy2Z79eK7+4bvo2JV9aKa4bnbcLCDQOZjc3Qi0oPkRIk1Tc0CKJeRTBDI7nMcpXY7lVrz2Db2KQSG/oY5tWFwZ6+0Peh2EDUBNkKojZFNjcVcplrVWJPvS7f8sbd+B2AWSrxoY5hnigM9pwa6h4cFB8ZQRauWjvHsI0fqLJhYPloLjOkGp/K5rcCUJVPNW0g42zDPm3Dzcu3BLI4zUVFRpDu3vwFbED5NG4mOn90IP2YKu9U//BLYJ6rGh/mOLKRHlmdWRfmHlRrj4wgqb78lSBUfuuh9CCivpGB9Gql4H1nBO8EcKRqfKjjGCsLg5k7Qt2DYvGREaQrm19NwDWKXADQ/YVc+lKV+K7efJwMlFRimyGGgVtGcxmlP3aEvd/ICNKdHX6IwRcqD4zw4m9a0Ln1hkzlqiBVH939+U8y4yu14prleQKtGcmlL2qWfqr1ERlBUtnhZ52euctE14wOpL9QDWAqu+Y4YFble4F4FA6YfT3S+kIuvSQK/YogVadMvyCDzql2IYNUduh6gK6LwsHyxx5FkKabt5tXkP0Q/osYl44MZp48GEoqu+btjFmVzzXnNx2smg2JIDURhS3AgyD7W6UfAvZWYmOKiZMgzAXj9WHjoKdeEUQPxwBl8S5IgJppeCkiSMNHoLsAEUQnURFEJ81A5BJBdI5BBNFJMxC5RBCdYxBBdNIMRC4RROcYRBCdNAORSwTROQYRRCfNQOQSQXSOQQTRSTMQuUQQnWMQQXTSDEQuEUTnGEQQnTQDkUsE0TkGEUQnzUDk2ndSYZAe9HYAfwfgL4JUlVotIogaJ4nyTKArm+8hYK3nRHVNIILUFXfUN+vK5j9NwJ3h4SCChGdWTVJpqi9/LwhKP/FtfMsiSONnELEKuvqHu4k5JLdiri7I9ET7YpPUfkTGwJQN2m6Apxg8ZRJvofimwPy+PzK/KAyDb6m+ocdB9P7g11pbEIPI9W3tiPA8Ez1sGOZTdNLGlxvJQwRpJP1D9u7uG76Cib8UoJJmKMVfQQ7elAjftm08EGsrKl+jTCc/EUQnTY+5Utn8fADjHtPUYXn9BDnQDAHrbaIHYvEx9VtXaCAROEEWf+bhN5VjRisb1GrYaGVCq4Y+XaYweN9C+xBO1f77wbGVuEPXVvId7r8fyMkB+77mcOjqL8hBoowTjF5KvOD6LZyTg6Hhgiz6bP5tbHIXE95NoHMYON5JAxLbCAKNE6TSLQG7iehjVIdXk4YJsvdOTzZfDqJ3NmLEsqcXAo0V5A+VE11txsdu89JJrbV1F2T/DTQrN5uRewTWmk5gnw+IIBU+zFeYbeNf9gtV3QTpvCp/ZOwI+pLcetmvUdYzb4AEqXyiIyQpXiz6QaAugizufXR2mazHQWj3ownJWW8CwRIEwM7dZbvtqDmbfqabhO+CpPrWzgMZIwCO0V285GsUgcAJAgaeMcuvnUtztta82LgTar4K0tW79p1kGJG54aMT8OGODZ4ge3kyBsy24iqdbH0TZO/bKsP6uc5iJVdQCARUEGCXRdTZEh97SRcpXwRZvPKBN1ivO7rIwEm6CpU8QSIQWEHAjAdjbcUP66KlXZB0Om/+8q/xGAPn6ipS8gSMAGFdYSCTnqmqytm8Xk5W9NqtDZw1K1F82mueynrtgnRlh24mUL+O4iRHYAncUchlKt9lHfbRaEGY+ZFY2/jf66CnVZD9f7GqfCiPxs0sdUwghDkI6B3JZW4JqiAAdhhoaaXE6A6veLUK0pXNP0DAJV6LkvXBJsCwLxrNLV8TYEHARB/SceavNkFS2fyZAJ4K9milOj0ErCWF3Ir1QRaECI8b8eJ5XvvVJkh3dvhBBn/Ia0GyPugEeHsh11P1JwiN/gxygKCZKHo+vj0nOFBMKjv0M4BODPp4pT5vBIj5CyODPVXvNx8UQQy0HOv1c4gWQRb25zsNxgZv6GV1GAiQbS0bWb3ie9VqDYwgFJtN8Y1TXrhqESTVN3wtiG/0UoisDQWBbYVcpub94IMjiN3m9QopegTJDj8L8OJQjFiKdE2AQKtGcumBWgnKpWSawPlacX4/b5V5Qcuc8TEv+2gSJL8NwMleCpG1gSfwkrUbnRtvy+yqVak1mbwKzLfWivP7eZt5yay28Rn/2qayvy5BXgNwlMqGEhNOAgR8eCSXeVClemui/VYQXaUS62dMIARJZdccB8z6jZ+NSu6GE3i6kMucpVqFVWrPAzTjuVqqebzGBUKQhavWzjFs4wdem5H1QSVAu5l52ehgpqBaoVVq3wpQm2q8X3GBECSVfWQxYNblGkV+gZS8VQgQPlMYyCh/ntjzw/bTTZNeDAJTESQIU2jqGuj+Qi7t6IrzVqk9B1BfELCIIEGYQrPWwPxMYbCncn6do4c10fEiCKc7WuRTsAjiE9iopyWiz40MpG92yoG3zV9g28bzTtf5FS+C+EU2wnkZ9mWjueX3ukFglTruAnC5m7V+rBFB/KAa2Zz8EoMGRnOZITcIuNQet0H/EaQfy4kgbiYpa/6EAAEvA/yVXx9Bd229IeP6mlJWqX0QoN4g4RVBgjSN8NWyjcEP2bvpro23ZTx90cuTna02lyuvHm8OEgYRJEjTCEEtDBSJ+Bm26RknX/zVaq080XE3ES6rFVfv50UQ34jTbgBTAG+v3GSSGFMg9nwBAN/KPUxiBr3K4FdAtN1m65XfHmFu9/IWaqbaeTJ5tc38xXr2prqXCKJKSimOfgzmJxh4XOe/rkpbhzSIJ5Pvt5kfD2r5Ioieydxtgx7dkEv/i5500cjCE8n32MRaLs7mFzERxBvZuwHcXchlNnlLE73V1kTyJhBrvUi0HxRFEBdUCRhi4BYRwwU8ANZkxz1gfNTd6vquEkEc8ibQvSO5dOD+2uKwjYaE82Ryns1cuaRsT0MKcLGpCOIAGjPfPDrY8zkHSyQUwO+3nHHSrFmxy8H8KQAtYYIigihOiwzjzJGbL3hGMVzCKveiqZw6YtCFsFER441hhCKCKE2NLy3keu5XCo14EE92LLWBpQQsZUYy7DhEkFoTZNxaGMx8plaYm+crp1dMT0+3GobRapr2CWU7WKdZ1OrJAI4FYTaBZjNQuSLm7Fprwva8CFJ9YoVjXvvlsqfu/IfKt+KeH3u2tCdNk5Yy7fsX1nNCSeA7ARGkOuKzCrmMpy+y+OedR9o7yyvBqFyUu+YVBX2fuGzgiIAIMgMuBh4czWU83aeOt3VcwjZWMjDP0VQkODAERJDDj2IX2O4sDC53dadT/tH8M9gybmLA8e+xA3NkSCF7CYgghzkQGDwwmutxdRoET7afbYMeBuPP5BgLPwER5HAzJDteGFheuVawo4c10f5xEH3N0SIJDjQBEeTQ8RB9rzCQXuZ0avZk8klmPtvpOokPNgER5JD5MPE1owM9X3AytnKp/XECvd/JGokNBwER5FBBbKt1dPWK7arjm55o/6JBdLVqvMSFi4AI8ifzovWFXHqJ6gh5suMym1H5TYg8mpSAQUhSvFj00p7n+4ME5eLVBFozkktfpAKDf3T6m20rVrkKR9W7tarkkpjgEjDACUqMT3qpsGkEqfwIajSXUbouk1VK9gI86AWcrA0+AcO2T6BTN73ipdKmEQSMlYXBzB21YOw9feS1vddwklNHasEK+fPG7t2vp3mbK3c/c/3wLEhnX/40k7DZdQWaFpKN9MjqzLpa6azJjsvBqFxDVh7NTeBVM1H0fCE7z4Ik+x87voXLrzaetbWkkFtR84aN9mTyeWZe0Ph6pQJfCRDuMePFj3ndw7MglQK6svnd1PCfY9YWZM8P5y8wzeBcnt/r8GT9zASY+JxYfPw7XhnpEuQnBLzVazHe1tcWZHqi/XqD6Dpv+8jqEBD4qZkovk1HnboE2UBAp46C3OeoLYhV6vgJGi6y+w5lpRoBZv5yrG38CrXo6lFaBEn1D98I5mt1FOQ+R3VBpifaFxtEcrNR94DDsnKPQZSk+Jirnzsc2qQWQbr7h7qYSfk2wf6Qri5IudRxIQEP+bO3ZA0MAaLbzPiYttOHtAhSgZPK5n/e2B/+VxeES+3X2KDVgRmkFOIHgd9Ml60Fr5vz4su6kmsTpCubf4CAS3QV5jxPdUGsUsftAK50nldWhIaAgRvNU4r/qLNefYL0D51NTE/qLM5ZruqC2KXkMIMvcJZTosNCgIBvUvyt5xENWzpr1ibI3rdZ/cNDYM7oLFA9Vy1BOp5lYLF6PokMCwEievn/du7pOO707/+v7pq1CrKo79FFNln/rrtItXwiiBqn5osyTONEOvmFX/jRmVZB9n1YH74P4I/4UWz1nCJI/Zk3fkfDNDrp5Bee96sS7YJ0r1o3l237KQAn+FX04fOKIPXl3fDddhhE3bq+75ipG+2C7H8VSQOcry9CEaS+vBu3GwPjpml8wK+3VQd35osglQ26skOfINBX64dRBKkf6wbuRLjHOCp2JZ24cVc9qvBNkH2vJPnKDWs+X49GABGkPpwbtAvRIwbbd1FifLSeFfgqyD5JHlkMmHU4B0oEqeeBU6e9ygQ8RUx3UdtYQ26A5LsgeyXpX3sK2PwngH38HkIEqdNB6/c2r4LwBDM/Y+5ueY7mbfiV3xtWy18XQfZ+Jum97xjDOPZWBvt0h9TmEMRmvuFwAzMqF2MGcOD/VQ8alXiVGNX9nMYRaAoGT5kwpgBriuKbAvDr1D92UTdBDmyZyq5bBtgrAZzjFGb1+OYQxGDzbdT2/E/1spFsbgnUXZA/iNKf/yBsfBqk6154zSEIMz4cays+6Hagsk4vgYYJcqCNhf35TsPmyrVx3weiNvftNYkg4CdiifEPuOcgK3USaLggBzezcNXaOWbZSDChtfI/A3QCK1/9sHxDtaua2KXwnKxoEC2i+NiIzkFLLncEAiWIuxbUVoVJEIDvMxPjPv0xQ42XRO0jIIIE9UggvtqMj98W1PKiUpcIEuBJG4TlFC8OBbjEpi9NBAn+iF8F+FmbsVVHqV6/8ziwflbb+PU66gl6DhEk6BMKYH0ErDcSReV7sQSwBeWSRBBlVBJ4gIAI0oTHQrj+ihXsAYggwZ6Pq+pEEFfYDrtIBNHHMjCZRBB9oxBB9LEMTCYRRN8oRBB9LAOTSQTRNwoRRB/LwGQSQfSNQgTRxzIwmUQQfaMQQfSxDEwmEUTfKEQQfSwDkynagtDvGLyZgDGAjgfseQDNdTscEcQtuQCvi6ogDDw6vYd7j5w7/uODx1MutZ9LoHsA/LnTsYkgTomFID6KglQuAFHtpMI9WzreYc7Ct8CY7WSEIogTWiGJjaAgkzv2/L7zDXN/8D/VRmRt6/gsbNziZIwiiBNaIYm1Sh2V+xNeGJJydZR5uZko1rz065Ytp7a0xY7eCOAMB5uuMRPFixzEhzY0MmfzTpeSqw3wNaGdlMPCDXCCEuOTKsusyeTXwXyxSmwlxgbdMisx1qsaH+a4yAhilToq9yes3KcwCo9dZqJ4lGqj0xPt1xtE16nGA1hpJop3OIgPbWhkBCmX2i8g0HBoJ+WgcAJtNhJj81SXlEvJNDm4XQWD07HE+DrV/GGOi4wgPDk/YbMxEeZhOah9i5konqYaX57ouIQID6jGG6bxN3TyC1p+Aqy6Z6PiIiPI3vfOkx0bmfHORsGu477Txu/so6l907TKnuVS+1cJ9AmVWAAvmYniOxRjQx8WKUGsbckrYPOXQj81hQasMk5vmVP8vkIoyqX2cQLNV4mt9d2KSo4wxURKEH658yS7XP5RmAbktlYGfy2WGP9krfVO/9GI0turCrtICbL/bda3mPHeWgdOMzzPwEWxRHHNTL04/esVEb5txIvvawY2qj1ETpDyRMd5RHhUFVDY4wj4Fhl0N9h6GS3H/BTlXW+3LO6s3KqbgIVO+mPG+bG24mNO1oQ9NnKC7H0VCdGFrINygEXp9JKDmUdSkPJk8mJi/npQDr4w1MFEH4rFx74Rhlp11hhJQfa/ihQZaNcJs1lzETBuJIodzdpftb4iKwiXFixh2E8xcEQUB6/cM2OnxXZ3y6mbXlRe00SBkRWkMkOeTF5sy1utqoezYeBv6ZTic010zDtqJdKCVEhZk8mrwHyrI2oRCY7iX60OHW3kBdkryUT7p0F0Z0SOe8U2qc9MjK1WDG7aMBFk/2h5sqPDZqwHoHyaeJMeFXuYsSJq33fMNEsR5CAyO7fMf0tLzLibgPc06cFftS0mPG+x9fEjEi9ujmL/h+tZBDmECm85tcU2j74ehJUAjozIgbILjNuN18dupBM37opIz0ptiiAzYNozmZxn2LySCJcokQxpEDMetA26vSU+9lJIW/C1bBGkBt7pUseZlZtpgvEuACf6Oo06JSfgxwxab4OHZyWKT9dp21BuI4I4GBtPJDtt4qUELGWgFYxWUMA/1DN2gjBFwBQznjRi9r/RydH80s/BqP8QKoK4oXbQGt582nF7Yke0GoQ3eUyldbnNeLWlvHuKalwXS+umTZhMBGnCoUpL+giIIPpYSqYmJCCCNOFQpSV9BEQQfSwlUxMSEEGacKjSkj4CIog+lpKpCQmIIE04VGlJHwERRB9LydSEBESQJhyqtKSPgAiij6VkakICIkgTDlVa0kdABNHHUjI1IQERpAmHKi3pIyCC6GMpmZqQgAjShEOVlvQREEH0sZRMTUjg/wFkZ1FBjkFxOAAAAABJRU5ErkJggg==;" parent="LJRTIB5_bISj4pEXZQDT-0" vertex="1">
          <mxGeometry x="300" y="25" width="200" height="200" as="geometry" />
        </mxCell>
      </root>
    </mxGraphModel>
  </diagram>
  <diagram id="0cvo3odzx-gmJuq5Av2e" name="DrawIO">
    <mxGraphModel dx="946" dy="646" grid="1" gridSize="10" guides="1" tooltips="1" connect="1" arrows="1" fold="1" page="1" pageScale="1" pageWidth="827" pageHeight="1169" math="0" shadow="0">
      <root>
        <mxCell id="gUXft_UfUMmgh48ima2t-0" />
        <mxCell id="gUXft_UfUMmgh48ima2t-1" parent="gUXft_UfUMmgh48ima2t-0" />
        <mxCell id="gUXft_UfUMmgh48ima2t-2" value="" style="rounded=0;whiteSpace=wrap;html=1;strokeColor=none;" vertex="1" parent="gUXft_UfUMmgh48ima2t-1">
          <mxGeometry x="70" y="50" width="500" height="200" as="geometry" />
        </mxCell>
        <mxCell id="gUXft_UfUMmgh48ima2t-3" value="" style="shape=image;verticalLabelPosition=bottom;labelBackgroundColor=#ffffff;verticalAlign=top;aspect=fixed;imageAspect=0;image=data:image/png,iVBORw0KGgoAAAANSUhEUgAAAXAAAAJKCAYAAAA1EB5pAAAgAElEQVR4Ae2d268VRb7H+Qd45YknHnjggQcSEhJCQkgIIYQQQiTGSDASjE7QHM5EQMNRHJEZEC9xUNARiDARoiLXQAiCihBguATkIhlQUEAFud/vdfJds6rm17W712W7XLt7rU8lnb5VVVd/qvena1VX9+52/fp1d+3aNXf37l1HgAAEIACBfBOQq+Xs6zduuG5Xr11z9+7dy3eJKR0EIAABCAQCcvbVq1ddtzt37oSNLEAAAhCAQDEI3Ll713UrRlEpJQQgAAEIxAQQeEyEdQhAAAIFIYDAC1JRFBMCEIBATACBx0RYhwAEIFAQAgi8IBVFMSEAAQjEBBB4TIR1CEAAAgUhgMALUlEUEwIQgEBMAIHHRFiHAAQgUBACCLwgFUUxIQABCMQEEHhMhHUIQAACBSGAwAtSURQTAhCAQEwAgcdEWIcABCBQEAIIvCAVRTEhAAEIxAQQeEyEdQhAAAIFIYDAC1JRFBMCEIBATACBx0RYhwAEIFAQAgi8IBVFMSEAAQjEBBB4TIR1CEAAAgUhgMALUlEUEwIQgEBMAIHHRFiHAAQgUBACCLwgFUUxIQABCMQEEHhMhHUIQAACBSGAwMsV9eDBA7d69Wq3cuXKzGnt2rVu//797sqVK5nV+/XXX4f0v/32W2Y8v+POnTsh/r59+/zm1Pn9+/fd1q1b3dSpU93YsWPdoEGD3KhRo9zkyZPdO++8406fPp2ajo0QgEBrEkDg5Xq9ePGi69atW83TiBEj3PHjxztcFb179w55PPLIIx32xxvscZ9++ul4d1j/4YcfXN++fUPeWWWdMGGCO3XqVEjHAgQg0LoEEHi5bq1Is+SYtv3IkSOJq8MKXPE///zzxP54xR43S+CbNm1y3bt3T8hb68OHD3dDhgxxPXr0SOzr1auX++WXX+JDsQ4BCLQYAQRerlAr0oEDB7pz584lpjNnzrjdu3e79957LyFMdWM8fPgwXBaxwCVX5Z0V7HHTBL5hw4aEnB999FH37bffOnWn+KDun/Xr1yda6Gqt37x500dhDgEItCABBF6uVCtStWorBXVR2BbxyZMnQ/RY4GqFq1sjK9jjxgKXpPv06RMErr5uyTorXLhwISFx9ecTIACB1iWAwMt1a0VaTeBK8uyzzwaxqovDBy/wnj17Or8sids4Pq7m9rixwJcvXx6OMXLkSJssc3nLli0hjR50EiAAgdYlgMDLdWtFWovAZ8+eHUS5dOnScIV4aWu+Y8eOEEdCv3btWojnF+xxY4H7vHQD0OiTWoJa7YMHDy61xDW33Tu1pCcOBCBQHAIIvFxXVqS1CHzixIlBzl999VWocS9dzRXU7SEBa9JyHOxxrcAvX74c0vXr1y9OxjoEIAABh8DLF4EVaTWBHzp0KMhVYtYDTh9igavVrda3l7ha5TbY41qBa0y4TzNp0iSbhGUIQAACJQIIvHwhWJHqwaFGnNhp586dpRduXnzxxSBWCXb06NGJSykWuHZ+8cUXIY3237p1K6Sxx7UC/+yzz0KauXPnhvh2QQ9P16xZkznpxaPbt2/bJCxDAAItRACBlyvTitS3fKvNNRLlp59+SlwOaQJXBNvl8vLLL4c09rhW4JK2P77tYw8JnXOLFi0KcXzceL5r1y6bhGUIQKCFCCDwcmVakcYSjNclbslWw/bikCVw5W9fuDlw4EApqT2uFfiSJUuCnOfMmRMfprQuscdli9cReCo6NkKgJQgg8HI1WpHqoaH6oONJ30HRCz6VQpbAlUbfWvGC1THu3buXOYxQ3Tc+btY4cqXXG5fxNGPGjJAWgVeqLfZBoNgEEHi5/qzAqz3ErFTllQSudHqT0ov59ddfzxT41atXQzy9Gi9Z1xqef/75kBaB10qNeBAoHgEEXq6zZgn87Nmzibc47Vhx24WiYqmV7mWf1Q8eX3ISvf3oFQKPCbEOgdYhgMDLddksgetwH3/8cRCzb7FL1LHAN2/eHOKpFZ72IlB8Kc6fPz+kUZ4IPCbEOgRahwACL9dlMwWuQ+pztL517eexwBVvzJgxIZ5a1idOnMi8+j799NMQ1+dpBX79+vXSG516q1NT3C1z+PDhsD/+VK7Guvt0e/fuzSwDOyAAgeYRQOBl1s0WuD6I5SXr52kC11hv+yKQRsDMnDmz9G2V8+fPu2PHjrlVq1Yl+tZ9fppbgR88eDBxTJ2zDfp2ik87ZcoUu8vZlj1vhibQsAKBLiOAwMvomy1wHfaDDz4IwpQ40wSueCqbXhjycq00l+Bt1wsC77K/LQ4MgT+cAAIvI+4KgevTsPrglBfyc889l1nh+iiVWsH6VrmPb+caY65vrahVrtC/f/9SPCvwo0ePJtJqpIsN48aNC/unT59ud7mFCxeGfQMGDEjsYwUCEOgaAgi8a7j/rqPevXu39L859b3vjRs38t93fhdNEkOguAQQeHHrjpJDAAJtTgCBt/kFwOlDAALFJYDAi1t3lBwCEGhzAgi8zS8ATh8CECguAQRe3Lqj5BCAQJsTQOBtfgFw+hCAQHEJIPDi1h0lhwAE2pwAAm/zC4DThwAEiksAgRe37ig5BCDQ5gQQeJtfAJw+BCBQXAIIvLh1R8khAIE2J4DA2/wC4PQhAIHiEkDgxa07Sg4BCLQ5AQTe5hcApw8BCBSXAAIvbt1RcghAoM0JIPA2vwA4fQhAoLgEEHhx646SQwACbU4Agbf5BcDpQwACxSWAwItbd5QcAhBocwIIvM0vAE4fAhAoLgEEXty6o+QQgECbE0DgbX4BcPoQgEBxCSDw4tYdJYcABNqcAAJv8wuA04cABIpLAIEXt+4oOQQg0OYEEHibXwCcPgQgUFwCCLy4dUfJIQCBNieAwNv8AuD0IQCB4hJA4MWtO0oOAQi0OQEE3uYXAKcPAQgUlwACL27dUXIIQKDNCSDwNr8AOH0IQKC4BBB4ceuOkkMAAm1OAIG3+QXA6UMAAsUlgMCLW3eUHAIQaHMCCLzNLwBOHwIQKC4BBF7cuqPkEIBAmxNA4G1+AXD6EIBAcQkg8OLWHSWHAATanAACr/ECWLdunVu5cqVbv359IsX58+dL27Uva9qwYYM7evSou337diKtX3nw4IFbvXp1ZvqsfH/66SefRYf5/fv33datW93UqVPd2LFj3aBBg9yoUaPc5MmT3TvvvONOnz7dIQ0bIACBYhFA4DXWV/fu3V23bt1cjx49Eikkdm2vdfrzn//srly5ksjj4sWLNae3x1m2bFkiH7/yww8/uL59+1bNc8KECe7UqVM+GXMIQKBgBBB4jRXWKIFLwL1793Y3b94MR26kwDdt2uR8Wb3stT58+HA3ZMiQ0g3Ib9e8V69e7pdffgllYQECECgOAQReY115KVZqgU+bNs2dO3cuMZ08edJt377dvfDCC4kW8YwZM8KRrcAHDhyYSB/nZ9dv3boV8tCCumqsnB999FH37bffOnWn+KDuGnUD2Ra6lu0NxcdlDgEI5JsAAq+xfmoR+MyZMyvmZrtbevbsGeJagauV3JkgSffp0ycIXH3dknVWuHDhQkLi6mcnQAACxSKAwGusr0YIXIdS94lvJd+4caN09EYIfPny5SHfkSNH1nRWW7ZsCWn0oJMAAQgUiwACr7G+GiXwYcOGBWnqYaNCIwRubwwafVJLUKt98ODBpZa45g8fPqwlGXEgAIGcEEDgNVZEowSurhPfAvfDCn+vwC9fvhzy7NevX41nRDQIQKDoBBB4jTXYCIEvWrQoiFajP3ywAlc/9rFjx6pOv/76q0/u9u3bF/KdNGlS2M4CBCDQ2gQQeI31W4vAn3zySbd79+7EtG3bNqf+6XHjxgXJqgX+97//PRzZCty3zqvNn3jiiZD+s88+C3nPnTs3bLcLGg2zZs2azGnt2rWZLxrZfFiGAATyQwCB11gXtQi8mnT9fg0VvHfvXjjy7xW4pO3zXrp0acjXLtjWv48bz3ft2mWTsAwBCOScAAKvsYIaIXCNIX/zzTfd3bt3E0e1AteYbI0OqTapRe3DkiVLgsDnzJnjNyfmEnss7HgdgSeQsQKB3BNA4DVWUS0C/9Of/lTqj1aftJ0OHjzorl27lnkkK/DOjANXt42XsV6PTwtq8euNy3jSC0U+LQJPI8c2COSXAAJ3zukFmylTppQmPUBMC7UIvNqLPGn5atvvFfjVq1eDhPVw1HbPZB3Tb3/++edDWgTuqTCHQDEIIHDnSl/s861QfUskLeRZ4Cqvhg/6c8jqB4/PS6K3r9Qj8JgQ6xDINwEE7lypX7qS/PQpWL9fw/xssK/Hd1ULXOXZvHlzKKNa4ZW6bHz558+fH9Lo/BC4J8McAsUggMCdcxpC5wX9yCOPdKi5Dz74IOyPX1PPi8BV6DFjxoRyqmV94sSJDufiN3z66achrj93K/Dr16+Xvieutzo1xd0y+kCX36dvottw5syZsG/v3r12F8sQgEADCSBw55xeivES0/zll18uye/SpUtOXSoaPeL3S+Y2NFrgOpZaxrVMBw4csEVxGpli3/RUt49+FegcJFn1769atcrpK4X+fOzcClwPXu0+9dPb4LuUFEcMbLAte94MtWRYhkBjCSDwMs958+YlhGXl5ZfVqo1boo0WuD9WLXOVOQ4S7ejRo6uei/KXhG3XCwKPabIOgXwTQODl+tGnVz/66KMO/wzBi/Tpp592Gu0Rh64U+Pvvvx8Xp7Suj1KpFawXhnz57VytfH1u1nd99O/fvxTPCtz2+yttfO72V8nGjRsT5Vi4cGE47oABAxL7WIEABBpHAIFHLPWJ1/379zu9nv7xxx+XXouP/wValCTXq3ppSOej731LtPz3nVxXF4WDQF0EEHhduIgMAQhAID8EEHh+6oKSQAACEKiLAAKvCxeRIQABCOSHAALPT11QEghAAAJ1EUDgdeEiMgQgAIH8EEDg+akLSgIBCECgLgIIvC5cRIYABCCQHwIIPD91QUkgAAEI1EUAgdeFi8gQgAAE8kMAgeenLigJBCAAgboIIPC6cBEZAhCAQH4IIPD81AUlgQAEIFAXAQReFy4iQwACEMgPAQSen7qgJBCAAATqIoDA68JFZAhAAAL5IYDA81MXlAQCEIBAXQQQeF24iAwBCEAgPwQQeH7qgpJAAAIQqIsAAq8LF5EhAAEI5IcAAs9PXVASCEAAAnURQOB14SIyBCAAgfwQQOD5qQtKAgEIQKAuAgi8LlxEhgAEIJAfAgg8P3VBSSAAAQjURQCB14WLyBCAAATyQwCB56cuKAkEIACBuggg8LpwERkCEIBAfggg8PzUBSWBAAQgUBcBBF4XLiJDAAIQyA8BBJ6fuqAkEIAABOoigMDrwkVkCEAAAvkhgMDzUxeUBAIQgEBdBBB4XbiIDAEIQCA/BBB4fuqCkkAAAhCoiwACrwsXkSEAAQjkhwACz09dUBIIQAACdRFA4HXhIjIEIACB/BBA4PmpC0oCAQhAoC4CCLwuXESGAAQgkB8CCDylLu7fv+/Wrl3rXnjhBTd27Fg3aNCg0lzrn332mbt3716HVBs2bHArV64sTVeuXOmwP23D+fPnQ5r9+/enRXEqy9atW93UqVNDWUaNGuUmT57s3nnnHXf69OnUdGyEAARanwACj+p4zZo1rnfv3q5bt26Zk/avW7cukXL06NEh/kcffZTYl7XyxhtvhDQvvvhih2g//PCD69u3b4iTVaYJEya4U6dOdUjPBghAoLUJIHBTvxs3bkzIsnv37m7YsGHukUcecf3790/sk0x37NgRUn/yySdh/4gRI8L2Sgs2zwMHDiSibtq0yen4VtpaHz58uBsyZIjr0aNHYl+vXr3cL7/8ksiDFQhAoLUJIPBy/V67di0hxDfffNPdvHkzUftq5T7++OMhniR648aNUpzr16+H7ZLuxYsXE2njle+//z7E79OnT2K3umOsuB999FH37bfflrpTfMQHDx649evXJ1roaq3HZfbxmUMAAq1HAIGX63TLli1Bms8880xmTav/e+jQoSHutm3bQtzx48eH7UuXLg3b0xZs98nrr78eoqjPW0L3Aldft2SdFS5cuJCQuPrhCRCAQHsQQODlen7ttdeCND/++OOKtS9JesFKxD7YlrMeNFYKtvvkxx9/DFGXL18e8h45cmTYXmnB3nz00JUAAQi0BwEEXq5n2yJWq7dSuHTpkpPwZ8yY4VatWhWi3r17N9Fvffny5bDPLujhpL8BaISLDfYBqkaf1BLUah88eHCpJa75w4cPa0lGHAhAoOAEEHi5AvVA0ktV81dffbVT/cnPPvtsyGfZsmWpl4f61/2xPvzwwxBHwvfb+/XrF7azAAEIQCCNAAIvU1HrWa1XL1A/HzNmjFuwYIHbt2+fU5xqYfv27SEPDS1MC7b7RH3YPugY/riTJk3ym5lDAAIQSCWAwA0WjURR37WXaNpcQtc471u3bpmU/13UA8eePXuGPOKXemz3SSx4vSTkjzl37tz/ZmqWTp486TRWPWvSC0i3b982KViEAARalQACT6lZDdn7n//5H6ex1V6o8VxDCLMedk6fPj2k0/hwG2z3yYoVK+wuJ2n742SNYlm0aFGI4+PG8127diXyZQUCEGhNAgi8Sr1q7LdE+/zzz6cKXaNG4qCXcrxU9RKQDbb7xI8h9/uXLFkS0s2ZM8dvTswldp931hyBJ5CxAoGWJYDA66xa9VNbCUuiaV0Wdiy3umYUTpw4EeSr19/jsHv37or7FV/j0PXGZTxpRIwXOgKPybIOgdYkgMCdc/qo1JQpU0rT559/XrWm9TDTClrijcPs2bODUNW3rfDWW2+FbZs3b46TuKtXr4b96r5J+2hWh0TlDfqFgMCz6LAdAq1JAIE75+7cuRPkF4/Lzqr2l156KaRZvHhxh2j2VXm9Cq/gW+7qP8+Ss4YPehFn9YPHB1Ne9qNXtMBjQqxDoDUJIPByvQ4YMCCI88yZM1Vre+LEiSG+hg6mhYEDB4Y4Bw8eDMtq7WcFtcy9wNUK990vWfG1ff78+SGN0iLwSrTYB4HWIYDAy3Wp7217caoVXEmcR44cSbxxqRZ8WrBitS3rvXv3pkUP2zRU0ZdFLWv1nWeFTz/9NMT1aazA9ZEtvdHpp7jlf/jw4bDv+PHjicPoRubTVStzIiErEIBAUwgg8DJmjde2/drq5tBHptRy1j4JXeL+29/+lpD3//7v/2ZW1K+//tpBrnpVvlrQWG87llyfkZ05c6bTJ2bVX3/s2LHSK/zqmvHStnMrcNvyV5z4K4n6dopPG/8yiG9A1crNfghAoLkEELjhrRaoxO2FVm3+1FNPVfxSoLLW97ttPrNmzTJHzF6UaO0/ibB5xMsSvO16QeDZXNkDgVYigMCj2tTY7Hnz5lUUuT4nq9Eq+ohUtRCP2467KSql10ep1Aq2felW3rrZ6MNbapUr+IekVuBHjx5N3EA00sWGcePGhf16AcmGhQsXhn16RkCAAATyRQCBZ9SH+or1mVf1AevzsXqjUg8ra3nAmZHl79qsoYv6v5kqi/5zEP9953fhJDEEWoIAAm+JauQkIACBdiSAwNux1jlnCECgJQgg8JaoRk4CAhBoRwIIvB1rnXOGAARaggACb4lq5CQgAIF2JIDA27HWOWcIQKAlCCDwlqhGTgICEGhHAgi8HWudc4YABFqCAAJviWrkJCAAgXYkgMDbsdY5ZwhAoCUIIPCWqEZOAgIQaEcCCLwda51zhgAEWoIAAm+JauQkIACBdiSAwNux1jlnCECgJQgg8JaoRk4CAhBoRwIIvB1rnXOGAARaggACb4lq5CQgAIF2JIDA27HWOWcIQKAlCCDwlqhGTgICEGhHAgi8HWudc4YABFqCAAJviWrkJCAAgXYkgMDbsdY5ZwhAoCUIIPCWqEZOAgIQaEcCCLwda51zhgAEWoIAAm+JauQkIACBdiSQKvA9e/Y4JhhwDXANcA3k5xpIu0EhcG5W3Ky5BrgGCnAN1CzwtIhsgwAEIACBfBFIbYHnq4iUBgIQgAAE0ggg8DQqbIMABCBQAAIIvACVRBEhAAEIpBFA4GlU2AYBCECgAAQQeAEqiSJCAAIQSCOAwNOosA0CEIBAAQgg8AJUEkWEAAQgkEYAgadRYRsEIACBAhBA4AWoJIoIAQhAII0AAk+jwjYIQAACBSCAwAtQSRQRAhCAQBoBBJ5GhW0QgAAECkAAgRegkigiBCAAgTQCCDyNCtsgAAEIFIAAAi9AJVFECEAAAmkEEHgaFbZBAAIQKAABBF6ASqKIEIAABNIIIPA0KmyDAAQgUAACCLwAlUQRIQABCKQRQOBpVNgGAQhAoAAEEHgBKokiQgACEEgjgMDTqLANAhCAQAEIIPACVBJFhAAEIJBGAIGXqTx48MCtXr3arVy5MnNau3at279/v7ty5Uoay9K2bdu2Zab/6quv3E8//eTu37+fmd7vqKU8cVm3b9/ukzOHAATagAACL1fyxYsXXbdu3WqeRowY4Y4fP97hEunXr19NefTp08ctWLDA3bt3r0Me2lBveVR2lYkAAQi0DwEEXq7rzghT0jxy5EjiaqlV4P5m0bdvX7d169ZEHlrpTHkQeAeMbIBASxNA4OXqtcIcOHCgO3fuXGI6c+aM2717t3vvvfdcjx49Qit70KBB7uHDh+EisQL/+eefQx5nz551hw8fditWrHCvvvpqIg/JXPtsqFaeuHxav3Tpks2CZQhAoMUJIPByBVthDhkypGK1nzp1ynXv3j1I/OTJkyG+FXhW94giS7hqMfuWuG4a6vf2oZ7y+DTMIQCB9iKAwMv1Xa8wn3322SDfTZs2haumVoErgQTfq1evkM/ixYtDPvWWJyRkAQIQaBsCCLxc1fUKc/bs2UG8S5cuDRdMPQJXIknbt8Ife+yxkE+95QkJWYAABNqGAAIvV3W9wpw4cWIQr4YH+lCvwG/fvh3y0QNNH+otj0/HHAIQaB8CCLxc1/UI89ChQ0G6aj3rAacP9Qpc6Xr27Bny8/3gtjwacnjs2LGK040bN3wRmEMAAm1CAIGXKzoWpkac2Gnnzp2lF3RefPHFIFvJe/To0YlLpTMC10gW341y+vTpUn62PH5fpfnf/va3RDlYgQAEWp8AAi/Xcb3ClEw1EkVvVtrQGYEPHz48CFzDDRXqLc+sWbNsMViGAATagAACL1dyPcKUuJ9++ml34cKFDpdIZwTeu3fvIHA/ptyWR33jW7ZsqTidOHGiQ1nYAAEItDYBBF6uXytMSXjfvn0dJn0HReO3K4V6BS5h+64R9XX7YMtTbVy6T8McAhBoLwIIvFzfjRJmvQLftWtXEPjIkSPD1deo8oQMWYAABFqOAAIvV2mjhFmvwDX227fA58yZEy6wRpUnZMgCBCDQcgQQeLlKGyXMegS+Zs2aIG/1q1+7di1cYI0qT8iQBQhAoOUIIPBylTZKmLUI/O7du+79998P8lYL/N13301cXPWWRx/D0lcNNcWfudU4db9v7969ieNoRd8R9/vPnz/fYT8bIACBfBJA4OV6qVeYWdVpBT5v3jw3f/78ML311lul0Sv2xR3Je9SoUU5vZNpQb3nGjh0bbghTpkyxWZWO77tpVL442A9zrVu3Lt7NOgQgkFMCCLxcMfUKM6s+rcC9NLPmEueSJUtSs6q3PAg8FSMbIdDSBBB4uXrrFWbWVVFJ4PqO+NChQ93kyZNLXSj+rcu0vOotz7hx40ILfPr06YksFy5cGPYNGDAgsU8r9vvmGzdu7LCfDRCAQD4JIPB81gulggAEIFCVAAKviogIEIAABPJJAIHns14oFQQgAIGqBBB4VUREgAAEIJBPAgg8n/VCqSAAAQhUJYDAqyIiAgQgAIF8EkDg+awXSgUBCECgKgEEXhURESAAAQjkkwACz2e9UCoIQAACVQkg8KqIiAABCEAgnwQQeD7rhVJBAAIQqEoAgVdFRAQIQAAC+SSAwPNZL5QKAhCAQFUCCLwqIiJAAAIQyCcBBJ7PeqFUEIAABKoSQOBVEREBAhCAQD4JIPB81gulggAEIFCVAAKviogIEIAABPJJAIHns14oFQQgAIGqBBB4VUREgAAEIJBPAgg8n/VCqSAAAQhUJYDAqyIiAgQgAIF8EkDg+awXSgUBCECgKgEEXhURESAAAQjkkwACz2e9UCoIQAACVQkg8KqIiAABCEAgnwQQeD7rhVJBAAIQqEoAgVdFRAQIQAAC+SSAwPNZL5QKAhCAQFUCCLwqIiJAAAIQyCcBBJ7PeqFUEIAABKoSQOBVEREBAhCAQD4JIPB81gulggAEIFCVAAKviogIEIAABPJJAIHns14oFQQgAIGqBBB4VUREgAAEIJBPAgg8n/VCqSAAAQhUJYDAqyIiAgQgAIF8EkDg+awXSgUBCECgKgEEXhURESAAAQjkk0DbC/z69etu5cqVpWndunU119LRo0dDutOnT3dIt2fPHveXv/zFPfHEE27w4MFu1KhRbvLkye799993V65c6RDfb7D5+nL5+caNG92///1vd/v2bR89dX7w4MFQtg0bNqTGiTeuX78+pKlUvjid1m/evOlGjBjhBgwY4H744Qf366+/hrwuXbqUlqQw2959993Seb3xxhuFKTMFbR8CbS/wO3fuuO7du7tu3bqVpuPHj9dU+xKWTyOx+nD48GE3ZMiQsM/HsXMdb86cOe7hw4c+WZhPmTKlYlqfT69evdzzzz/v0gS5b9++RB5r164N+actLFu2LMTv2bNnxRtMWvqXXnqplH7gwIGl3Z988knIb//+/WlJ/rBtp06dcrp5ampEOHHiRDiX77//vhFZkgcEGkag7QUukpMmTQp/pLW0tC5evBjiS8b37t0rVciPP/7oevToEfZJtoMGDXJjx44ttcLtjUL70o5Vq8C9yJXnwoUL3YMHDxIXxcyZM0M5VKasVvUvv/ySuIF9+eWXiR68AQcAACAASURBVHyqrXz77bfhODt27ChF70qBT506NZQn7QZZ7XzS9j/33HOlPEePHp22m20Q6DICCNw5980334Q/+v79+1etjCVLloT46hbxQV0lXqzjxo1z586d87tKc3XXzJ49O8RR3L179ybiWIGvXr26lIfy0aTuCXWJvPnmm07l9MfSXBK34e7du65fv34hjiSUFiQln489l7S4adtGjhxZSq+5D60m8J9//jkw8jcpf67MIdCVBBC4c6XWq20562dzpWC7T3bu3FmKeuPGjfBH3rt379AqT8vnlVdeCXFnzZqViGIFvnXr1sQ+uyJBv/DCCyEftcTV92yDunO8nDWP5WO7TtQlo3OoJ6i7yee/atWqkLTVBK4T8ze6Rx99NJwnCxDoagIIvFwDVoZvv/12Zr3Y7hNJz/9M37ZtW5DZU089lZleO9Sa9uLTzcCGWgXu0+hYPi89MI3D3Llzw/4+ffqEB6Bx10ks9ziftHXfXaGbx61bt0KUNIFfu3atdAP55z//6Xbt2lV68BkSVFk4e/as03OGzz77zKU9MFbyCxcuuN9++809++yz4XyVTtsuX76ceoSTJ0+6LVu2OJVJN7NNmzY51W9a0LE9Z3WVESCQBwIIvFwLetjm/0A1miIrLF26NMRTS9qHf/3rX2G7RFktaHTDjBkz3FtvvZWIWq/ANSrFl1sijYP65/Vw0cdR37iCb1Fq+4svvhgnq7quG5eOp/QTJkxIxLcCV/eUngH449u5ul3Onz+fSGtX9DBWLG0aLevG+frrr9uoHZ492DTDhg1LxN29e7fTNhvHLutGGI/0sb+w/vrXvybyYwUCXUUAgRvy6vrwf8g//fST2fPfRd/nq3ga8ueDujR8Ws31U1t9p/WGegWu/O2ol7QWpJW8yiZh+7LaVnk9ZbXdM/HDWCtwf5ysuUa9KK84fPjhh6GMWWmnT58ektkusDi+FbgeuvobTxzPrj/55JMhb7/gb4R61kGAQB4IIHBTC2pZ+T/iefPmmT3/WbTdJ3pAGIf/+7//C+l9Pvpj14PLr7/+2qkboVrojMAnTpwYjqvWZVrQ+fgy2blauZ0JH3zwQchP3Qs2xAKXMNVFoe4MDdtUGe0DXz/80OdhbzgSs8bnqwWsVrFGydgb7UcffVRKJjHrXMaPHx/KpQfE2nbmzBmftRs+fHjYr18jBw4cKD2vuH//fukBsZe75vHIHj3k9exqqctwUBYg8AcRQOAG7LFjx8IfaCwVRbPdJ3//+99Nyv8uvvzyyyEP/8du5xKXfv6rfzYtdEbg9qHo8uXL07ItychKU2V69dVXU+PWslHdJv684ptGLPC0m4RkPHTo0JCHXiTywT4kTht7rf5u3+KOb6S+X15l888nfL72V5JGCaUFter9ecUPs3Wz8Pt0QyZAoKsJIPCoBtT/7f9I4wdmtvukUveIHhC+9tprpTf4fF5pc3Vl+DHkvhidEbheCvL5f/755z6rDnPb76346ofvbLCSjW9GVuBqEWcFPTj15fZC1QNHv00sssJ7770X4tkbRCWB6xeURv1o8qOH4vzVdeKPrxu6DXqQ6vfpHAkQ6GoCCDyqAUnN/5FKEj7Y7hPbp+r3Z831pqRGN6i16/tQff6a6yUiGzojcP+iifLLegPRStUev9Y3T20ZtWzHmMctXXusap8n8C1pP/5eI1R8+fT5AXFLm/SMwcdbvHhxKF4lgYdI5QXdPL/77jun8faSelw/scDtDSetiy3On3UI/NEEEHhE2L60oS4HH2z3iZY7G9Qfq1EOXj6ab9++PWTXGYHbXwZxa1gZ65x8366OZ7tSJC31/9Yb9PBReak/Og5W4OpjrhT8Lx6VT8FytowqLesZgw/VBK5+bQnb9oVn5R0L/NChQ6HeNIKIAIGuJoDAU2rADjHzXSVWkmmvpauVKPnGw9tSsi9teuaZZ4IM9GalD/UKXA/3rJzj1rDyVUvWS0oP4pRGQ/H8No0Vrzf44X3KJw5W4LZ7I46ndd/q9QK3Lxepda791Sa9GetDJYGLTXzz1I3okUceKY3M0XhwfYDMc4kFrhut36cuMgIEupoAAk+pAdsK1NcDbffJY489lpLCJR7ISZDVgrpVvAxsP3G9ArejQdSqjIM9F8nWl81+PkDl0BcM6wn+JufFa9NagVfqk5dQ4y4UCd9zkVDrDZUEvmbNmpB33759nUauxEGfJPDHjwX+8ccfh33iToBAVxNA4Ck1oH5r/0esMdZWgll9unYIoX2tPCX70ibJyR/DvhhSj8AlGC9A5aWXiWzQl/ls69x21Sie/YiX+rQ1xK/WoIeOvvzxcDsrcD04zQr2JvL444+Xoml4ns83fkHI5qO0uplqUj+2D5UEbt+2zXqIaePEAler25dNn/glQKCrCSDwjBqwbw/6B3aSYZbkNAzO/3Er3pEjRzJydqUvA/q+X6Wxr7HXKnC14H0/tPJQN4ANat3afl59ejYO6gqyedTTr2tlFj8ItQJX2b744ov40KVX6e0LSHYYoWWvh5pxUB3YseD6heSDFXg8wseOEU8bnqhhg/aGZ1/UUv526KTt29dHyvTdGj/Fx9WN0++L3zzVMxG/L/6wmT8n5hDIIoDAM8ioFe2F7OfxiJE4qRWE0ui7HBKQvn2ib4XoGxoaMeH7jxVHoy80PtkHK3Adb/78+WHSyAft9zcUXy7JLBaSfZNR+33XiT+On+vrhj4fzeNWvI8Xz+2IjBUrViR2xwJXvhrqKOnpZR7dfKy8408X2Bd5lFZ99OriEUfVy5gxY0KZ/fBDXwD7MpbGx+sXkz8nvTHqz1VdQLrJ6p9RSNQLFixIyFvx9IKS9vvgyyzJ2we/KpvPV3N7Q1Fae1OIf8Gpfn1a1SsBAvUQQOAZtPSHa//w9EemD1ZVCkqj73/7P8hqc/3Bxn/sVuDV0mu/Wpz2Q1Iqn/0nBIpjW/hp5bcP9irJ3qa1L8Wo+8gGK/CYYXxO6pe3XSA+n0WLFlXlqBth/KEq/fOK+Bh+2KductXKo18yNr34+uB/rcTdQgjcE2LebAIIvAJx+5NZf7xxX29aUj9MLW4lWylIkhpvfvXq1Q5ZVBO4Wqt6dV4fwcoa4WFHnUybNq3DMeINerPRis1+pCuOa9d9P7hEaoMVuN7S1NupNn+x0Lr4xgK2+ajFboc8WoZ6CUrljoO6jvQ2pX02oBFEPqg7I/6WuvJVnfjWsd3v+ak/3B8//va6WvB+n+Zxvdqy2P/epDLZh6bxLxFfZuYQyCKAwLPINGC7vs+tLhR1MXz66aelT5dKBJJMKwT7BUbbJ5x2buoXVpyvvvqq1JWUFidrm9JKknp9Xf3ttsspK0217XrAq18musGoD9sG1Y/6o3VMf9P2ff668cTxbVqWIdBMAgi8mbRb8Fh+HLdvqbbgKZZuuGqhq3WtX0gECOSFAALPS00UtBx+9I1apnF/fkFPqUOxbb+6/gkEAQJ5IYDA81ITBS6H/7CVxlC3WlD3jR81VOtbtq3GgPPJLwEEnt+6KUzJ7EM8++3twpxAhYL6T8jqzc14fHeFZOyCQFMIIPCmYG79g+gBpUZ4xEMai37m6jLRebXajano9UL5/0MAgXMlQAACECgoAQRe0Iqj2BCAAAQQONcABCAAgYISQOAFrTiKDQEIQACBcw1AAAIQKCgBBF7QiqPYEIAABBA41wAEIACBghJA4AWtOIoNAQhAAIFzDUAAAhAoKAEEXtCKo9gQgAAEEDjXAAQgAIGCEkDgBa04ig0BCEAAgXMNQAACECgoAQRe0Iqj2BCAAAQQONcABCAAgYISQOAFrTiKDQEIQACBcw1AAAIQKCgBBF7QiqPYEIAABBA41wAEIACBghJA4AWtOIoNAQhAIFXge/bscUww4BrgGuAayM81kHa7QuDcrLhZcw1wDRTgGqhZ4GkR2QYBCEAAAvkikNoCz1cRKQ0EIAABCKQRQOBpVNgGAQhAoAAEEHgBKokiQgACEEgjgMDTqLANAhCAQAEIIPACVBJFhAAEIJBGAIGnUWEbBCAAgQIQQOAFqCSKCAEIQCCNAAJPo8I2CEAAAgUggMALUEkUEQIQgEAaAQSeRoVtEIAABApAAIEXoJIoIgQgAIE0Agg8jQrbIAABCBSAAAIvQCVRRAhAAAJpBBB4GhW2QQACECgAAQRegEqiiBCAAATSCCDwNCpsgwAEIFAAAgi8AJVEESEAAQikEUDgaVTYBgEIQKAABBB4ASqJIkIAAhBII4DA06iwDQIQgEABCCDwAlQSRYQABCCQRgCBp1FhGwQgAIECEEDgBagkiggBCEAgjQACL1N58OCBW716tVu5cqXbuXNnGqsO27777rtSfKX5+eefS/s3bdoUtml7PdOuXbtKeRw5ciSRzufdoQApG27fvp1Iu3379kSs8+fPh/3Hjx9P7GMFAhAoFgEEXq6vixcvum7dupWmIUOG1FSLM2fODGnWrVtXStOnT5+wzedX6/yxxx4r5fHqq68m8pg6dWpN5VGkFStWJNIOHz48kVbl9OVR+QkQgEBxCSDwct3lWeA9evRw9+7dq+kqGzlyZBC0RI3Aa8JGJAgUkgACL1dbowR+4cIFd+7cuQ7T9OnTg1iXLFnSYb/SXL58uVSauAUuEa9fv77qBXbmzJlwDN/KRuBVsREBAoUlgMDLVdcogWddCX/961+DXNesWZMVrbQ9TeBjx46tmEY733jjjXAMBF4VFxEgUHgCCLxchXkV+LBhw4KU9QCyUujdu3cp7sCBA0MaWuCViLEPAsUmgMDL9ZdXgS9btizIeP78+ZlXm0aw+Fb34sWLwzICz0TGDggUngACL1dhXgV++PBh179//5KQ+/Xrl3nBTZo0KUhbfele5gg8Exk7IFB4Agi8XIVW4BoKeOzYsarT5MmTgyj9MMKsK6KzfeAS+IIFC8JxDh482OEQN2/edN27dy/FGT9+fGk/Au+AiQ0QaDkCCLxcpVbgXn71zP9Igavv25clbUz4J598EvZv3ry5dEY+Pi3wlvub5YQgEAgg8DKKPAtcRdQoFEk5bUy4JK19PXv2dPfv3y+dEQIP1zgLEGhZAgi8XLVW4H379nVbtmypOj3xxBOh5ftHtsBVRI0D91K2Y8JPnToVts+YMSNcqD4uLfCAhAUItBwBBF6uUivw3/MqfdYV8nv6wJWn3sRU61titmPC58yZEwSufnsfELgnwRwCrUsAgZfrNu8CVzGnTZsWZK1+8YcPHzo79ttepgjc0mAZAq1JAIGX67UIAj906FAQuMaE79ixI6xr7LcNCNzSYBkCrUkAgZfrtQgCV1HtmPBnnnkmCPzKlSuJKxSBJ3CwAoGWJIDAy9VaFIHbMeFe0nqYGge/r5EPMfWxrK1bt5amvXv3xod0+va43x+/9l8tbYfM2AABCFQlgMDLiIoicH3t0MvZzzViJg5+XyWBDxo0yKkrptr0zTfflLJXPJ9v2luh/mUixYlH5VRLG5efdQhAoDoBBF5mVBSBq7h+TLhEacd+2+r2oq0kcB+n2lxvnCpUkzACtzXAMgT+eAIIvMy4MwK3Q/j0r9QqhXqGEc6ePTu0dPUqfRzsmPBXXnkl3l1a91IeNWpUYr9axn5frXP/9ufChQtD2gEDBiTy1Yof5qh8N27cmNhfLW0iMisQgEBNBBB4TZiIBAEIQCB/BBB4/uqEEkEAAhCoiQACrwkTkSAAAQjkjwACz1+dUCIIQAACNRFA4DVhIhIEIACB/BFA4PmrE0oEAQhAoCYCCLwmTESCAAQgkD8CCDx/dUKJIAABCNREAIHXhIlIEIAABPJHAIHnr04oEQQgAIGaCCDwmjARCQIQgED+CCDw/NUJJYIABCBQEwEEXhMmIkEAAhDIHwEEnr86oUQQgAAEaiKAwGvCRCQIQAAC+SOAwPNXJ5QIAhCAQE0EEHhNmIgEAQhAIH8EEHj+6oQSQQACEKiJAAKvCRORIAABCOSPAALPX51QIghAAAI1EUDgNWEiEgQgAIH8EUDg+asTSgQBCECgJgIIvCZMRIIABCCQPwIIPH91QokgAAEI1EQAgdeEiUgQgAAE8kcAgeevTigRBCAAgZoIIPCaMBEJAhCAQP4IIPD81QklggAEIFATAQReEyYiQQACEMgfAQSevzqhRBCAAARqIoDAa8JEJAhAAAL5I4DA81cnlAgCEIBATQQQeE2YiAQBCEAgfwQQeP7qhBJBAAIQqIkAAq8JE5EgAAEI5I8AAs9fnVAiCEAAAjURQOA1YSISBCAAgfwRQOD5qxNKBAEIQKAmAgi8JkxEggAEIJA/Agg8f3VCiSAAAQjURACBO+e+/PJLt3LlytK0Z8+equCuXr0a4q9fv949fPiwlGbr1q1hu/K7e/du1bx8hDNnziTSHj161O8qzbXuy3j58uXEPlYgAIH2JIDAnXPz58933bp1C9Pp06crXg1PP/10iDtmzJgQd/DgwWG78pPcaw3PPfdcIu2cOXMSSadMmRL260ZBgAAEIIDAnXMPHjxwQ4cODYIcNWpU5pWxadOmEK979+7u7NmzIW4s8LFjx4Z9lRZu3brllJe9iSDwSsTYBwEIiAACL18HJ0+eTAh0xYoVHa6QK1euuJ49e4Z46tKwIRa4hHz+/HkbJXVZx7Ly1jICT0XFRghAwBBA4AbG4sWLg0h79OjhLl68aPY6Z7tOxo0bl9inlTSBq3umWhgxYkQ4rhc5Aq9Gjf0QgAACN9eAHkZamUrYPtiukzS5K54XuLpD+vXrV5Ky5pWCHl56aQ8bNiwsI/BK1NgHAQiIAAKPrgMJ1fZHf/311y7uOtm4cWOU6j+rVuD2wejBgwdT42vj3Llzg7SXLVsWlhF4JjJ2QAACZQIIPOVS+Pjjj4NIe/fu7dRd4lvJtlUeJ7UCV9+3TzN16tQ4alhX/oo3cOBAt2/fvpAGgQdELEAAAhkEEHgGGA0P9AL2cz3A1BjwrGAFrjgahaK06nK5d+9eh2S7du0Kx1D/OwLvgIgNEIBABQIIPAOOhgfarhSJWN0plUIscI0D9/JPGxM+adKksF8v5yDwSnTZBwEIxAQQeEykvK6WtlrOXsCaHzhwICP2fzbHAler2+cRjwm/ceNGuEGMHz++lAECr4iXnRCAQEQAgUdA/Oqf/vSnhLwl8L59+7rbt2/7KB3mscAVYdq0aSEfOyb8k08+Cds3b95cyguBd0DKBghAoAIBBJ4Cxw4ZVDdKnz59gmynT5+ekuI/m9IEfujQoZDWjgkfPnx4abv61e/fv1/KAIFnomUHBCCQQgCBR1AuXboUuj3U6l61apU7cuRIkLC27dixI0r1n9U0gWtP//79S+n9mPBTp06F/GbMmBHyQuABBQsQgEANBBB4BGnChAlBro8//njYO2vWrLC9V69eTn3YccgS+IIFC0JajQmfPXt2WD927FjIBoEHFCxAAAI1EEDgBtK6deuCWPXw8cKFC2GvPg2rPnC1wDXp64FxyBK48vHp9FVB3QC0PmjQoEQWCDyBgxUIQKAKAQReBiTJ+hEjkuvatWs7oNu7d28QseJ88cUXiThZAlckPybci1xzjf224Y8S+OHDh50+Qavp+PHj9pDu+vXrYZ/2x+PVK6VNZMQKBCDQdAIIvIxc3SVerk888URmRbzwwgshnoSvPnMfKgncjgn3x9Er+jbUKvCJEyeWvmGuh6KVJi9re/PQLwAb1KXjy6N5/AGvSmltPixDAALNJ4DAnXOff/55kJikHEvMVsvNmzedf/1dwrOyryRwOyY8Tufzr1XgVriVlv3nbitJGIF7+swhUDwCbS9wCdm+cZn2xmRcrd98800QvgS6ZcuWUhT/NUHllxbsmHCfxsazAn/77bftLmf/I08ladt96tNXsN9yiYdB6l+12TTxpwIqpU0UkBUIQKDpBNpe4E0nzgEhAAEINIgAAm8QSLKBAAQg0GwCCLzZxDkeBCAAgQYRQOANAkk2EIAABJpNAIE3mzjHgwAEINAgAgi8QSDJBgIQgECzCSDwZhPneBCAAAQaRACBNwgk2UAAAhBoNgEE3mziHA8CEIBAgwgg8AaBJBsIQAACzSaAwJtNnONBAAIQaBABBN4gkGQDAQhAoNkEEHiziXM8CEAAAg0igMAbBJJsIAABCDSbAAJvNnGOBwEIQKBBBBB4g0CSDQQgAIFmE0DgzSbO8SAAAQg0iAACbxBIsoEABCDQbAIIvNnEOR4EIACBBhFA4A0CSTYQgAAEmk0AgTebOMeDAAQg0CACCLxBIMkGAhCAQLMJIPBmE+d4EIAABBpEAIE3CCTZQAACEGg2AQTebOIcDwIQgECDCCDwBoEkGwhAAALNJoDAm02c40EAAhBoEAEE3iCQZAMBCECg2QQQeLOJczwIQAACDSKAwBsEkmwgAAEINJsAAm82cY4HAQhAoEEEEHiDQJINBCAAgWYTQODNJs7xIAABCDSIAAJvEEiygQAEINBsAgi82cQ5HgQgAIEGEUDgDQJJNhCAAASaTQCBN5s4x4MABCDQIAIIvEEgyQYCEIBAswkg8GYT53gQgAAEGkQAgTcIJNlAAAIQaDYBBF4mfuXKFbdy5crSdOTIkZrq4cSJEyHN999/n0izbdu2sM/nG8/XrVvnDhw44K5evZpIa1eOHj0a8rl8+bLdxTIEINDmBBB4+QKQtLt161aaxo8fX9NlsXjx4pDmgw8+SKTp169f2OfzrTTXMU+ePJnIQytTpkwJ+WzdurXDfjZAAALtSwCBl+u+qwUuuXfv3t2dOnUqcTUi8AQOViAAAUMAgZdh/JEC//nnn925c+cS09mzZ526R5YvX+569uwZWtnDhw831UMLPAGDFQhAIEEAgZdx/JECv3fvXgJ6vLJjx44gcLXEb9++HaLQAg8oWIAABCICCLwMpCsF/uDBg0Qr/NChQ6GaEHhAwQIEIBARQOBlIF0pcBVhxIgRoRV+/vz5UE0IPKBgAQIQiAgg8DKQrhT43bt3Sw8w1X2i0Ss2IHBLg2UIQMASQOBlGl0l8GvXrrnHH388tL6nTp1q64dhhAkarEAAApYAAi/T+CMF/uc//9lJzHaaNGmSGz16dBC3Wt+9evVyGp1iAy1wS4NlCEDAEkDgZRp/pMAl52rT0KFD3YULF2zdlJYReAckbIAABMoEEHgZxB8pcLWs06ZY6uPGjXMakWIDArc0WIYABCwBBF6m0RmBL1q0KLSstWyDfZU+axy4tn/xxRfhAaaEvmHDBpsNfeAJGqxAAAKWAAIv0zh9+nSQ8ZAhQyyjzOVZs2aFNEuWLEnEq0XgPsE//vGPkI/6xm2gBW5psAwBCFgCCLxM4+HDh0GiPXr0sIwyl5988smQRm9T2lCPwPXg0nenxDcPBG6psgwBCFgCCNzQ6N+/fxDpV199ZfZ0XNTnZyV6L16t21CPwJXO59W3b1+bDV0oCRqsQAAClgACNzSmTZsWhNy7d29n34g00UoPGp977rkQV+KPQ70CHzBgQCm/uPX/e1rghw8fdvoErabjx48ninj9+vWwT/vjfvpKaRMZsQIBCHQZAQRu0EtqGi3iW9X6vOt7770X/umC+sn10HHQoEEhjuLu3bvX5PKfxXoFrq8Q+uOqHD5YgU+cONHNnz+/6uRlPXbs2JCn8rHh4MGDYZ+Oe/HiRbvbVUqbiMgKBCDQZQQQeIR+586diVEhXqpZ8zfffDPK4T+r9Qr8scceC0LduHFjyNMKPKsM8Xb95x+FShJG4AExCxAoLAEEnlJ1+tdlM2bMCEKNBan1YcOGOXUzZIV6BT5v3rxwPPtN8M4IXP+qTUHjyn3Zp0+fniiqvkXu92ke/1u3SmkTGbECAQh0GQEEXgG9+oX1fy/1QFPDBNWyrfY/LCtkxy4IQAACDSWAwBuKk8wgAAEINI8AAm8ea44EAQhAoKEEEHhDcZIZBCAAgeYRQODNY82RIAABCDSUAAJvKE4ygwAEINA8Agi8eaw5EgQgAIGGEkDgDcVJZhCAAASaRwCBN481R4IABCDQUAIIvKE4yQwCEIBA8wgg8Oax5kgQgAAEGkoAgTcUJ5lBAAIQaB4BBN481hwJAhCAQEMJIPCG4iQzCEAAAs0jgMCbx5ojQQACEGgoAQTeUJxkBgEIQKB5BBB481hzJAhAAAINJYDAG4qTzCAAAQg0jwACbx5rjgQBCECgoQQQeENxkhkEIACB5hFA4M1jzZEgAAEINJQAAm8oTjKDAAQg0DwCCLx5rDkSBCAAgYYSQOANxUlmEIAABJpHAIE3jzVHggAEINBQAgi8oTjJDAIQgEDzCKQKfM+ePY4JBlwDXANcA/m5BtJuCwicmxU3a64BroECXAM1CzwtItsgAAEIQCBfBFJb4PkqIqWBAAQgAIE0Agg8jQrbIAABCBSAAAIvQCVRRAhAAAJpBBB4GhW2QQACECgAAQRegEqiiBCAAATSCCDwNCpsgwAEIFAAAgi8AJVEESEAAQikEUDgaVTYBgEIQKAABBB4ASqJIkIAAhBII4DA06iwDQIQgEABCCDwAlQSRYQABCCQRgCBp1FhGwQgAIECEEDgBagkiggBCEAgjQACT6PCNghAAAIFIIDAC1BJFBECEIBAGgEEnkaFbRCAAAQKQACBF6CSKCIEIACBNAIIPI0K2yAAAQgUgAACL0AlUUQIQAACaQQQeBoVtkEAAhAoAAEEXoBKoogQgAAE0ggg8DQqbIMABCBQAAIIvACVRBEhAAEIpBFA4GlUzLY1a9a4lStXlqZz586ZPZ1fvH79esjzhx9+6HxGpOxAALYdkLChhQkg8AqV+69//ct169YtTDNmzKgQu/ZdkrbP9x//+EftCYlZlQBsqyIiQgsRQOAVKvOZZ54JopVwe/To4e7du1chRW27kExtnDoTC7adoUaaohJA4Bk1d+3atYS8fYt5/fr1GSlq34xkaiBkDwAACbFJREFUamdVb0zY1kuM+EUmgMAzam/JkiVB4MuWLQvLo0ePzkhR+2YkUzuremPCtl5ixC8yAQSeUXsDBw4sSVvdJvfv33ejRo0KEv/5558zUiU337x50+3atcstXbrUrV271v3666+lCGmSuXTpkvvtt99K08OHD5MZmTU9pFO8ixcvmq3/XTx58qTbsmWL++c//+l049m0aVNmXJ+Xfm34oHJs3LjR6Qa2Y8cOpzjVgsr7/ffflx7MfvLJJ6Vzvnz5crVkpf1nz54tHe+zzz5zp0+frimNItXDtuZMiQiBghFA4CkVduTIkSDrF154oRRDgvHdKK+//npKqv9ukmCt8H06zR9//PGSGP02/xBz3LhxIf9t27b9N7NoaciQIaV43bt3T/TH79692w0bNizk4fP38yeeeMLdvn07kdujjz5aij9ixIjSzcXftHwazXWcTz/9NJHOr0jcc+fOLcWxafzy1KlTnW4IaWHfvn2uT58+Hcrbq1cvV4lvZ9imHZ9tEGgFAgg8pRYlHi+hb7/9thTjxo0bYZskk9VKPnjwoOvZs2eI6/Oxc0nRr3uBq9Xrt02ePDmlVK4kWR9nwoQJIY7KaPP0ceL5k08+GdJo4ZFHHikds2/fvqkytem3b9+eSCse6k6ycdKWdcOJbxwffvhh1XTTp09PHE8rnWXbISM2QKBFCCDwqCLv3LkTZCix2SBpekl9/fXXdldYtq3Y4cOHu71797q7d+86dRUsX7485O3z8QLX6BZ112i777YJmZYXFi5cGI7/1Vdfhd06js9v5syZ7sCBA6XWubp+NmzYEI4pyT948CCk8wL3adUiP3bsWKnLSHlMnDgx5KtfFDa8+eabYZ/Kq4e76tZRi1vdKGLn8509e3ZI+u9//ztsV7p169Y53Qwk+S+//NL17t077P/oo49COi10lm0iE1Yg0EIEEHhUmXppx4vn7bffTuzdvHlz2Dd+/PjEPq3YVvTQoUOdbgZxsN0zOo4XuOKpu8Yfe+vWrXHS0EViBa+bg0+jbpi0oNasj3PixIkQxQpc8o7DrVu3gvz1q8KHq1evhu26Kfz0009+V5jv2bMnHLN///5hu7prfFnUbx6HCxcuhBtZv379wu7fyzZkxAIEWogAAo8q0wrmzJkzib22lSwJxQ8Sn3766SAnPUjMCpMmTQrxrMAPHToUtj/77LOJ5OfPnw/7XnrppbBPZZg1a1Zp2rlzZ9huF9R14qWpFrYPVuDfffed35yYP/XUUyGtb72vWLEibLNlSSR0zs2ZM8fpV4vOV2n1YNOXY8qUKXH0sP7ee++FeOorV/i9bEPmLECghQggcFOZP/74YxCHHrAdPXq0wzRmzJgQZ/78+Sa1c4MHDy7ti7sqEpGcc+p+8SKzAlc8tTq1T3nYl4bssEa14rOC0kjGq1evLknddjso3yyBeznH+drWuy+PHjL68nvBxunS1jUix6dTl8yrr76aOvmHq4q7ePHiUlaNYJtWJrZBoMgEELipvddeey0Ixoum0jzuI1fXhuJL/pVC2jBCH9+2PtUn7MPIkSNLedvuCL9P8pWwbV94VrnTBK6HslkhTeC2NVzP92E0nDKrXFnbff95I9hmnSPbIVBUAgi8XHN64Fdt9EiaZNTX64NEqDh6EFcpqO/X5xW3wDVMzu9T14OCHgz6bRK8DRoNoyGCfr/mOg91j7z44oul8eB/+ctfwv5GCNweL+5GsmWLl+0LURKyfh1Um/TLQ6ERbOPysA6BohNA4OUa1AsvXoJjx451eoiYNdlhhl6yysa2gHVDyArqH/fHigWuNL6bxnejWPHFLV59LdHnpV8EftijPbYdvdIIgWukiz+mRqtkBZXl888/dyqjul/U3eLT6UWjekKj2NZzTOJCIO8EEHi5hh577LEgl3jMc1yJv/zyS4grIfm3FTV+2wtK4soKdjhimsCtlDXyxY+3jofyKX87ciXrIaaN0wiBazikP89XXnkl9TR1A7NDAjUix35fxo5jjzP45ptvnOpDk3+42ii28bFYh0CRCSBw50qvpnshVXpJx1a0Ha2ivl2F/fv3B7GpH1xD4uJgH+TpmGkCt2PR7QM9jf6Ig4Yz+rKnDcvTsEG15H0cPZj1wY9CqbcP3N7AlLde34+DbmD+mPpF44OW/XaxiIPO3Yrfd9E0gq1uzP5XlUb12KARR36fxu7boBu036e5f5hr47AMga4ggMCdc/PmzQtS0ZC8WoJthaof1wcrXIlIDxclB4lzwYIF4TheYmkCV162xam4EqW+/xGHN954I+SpV+k1QkXx/PGsvJWPPgng8+mswFUGjSDx56D+bOWr89T3XtTl4x86Ko596ci+yKN9ehVfb1iqa2jVqlWh+0j74nHtv5etZaEXiGzQiCJ/Pnb8ueKofH6f5v6mYtOzDIGuIIDAnUu8Rm5fdKlUIWqV2T9q/1NfAouH7tl48XKWwNUKtHH1bfK0oFa3FZNN45e9qP26+vAV/PZ6W+BKq/O3v0J83vE87Z9gLFq0KHFucRqt6xdM/EGs38vWckLgaVcT24pGoO0FrgdtXiD6bkc9wfZla6SHD+oGkCTjUS0SiIbg2VZo/Lq4z0NzScyXrVK/vPZpeKGP6+f6BeBFZfdPmzatdBgvcMXLCurj9vnFD2Y1Aubdd9/tcJ6Krzz1BcasoIeffmy3z9/PNXomrftJef0etvZXgd7stME+6B0wYIDdVfo148umud5EJUAgDwTaXuB/dCWo1ah+U7Xssz6A1agynDp1qvSlQ32Z0D9Y9Xnr2GrVq2sl66UdH7czc7WW9RBVx86Sb1q+6k9WmfRy0/Hjx0vfjUmLl7atmWzTjs82CHQ1AQTe1TXA8SEAAQh0kgAC7yQ4kkEAAhDoagIIvKtrgONDAAIQ6CQBBN5JcCSDAAQg0NUEEHhX1wDHhwAEINBJAgi8k+BIBgEIQKCrCSDwrq4Bjg8BCECgkwQQeCfBkQwCEIBAVxNA4F1dAxwfAhCAQCcJIPBOgiMZBCAAga4mgMC7ugY4PgQgAIFOEkDgnQRHMghAAAJdTQCBd3UNcHwIQAACnSSAwDsJjmQQgAAEupoAAu/qGuD4EIAABDpJAIF3EhzJIAABCHQ1AQTe1TXA8SEAAQh0kgAC7yQ4kkEAAhDoagIIvKtrgONDAAIQ6CQBBN5JcCSDAAQg0NUEEHhX1wDHhwAEINBJAt1u3rzZyaQkgwAEIACBriIgd3c7d+6cu3PnTleVgeNCAAIQgECdBORsubvbud9+c2fPnXO0xOskSHQIQAACXUDgxs2b7uzZs07u/n/7LJ+CEUNrKQAAAABJRU5ErkJggg==;imageBorder=#000000;" vertex="1" parent="gUXft_UfUMmgh48ima2t-1">
          <mxGeometry x="70" y="50" width="125.6" height="200" as="geometry" />
        </mxCell>
      </root>
    </mxGraphModel>
  </diagram>
</mxfile>
